%TF.GenerationSoftware,KiCad,Pcbnew,8.0.5*%
%TF.CreationDate,2025-01-15T00:37:06+05:30*%
%TF.ProjectId,MCU_Datalogger,4d43555f-4461-4746-916c-6f676765722e,1*%
%TF.SameCoordinates,Original*%
%TF.FileFunction,Legend,Top*%
%TF.FilePolarity,Positive*%
%FSLAX46Y46*%
G04 Gerber Fmt 4.6, Leading zero omitted, Abs format (unit mm)*
G04 Created by KiCad (PCBNEW 8.0.5) date 2025-01-15 00:37:06*
%MOMM*%
%LPD*%
G01*
G04 APERTURE LIST*
%ADD10C,0.150000*%
%ADD11C,0.125000*%
%ADD12C,0.120000*%
%ADD13C,0.152400*%
%ADD14C,0.254000*%
%ADD15C,0.127000*%
%ADD16C,0.200000*%
G04 APERTURE END LIST*
D10*
X128119285Y-103011009D02*
X128262142Y-103058628D01*
X128262142Y-103058628D02*
X128309761Y-103106247D01*
X128309761Y-103106247D02*
X128357380Y-103201485D01*
X128357380Y-103201485D02*
X128357380Y-103344342D01*
X128357380Y-103344342D02*
X128309761Y-103439580D01*
X128309761Y-103439580D02*
X128262142Y-103487200D01*
X128262142Y-103487200D02*
X128166904Y-103534819D01*
X128166904Y-103534819D02*
X127785952Y-103534819D01*
X127785952Y-103534819D02*
X127785952Y-102534819D01*
X127785952Y-102534819D02*
X128119285Y-102534819D01*
X128119285Y-102534819D02*
X128214523Y-102582438D01*
X128214523Y-102582438D02*
X128262142Y-102630057D01*
X128262142Y-102630057D02*
X128309761Y-102725295D01*
X128309761Y-102725295D02*
X128309761Y-102820533D01*
X128309761Y-102820533D02*
X128262142Y-102915771D01*
X128262142Y-102915771D02*
X128214523Y-102963390D01*
X128214523Y-102963390D02*
X128119285Y-103011009D01*
X128119285Y-103011009D02*
X127785952Y-103011009D01*
X128643095Y-102534819D02*
X129214523Y-102534819D01*
X128928809Y-103534819D02*
X128928809Y-102534819D01*
X130071666Y-103534819D02*
X129500238Y-103534819D01*
X129785952Y-103534819D02*
X129785952Y-102534819D01*
X129785952Y-102534819D02*
X129690714Y-102677676D01*
X129690714Y-102677676D02*
X129595476Y-102772914D01*
X129595476Y-102772914D02*
X129500238Y-102820533D01*
X133502476Y-105226295D02*
X133502476Y-105873914D01*
X133502476Y-105873914D02*
X133540571Y-105950104D01*
X133540571Y-105950104D02*
X133578666Y-105988200D01*
X133578666Y-105988200D02*
X133654857Y-106026295D01*
X133654857Y-106026295D02*
X133807238Y-106026295D01*
X133807238Y-106026295D02*
X133883428Y-105988200D01*
X133883428Y-105988200D02*
X133921523Y-105950104D01*
X133921523Y-105950104D02*
X133959619Y-105873914D01*
X133959619Y-105873914D02*
X133959619Y-105226295D01*
X134302475Y-105302485D02*
X134340571Y-105264390D01*
X134340571Y-105264390D02*
X134416761Y-105226295D01*
X134416761Y-105226295D02*
X134607237Y-105226295D01*
X134607237Y-105226295D02*
X134683428Y-105264390D01*
X134683428Y-105264390D02*
X134721523Y-105302485D01*
X134721523Y-105302485D02*
X134759618Y-105378676D01*
X134759618Y-105378676D02*
X134759618Y-105454866D01*
X134759618Y-105454866D02*
X134721523Y-105569152D01*
X134721523Y-105569152D02*
X134264380Y-106026295D01*
X134264380Y-106026295D02*
X134759618Y-106026295D01*
X136437999Y-105600700D02*
X136471332Y-105567366D01*
X136471332Y-105567366D02*
X136537999Y-105534033D01*
X136537999Y-105534033D02*
X136704666Y-105534033D01*
X136704666Y-105534033D02*
X136771332Y-105567366D01*
X136771332Y-105567366D02*
X136804666Y-105600700D01*
X136804666Y-105600700D02*
X136837999Y-105667366D01*
X136837999Y-105667366D02*
X136837999Y-105734033D01*
X136837999Y-105734033D02*
X136804666Y-105834033D01*
X136804666Y-105834033D02*
X136404666Y-106234033D01*
X136404666Y-106234033D02*
X136837999Y-106234033D01*
X137437999Y-105767366D02*
X137437999Y-106234033D01*
X137271333Y-105500700D02*
X137104666Y-106000700D01*
X137104666Y-106000700D02*
X137537999Y-106000700D01*
X138138000Y-106234033D02*
X137804666Y-106234033D01*
X137804666Y-106234033D02*
X137804666Y-105534033D01*
X138771333Y-106167366D02*
X138738000Y-106200700D01*
X138738000Y-106200700D02*
X138638000Y-106234033D01*
X138638000Y-106234033D02*
X138571333Y-106234033D01*
X138571333Y-106234033D02*
X138471333Y-106200700D01*
X138471333Y-106200700D02*
X138404667Y-106134033D01*
X138404667Y-106134033D02*
X138371333Y-106067366D01*
X138371333Y-106067366D02*
X138338000Y-105934033D01*
X138338000Y-105934033D02*
X138338000Y-105834033D01*
X138338000Y-105834033D02*
X138371333Y-105700700D01*
X138371333Y-105700700D02*
X138404667Y-105634033D01*
X138404667Y-105634033D02*
X138471333Y-105567366D01*
X138471333Y-105567366D02*
X138571333Y-105534033D01*
X138571333Y-105534033D02*
X138638000Y-105534033D01*
X138638000Y-105534033D02*
X138738000Y-105567366D01*
X138738000Y-105567366D02*
X138771333Y-105600700D01*
X139438000Y-106234033D02*
X139038000Y-106234033D01*
X139238000Y-106234033D02*
X139238000Y-105534033D01*
X139238000Y-105534033D02*
X139171333Y-105634033D01*
X139171333Y-105634033D02*
X139104667Y-105700700D01*
X139104667Y-105700700D02*
X139038000Y-105734033D01*
X139871334Y-105534033D02*
X139938000Y-105534033D01*
X139938000Y-105534033D02*
X140004667Y-105567366D01*
X140004667Y-105567366D02*
X140038000Y-105600700D01*
X140038000Y-105600700D02*
X140071334Y-105667366D01*
X140071334Y-105667366D02*
X140104667Y-105800700D01*
X140104667Y-105800700D02*
X140104667Y-105967366D01*
X140104667Y-105967366D02*
X140071334Y-106100700D01*
X140071334Y-106100700D02*
X140038000Y-106167366D01*
X140038000Y-106167366D02*
X140004667Y-106200700D01*
X140004667Y-106200700D02*
X139938000Y-106234033D01*
X139938000Y-106234033D02*
X139871334Y-106234033D01*
X139871334Y-106234033D02*
X139804667Y-106200700D01*
X139804667Y-106200700D02*
X139771334Y-106167366D01*
X139771334Y-106167366D02*
X139738000Y-106100700D01*
X139738000Y-106100700D02*
X139704667Y-105967366D01*
X139704667Y-105967366D02*
X139704667Y-105800700D01*
X139704667Y-105800700D02*
X139738000Y-105667366D01*
X139738000Y-105667366D02*
X139771334Y-105600700D01*
X139771334Y-105600700D02*
X139804667Y-105567366D01*
X139804667Y-105567366D02*
X139871334Y-105534033D01*
X140371334Y-105600700D02*
X140404667Y-105567366D01*
X140404667Y-105567366D02*
X140471334Y-105534033D01*
X140471334Y-105534033D02*
X140638001Y-105534033D01*
X140638001Y-105534033D02*
X140704667Y-105567366D01*
X140704667Y-105567366D02*
X140738001Y-105600700D01*
X140738001Y-105600700D02*
X140771334Y-105667366D01*
X140771334Y-105667366D02*
X140771334Y-105734033D01*
X140771334Y-105734033D02*
X140738001Y-105834033D01*
X140738001Y-105834033D02*
X140338001Y-106234033D01*
X140338001Y-106234033D02*
X140771334Y-106234033D01*
X141404668Y-105534033D02*
X141071334Y-105534033D01*
X141071334Y-105534033D02*
X141038001Y-105867366D01*
X141038001Y-105867366D02*
X141071334Y-105834033D01*
X141071334Y-105834033D02*
X141138001Y-105800700D01*
X141138001Y-105800700D02*
X141304668Y-105800700D01*
X141304668Y-105800700D02*
X141371334Y-105834033D01*
X141371334Y-105834033D02*
X141404668Y-105867366D01*
X141404668Y-105867366D02*
X141438001Y-105934033D01*
X141438001Y-105934033D02*
X141438001Y-106100700D01*
X141438001Y-106100700D02*
X141404668Y-106167366D01*
X141404668Y-106167366D02*
X141371334Y-106200700D01*
X141371334Y-106200700D02*
X141304668Y-106234033D01*
X141304668Y-106234033D02*
X141138001Y-106234033D01*
X141138001Y-106234033D02*
X141071334Y-106200700D01*
X141071334Y-106200700D02*
X141038001Y-106167366D01*
X161885333Y-110309819D02*
X161552000Y-109833628D01*
X161313905Y-110309819D02*
X161313905Y-109309819D01*
X161313905Y-109309819D02*
X161694857Y-109309819D01*
X161694857Y-109309819D02*
X161790095Y-109357438D01*
X161790095Y-109357438D02*
X161837714Y-109405057D01*
X161837714Y-109405057D02*
X161885333Y-109500295D01*
X161885333Y-109500295D02*
X161885333Y-109643152D01*
X161885333Y-109643152D02*
X161837714Y-109738390D01*
X161837714Y-109738390D02*
X161790095Y-109786009D01*
X161790095Y-109786009D02*
X161694857Y-109833628D01*
X161694857Y-109833628D02*
X161313905Y-109833628D01*
X162266286Y-109405057D02*
X162313905Y-109357438D01*
X162313905Y-109357438D02*
X162409143Y-109309819D01*
X162409143Y-109309819D02*
X162647238Y-109309819D01*
X162647238Y-109309819D02*
X162742476Y-109357438D01*
X162742476Y-109357438D02*
X162790095Y-109405057D01*
X162790095Y-109405057D02*
X162837714Y-109500295D01*
X162837714Y-109500295D02*
X162837714Y-109595533D01*
X162837714Y-109595533D02*
X162790095Y-109738390D01*
X162790095Y-109738390D02*
X162218667Y-110309819D01*
X162218667Y-110309819D02*
X162837714Y-110309819D01*
X164003452Y-111333961D02*
X164003452Y-111867295D01*
X163812976Y-111029200D02*
X163622499Y-111600628D01*
X163622499Y-111600628D02*
X164117738Y-111600628D01*
X164422500Y-111791104D02*
X164460595Y-111829200D01*
X164460595Y-111829200D02*
X164422500Y-111867295D01*
X164422500Y-111867295D02*
X164384404Y-111829200D01*
X164384404Y-111829200D02*
X164422500Y-111791104D01*
X164422500Y-111791104D02*
X164422500Y-111867295D01*
X164727261Y-111067295D02*
X165260595Y-111067295D01*
X165260595Y-111067295D02*
X164917737Y-111867295D01*
X165565357Y-111867295D02*
X165565357Y-111067295D01*
X166022500Y-111867295D02*
X165679642Y-111410152D01*
X166022500Y-111067295D02*
X165565357Y-111524438D01*
X166901905Y-98499819D02*
X166901905Y-97499819D01*
X166901905Y-97499819D02*
X167140000Y-97499819D01*
X167140000Y-97499819D02*
X167282857Y-97547438D01*
X167282857Y-97547438D02*
X167378095Y-97642676D01*
X167378095Y-97642676D02*
X167425714Y-97737914D01*
X167425714Y-97737914D02*
X167473333Y-97928390D01*
X167473333Y-97928390D02*
X167473333Y-98071247D01*
X167473333Y-98071247D02*
X167425714Y-98261723D01*
X167425714Y-98261723D02*
X167378095Y-98356961D01*
X167378095Y-98356961D02*
X167282857Y-98452200D01*
X167282857Y-98452200D02*
X167140000Y-98499819D01*
X167140000Y-98499819D02*
X166901905Y-98499819D01*
X168425714Y-98499819D02*
X167854286Y-98499819D01*
X168140000Y-98499819D02*
X168140000Y-97499819D01*
X168140000Y-97499819D02*
X168044762Y-97642676D01*
X168044762Y-97642676D02*
X167949524Y-97737914D01*
X167949524Y-97737914D02*
X167854286Y-97785533D01*
X170752419Y-122202533D02*
X171466704Y-122202533D01*
X171466704Y-122202533D02*
X171609561Y-122250152D01*
X171609561Y-122250152D02*
X171704800Y-122345390D01*
X171704800Y-122345390D02*
X171752419Y-122488247D01*
X171752419Y-122488247D02*
X171752419Y-122583485D01*
X171752419Y-121202533D02*
X171752419Y-121773961D01*
X171752419Y-121488247D02*
X170752419Y-121488247D01*
X170752419Y-121488247D02*
X170895276Y-121583485D01*
X170895276Y-121583485D02*
X170990514Y-121678723D01*
X170990514Y-121678723D02*
X171038133Y-121773961D01*
X143630667Y-104248295D02*
X143364000Y-103867342D01*
X143173524Y-104248295D02*
X143173524Y-103448295D01*
X143173524Y-103448295D02*
X143478286Y-103448295D01*
X143478286Y-103448295D02*
X143554476Y-103486390D01*
X143554476Y-103486390D02*
X143592571Y-103524485D01*
X143592571Y-103524485D02*
X143630667Y-103600676D01*
X143630667Y-103600676D02*
X143630667Y-103714961D01*
X143630667Y-103714961D02*
X143592571Y-103791152D01*
X143592571Y-103791152D02*
X143554476Y-103829247D01*
X143554476Y-103829247D02*
X143478286Y-103867342D01*
X143478286Y-103867342D02*
X143173524Y-103867342D01*
X143897333Y-103448295D02*
X144430667Y-103448295D01*
X144430667Y-103448295D02*
X144087809Y-104248295D01*
X143211618Y-107422295D02*
X142754475Y-107422295D01*
X142983047Y-107422295D02*
X142983047Y-106622295D01*
X142983047Y-106622295D02*
X142906856Y-106736580D01*
X142906856Y-106736580D02*
X142830666Y-106812771D01*
X142830666Y-106812771D02*
X142754475Y-106850866D01*
X143706857Y-106622295D02*
X143783047Y-106622295D01*
X143783047Y-106622295D02*
X143859238Y-106660390D01*
X143859238Y-106660390D02*
X143897333Y-106698485D01*
X143897333Y-106698485D02*
X143935428Y-106774676D01*
X143935428Y-106774676D02*
X143973523Y-106927057D01*
X143973523Y-106927057D02*
X143973523Y-107117533D01*
X143973523Y-107117533D02*
X143935428Y-107269914D01*
X143935428Y-107269914D02*
X143897333Y-107346104D01*
X143897333Y-107346104D02*
X143859238Y-107384200D01*
X143859238Y-107384200D02*
X143783047Y-107422295D01*
X143783047Y-107422295D02*
X143706857Y-107422295D01*
X143706857Y-107422295D02*
X143630666Y-107384200D01*
X143630666Y-107384200D02*
X143592571Y-107346104D01*
X143592571Y-107346104D02*
X143554476Y-107269914D01*
X143554476Y-107269914D02*
X143516380Y-107117533D01*
X143516380Y-107117533D02*
X143516380Y-106927057D01*
X143516380Y-106927057D02*
X143554476Y-106774676D01*
X143554476Y-106774676D02*
X143592571Y-106698485D01*
X143592571Y-106698485D02*
X143630666Y-106660390D01*
X143630666Y-106660390D02*
X143706857Y-106622295D01*
X144316381Y-107422295D02*
X144316381Y-106622295D01*
X144773524Y-107422295D02*
X144430666Y-106965152D01*
X144773524Y-106622295D02*
X144316381Y-107079438D01*
X156943809Y-116558628D02*
X156943809Y-117034819D01*
X156610476Y-116034819D02*
X156943809Y-116558628D01*
X156943809Y-116558628D02*
X157277142Y-116034819D01*
X158134285Y-117034819D02*
X157562857Y-117034819D01*
X157848571Y-117034819D02*
X157848571Y-116034819D01*
X157848571Y-116034819D02*
X157753333Y-116177676D01*
X157753333Y-116177676D02*
X157658095Y-116272914D01*
X157658095Y-116272914D02*
X157562857Y-116320533D01*
X156076856Y-122542295D02*
X155619713Y-122542295D01*
X155848285Y-122542295D02*
X155848285Y-121742295D01*
X155848285Y-121742295D02*
X155772094Y-121856580D01*
X155772094Y-121856580D02*
X155695904Y-121932771D01*
X155695904Y-121932771D02*
X155619713Y-121970866D01*
X156762571Y-121742295D02*
X156610190Y-121742295D01*
X156610190Y-121742295D02*
X156533999Y-121780390D01*
X156533999Y-121780390D02*
X156495904Y-121818485D01*
X156495904Y-121818485D02*
X156419714Y-121932771D01*
X156419714Y-121932771D02*
X156381618Y-122085152D01*
X156381618Y-122085152D02*
X156381618Y-122389914D01*
X156381618Y-122389914D02*
X156419714Y-122466104D01*
X156419714Y-122466104D02*
X156457809Y-122504200D01*
X156457809Y-122504200D02*
X156533999Y-122542295D01*
X156533999Y-122542295D02*
X156686380Y-122542295D01*
X156686380Y-122542295D02*
X156762571Y-122504200D01*
X156762571Y-122504200D02*
X156800666Y-122466104D01*
X156800666Y-122466104D02*
X156838761Y-122389914D01*
X156838761Y-122389914D02*
X156838761Y-122199438D01*
X156838761Y-122199438D02*
X156800666Y-122123247D01*
X156800666Y-122123247D02*
X156762571Y-122085152D01*
X156762571Y-122085152D02*
X156686380Y-122047057D01*
X156686380Y-122047057D02*
X156533999Y-122047057D01*
X156533999Y-122047057D02*
X156457809Y-122085152D01*
X156457809Y-122085152D02*
X156419714Y-122123247D01*
X156419714Y-122123247D02*
X156381618Y-122199438D01*
X157791143Y-122542295D02*
X157791143Y-121742295D01*
X157791143Y-121742295D02*
X158057809Y-122313723D01*
X158057809Y-122313723D02*
X158324476Y-121742295D01*
X158324476Y-121742295D02*
X158324476Y-122542295D01*
X158705429Y-122542295D02*
X158705429Y-121742295D01*
X158705429Y-122123247D02*
X159162572Y-122123247D01*
X159162572Y-122542295D02*
X159162572Y-121742295D01*
X159467333Y-122008961D02*
X159886381Y-122008961D01*
X159886381Y-122008961D02*
X159467333Y-122542295D01*
X159467333Y-122542295D02*
X159886381Y-122542295D01*
X156274419Y-125453733D02*
X156988704Y-125453733D01*
X156988704Y-125453733D02*
X157131561Y-125501352D01*
X157131561Y-125501352D02*
X157226800Y-125596590D01*
X157226800Y-125596590D02*
X157274419Y-125739447D01*
X157274419Y-125739447D02*
X157274419Y-125834685D01*
X156369657Y-125025161D02*
X156322038Y-124977542D01*
X156322038Y-124977542D02*
X156274419Y-124882304D01*
X156274419Y-124882304D02*
X156274419Y-124644209D01*
X156274419Y-124644209D02*
X156322038Y-124548971D01*
X156322038Y-124548971D02*
X156369657Y-124501352D01*
X156369657Y-124501352D02*
X156464895Y-124453733D01*
X156464895Y-124453733D02*
X156560133Y-124453733D01*
X156560133Y-124453733D02*
X156702990Y-124501352D01*
X156702990Y-124501352D02*
X157274419Y-125072780D01*
X157274419Y-125072780D02*
X157274419Y-124453733D01*
X162154405Y-98499819D02*
X162154405Y-97499819D01*
X162154405Y-97499819D02*
X162392500Y-97499819D01*
X162392500Y-97499819D02*
X162535357Y-97547438D01*
X162535357Y-97547438D02*
X162630595Y-97642676D01*
X162630595Y-97642676D02*
X162678214Y-97737914D01*
X162678214Y-97737914D02*
X162725833Y-97928390D01*
X162725833Y-97928390D02*
X162725833Y-98071247D01*
X162725833Y-98071247D02*
X162678214Y-98261723D01*
X162678214Y-98261723D02*
X162630595Y-98356961D01*
X162630595Y-98356961D02*
X162535357Y-98452200D01*
X162535357Y-98452200D02*
X162392500Y-98499819D01*
X162392500Y-98499819D02*
X162154405Y-98499819D01*
X163106786Y-97595057D02*
X163154405Y-97547438D01*
X163154405Y-97547438D02*
X163249643Y-97499819D01*
X163249643Y-97499819D02*
X163487738Y-97499819D01*
X163487738Y-97499819D02*
X163582976Y-97547438D01*
X163582976Y-97547438D02*
X163630595Y-97595057D01*
X163630595Y-97595057D02*
X163678214Y-97690295D01*
X163678214Y-97690295D02*
X163678214Y-97785533D01*
X163678214Y-97785533D02*
X163630595Y-97928390D01*
X163630595Y-97928390D02*
X163059167Y-98499819D01*
X163059167Y-98499819D02*
X163678214Y-98499819D01*
X157760333Y-98374580D02*
X157712714Y-98422200D01*
X157712714Y-98422200D02*
X157569857Y-98469819D01*
X157569857Y-98469819D02*
X157474619Y-98469819D01*
X157474619Y-98469819D02*
X157331762Y-98422200D01*
X157331762Y-98422200D02*
X157236524Y-98326961D01*
X157236524Y-98326961D02*
X157188905Y-98231723D01*
X157188905Y-98231723D02*
X157141286Y-98041247D01*
X157141286Y-98041247D02*
X157141286Y-97898390D01*
X157141286Y-97898390D02*
X157188905Y-97707914D01*
X157188905Y-97707914D02*
X157236524Y-97612676D01*
X157236524Y-97612676D02*
X157331762Y-97517438D01*
X157331762Y-97517438D02*
X157474619Y-97469819D01*
X157474619Y-97469819D02*
X157569857Y-97469819D01*
X157569857Y-97469819D02*
X157712714Y-97517438D01*
X157712714Y-97517438D02*
X157760333Y-97565057D01*
X158712714Y-98469819D02*
X158141286Y-98469819D01*
X158427000Y-98469819D02*
X158427000Y-97469819D01*
X158427000Y-97469819D02*
X158331762Y-97612676D01*
X158331762Y-97612676D02*
X158236524Y-97707914D01*
X158236524Y-97707914D02*
X158141286Y-97755533D01*
X156612714Y-100937295D02*
X156688904Y-100937295D01*
X156688904Y-100937295D02*
X156765095Y-100975390D01*
X156765095Y-100975390D02*
X156803190Y-101013485D01*
X156803190Y-101013485D02*
X156841285Y-101089676D01*
X156841285Y-101089676D02*
X156879380Y-101242057D01*
X156879380Y-101242057D02*
X156879380Y-101432533D01*
X156879380Y-101432533D02*
X156841285Y-101584914D01*
X156841285Y-101584914D02*
X156803190Y-101661104D01*
X156803190Y-101661104D02*
X156765095Y-101699200D01*
X156765095Y-101699200D02*
X156688904Y-101737295D01*
X156688904Y-101737295D02*
X156612714Y-101737295D01*
X156612714Y-101737295D02*
X156536523Y-101699200D01*
X156536523Y-101699200D02*
X156498428Y-101661104D01*
X156498428Y-101661104D02*
X156460333Y-101584914D01*
X156460333Y-101584914D02*
X156422237Y-101432533D01*
X156422237Y-101432533D02*
X156422237Y-101242057D01*
X156422237Y-101242057D02*
X156460333Y-101089676D01*
X156460333Y-101089676D02*
X156498428Y-101013485D01*
X156498428Y-101013485D02*
X156536523Y-100975390D01*
X156536523Y-100975390D02*
X156612714Y-100937295D01*
X157222238Y-101661104D02*
X157260333Y-101699200D01*
X157260333Y-101699200D02*
X157222238Y-101737295D01*
X157222238Y-101737295D02*
X157184142Y-101699200D01*
X157184142Y-101699200D02*
X157222238Y-101661104D01*
X157222238Y-101661104D02*
X157222238Y-101737295D01*
X158022237Y-101737295D02*
X157565094Y-101737295D01*
X157793666Y-101737295D02*
X157793666Y-100937295D01*
X157793666Y-100937295D02*
X157717475Y-101051580D01*
X157717475Y-101051580D02*
X157641285Y-101127771D01*
X157641285Y-101127771D02*
X157565094Y-101165866D01*
X158707952Y-101203961D02*
X158707952Y-101737295D01*
X158365095Y-101203961D02*
X158365095Y-101623009D01*
X158365095Y-101623009D02*
X158403190Y-101699200D01*
X158403190Y-101699200D02*
X158479380Y-101737295D01*
X158479380Y-101737295D02*
X158593666Y-101737295D01*
X158593666Y-101737295D02*
X158669857Y-101699200D01*
X158669857Y-101699200D02*
X158707952Y-101661104D01*
X159355571Y-101318247D02*
X159088905Y-101318247D01*
X159088905Y-101737295D02*
X159088905Y-100937295D01*
X159088905Y-100937295D02*
X159469857Y-100937295D01*
X146203333Y-98374580D02*
X146155714Y-98422200D01*
X146155714Y-98422200D02*
X146012857Y-98469819D01*
X146012857Y-98469819D02*
X145917619Y-98469819D01*
X145917619Y-98469819D02*
X145774762Y-98422200D01*
X145774762Y-98422200D02*
X145679524Y-98326961D01*
X145679524Y-98326961D02*
X145631905Y-98231723D01*
X145631905Y-98231723D02*
X145584286Y-98041247D01*
X145584286Y-98041247D02*
X145584286Y-97898390D01*
X145584286Y-97898390D02*
X145631905Y-97707914D01*
X145631905Y-97707914D02*
X145679524Y-97612676D01*
X145679524Y-97612676D02*
X145774762Y-97517438D01*
X145774762Y-97517438D02*
X145917619Y-97469819D01*
X145917619Y-97469819D02*
X146012857Y-97469819D01*
X146012857Y-97469819D02*
X146155714Y-97517438D01*
X146155714Y-97517438D02*
X146203333Y-97565057D01*
X147108095Y-97469819D02*
X146631905Y-97469819D01*
X146631905Y-97469819D02*
X146584286Y-97946009D01*
X146584286Y-97946009D02*
X146631905Y-97898390D01*
X146631905Y-97898390D02*
X146727143Y-97850771D01*
X146727143Y-97850771D02*
X146965238Y-97850771D01*
X146965238Y-97850771D02*
X147060476Y-97898390D01*
X147060476Y-97898390D02*
X147108095Y-97946009D01*
X147108095Y-97946009D02*
X147155714Y-98041247D01*
X147155714Y-98041247D02*
X147155714Y-98279342D01*
X147155714Y-98279342D02*
X147108095Y-98374580D01*
X147108095Y-98374580D02*
X147060476Y-98422200D01*
X147060476Y-98422200D02*
X146965238Y-98469819D01*
X146965238Y-98469819D02*
X146727143Y-98469819D01*
X146727143Y-98469819D02*
X146631905Y-98422200D01*
X146631905Y-98422200D02*
X146584286Y-98374580D01*
X145131904Y-101737295D02*
X144674761Y-101737295D01*
X144903333Y-101737295D02*
X144903333Y-100937295D01*
X144903333Y-100937295D02*
X144827142Y-101051580D01*
X144827142Y-101051580D02*
X144750952Y-101127771D01*
X144750952Y-101127771D02*
X144674761Y-101165866D01*
X145627143Y-100937295D02*
X145703333Y-100937295D01*
X145703333Y-100937295D02*
X145779524Y-100975390D01*
X145779524Y-100975390D02*
X145817619Y-101013485D01*
X145817619Y-101013485D02*
X145855714Y-101089676D01*
X145855714Y-101089676D02*
X145893809Y-101242057D01*
X145893809Y-101242057D02*
X145893809Y-101432533D01*
X145893809Y-101432533D02*
X145855714Y-101584914D01*
X145855714Y-101584914D02*
X145817619Y-101661104D01*
X145817619Y-101661104D02*
X145779524Y-101699200D01*
X145779524Y-101699200D02*
X145703333Y-101737295D01*
X145703333Y-101737295D02*
X145627143Y-101737295D01*
X145627143Y-101737295D02*
X145550952Y-101699200D01*
X145550952Y-101699200D02*
X145512857Y-101661104D01*
X145512857Y-101661104D02*
X145474762Y-101584914D01*
X145474762Y-101584914D02*
X145436666Y-101432533D01*
X145436666Y-101432533D02*
X145436666Y-101242057D01*
X145436666Y-101242057D02*
X145474762Y-101089676D01*
X145474762Y-101089676D02*
X145512857Y-101013485D01*
X145512857Y-101013485D02*
X145550952Y-100975390D01*
X145550952Y-100975390D02*
X145627143Y-100937295D01*
X146389048Y-100937295D02*
X146465238Y-100937295D01*
X146465238Y-100937295D02*
X146541429Y-100975390D01*
X146541429Y-100975390D02*
X146579524Y-101013485D01*
X146579524Y-101013485D02*
X146617619Y-101089676D01*
X146617619Y-101089676D02*
X146655714Y-101242057D01*
X146655714Y-101242057D02*
X146655714Y-101432533D01*
X146655714Y-101432533D02*
X146617619Y-101584914D01*
X146617619Y-101584914D02*
X146579524Y-101661104D01*
X146579524Y-101661104D02*
X146541429Y-101699200D01*
X146541429Y-101699200D02*
X146465238Y-101737295D01*
X146465238Y-101737295D02*
X146389048Y-101737295D01*
X146389048Y-101737295D02*
X146312857Y-101699200D01*
X146312857Y-101699200D02*
X146274762Y-101661104D01*
X146274762Y-101661104D02*
X146236667Y-101584914D01*
X146236667Y-101584914D02*
X146198571Y-101432533D01*
X146198571Y-101432533D02*
X146198571Y-101242057D01*
X146198571Y-101242057D02*
X146236667Y-101089676D01*
X146236667Y-101089676D02*
X146274762Y-101013485D01*
X146274762Y-101013485D02*
X146312857Y-100975390D01*
X146312857Y-100975390D02*
X146389048Y-100937295D01*
X146998572Y-101203961D02*
X146998572Y-101737295D01*
X146998572Y-101280152D02*
X147036667Y-101242057D01*
X147036667Y-101242057D02*
X147112857Y-101203961D01*
X147112857Y-101203961D02*
X147227143Y-101203961D01*
X147227143Y-101203961D02*
X147303334Y-101242057D01*
X147303334Y-101242057D02*
X147341429Y-101318247D01*
X147341429Y-101318247D02*
X147341429Y-101737295D01*
X147989048Y-101318247D02*
X147722382Y-101318247D01*
X147722382Y-101737295D02*
X147722382Y-100937295D01*
X147722382Y-100937295D02*
X148103334Y-100937295D01*
X133502476Y-97606295D02*
X133502476Y-98253914D01*
X133502476Y-98253914D02*
X133540571Y-98330104D01*
X133540571Y-98330104D02*
X133578666Y-98368200D01*
X133578666Y-98368200D02*
X133654857Y-98406295D01*
X133654857Y-98406295D02*
X133807238Y-98406295D01*
X133807238Y-98406295D02*
X133883428Y-98368200D01*
X133883428Y-98368200D02*
X133921523Y-98330104D01*
X133921523Y-98330104D02*
X133959619Y-98253914D01*
X133959619Y-98253914D02*
X133959619Y-97606295D01*
X134759618Y-98406295D02*
X134302475Y-98406295D01*
X134531047Y-98406295D02*
X134531047Y-97606295D01*
X134531047Y-97606295D02*
X134454856Y-97720580D01*
X134454856Y-97720580D02*
X134378666Y-97796771D01*
X134378666Y-97796771D02*
X134302475Y-97834866D01*
X136401637Y-97737905D02*
X136434970Y-97704571D01*
X136434970Y-97704571D02*
X136501637Y-97671238D01*
X136501637Y-97671238D02*
X136668304Y-97671238D01*
X136668304Y-97671238D02*
X136734970Y-97704571D01*
X136734970Y-97704571D02*
X136768304Y-97737905D01*
X136768304Y-97737905D02*
X136801637Y-97804571D01*
X136801637Y-97804571D02*
X136801637Y-97871238D01*
X136801637Y-97871238D02*
X136768304Y-97971238D01*
X136768304Y-97971238D02*
X136368304Y-98371238D01*
X136368304Y-98371238D02*
X136801637Y-98371238D01*
X137401637Y-97904571D02*
X137401637Y-98371238D01*
X137234971Y-97637905D02*
X137068304Y-98137905D01*
X137068304Y-98137905D02*
X137501637Y-98137905D01*
X138101638Y-98371238D02*
X137768304Y-98371238D01*
X137768304Y-98371238D02*
X137768304Y-97671238D01*
X138734971Y-98304571D02*
X138701638Y-98337905D01*
X138701638Y-98337905D02*
X138601638Y-98371238D01*
X138601638Y-98371238D02*
X138534971Y-98371238D01*
X138534971Y-98371238D02*
X138434971Y-98337905D01*
X138434971Y-98337905D02*
X138368305Y-98271238D01*
X138368305Y-98271238D02*
X138334971Y-98204571D01*
X138334971Y-98204571D02*
X138301638Y-98071238D01*
X138301638Y-98071238D02*
X138301638Y-97971238D01*
X138301638Y-97971238D02*
X138334971Y-97837905D01*
X138334971Y-97837905D02*
X138368305Y-97771238D01*
X138368305Y-97771238D02*
X138434971Y-97704571D01*
X138434971Y-97704571D02*
X138534971Y-97671238D01*
X138534971Y-97671238D02*
X138601638Y-97671238D01*
X138601638Y-97671238D02*
X138701638Y-97704571D01*
X138701638Y-97704571D02*
X138734971Y-97737905D01*
X139401638Y-98371238D02*
X139001638Y-98371238D01*
X139201638Y-98371238D02*
X139201638Y-97671238D01*
X139201638Y-97671238D02*
X139134971Y-97771238D01*
X139134971Y-97771238D02*
X139068305Y-97837905D01*
X139068305Y-97837905D02*
X139001638Y-97871238D01*
X139834972Y-97671238D02*
X139901638Y-97671238D01*
X139901638Y-97671238D02*
X139968305Y-97704571D01*
X139968305Y-97704571D02*
X140001638Y-97737905D01*
X140001638Y-97737905D02*
X140034972Y-97804571D01*
X140034972Y-97804571D02*
X140068305Y-97937905D01*
X140068305Y-97937905D02*
X140068305Y-98104571D01*
X140068305Y-98104571D02*
X140034972Y-98237905D01*
X140034972Y-98237905D02*
X140001638Y-98304571D01*
X140001638Y-98304571D02*
X139968305Y-98337905D01*
X139968305Y-98337905D02*
X139901638Y-98371238D01*
X139901638Y-98371238D02*
X139834972Y-98371238D01*
X139834972Y-98371238D02*
X139768305Y-98337905D01*
X139768305Y-98337905D02*
X139734972Y-98304571D01*
X139734972Y-98304571D02*
X139701638Y-98237905D01*
X139701638Y-98237905D02*
X139668305Y-98104571D01*
X139668305Y-98104571D02*
X139668305Y-97937905D01*
X139668305Y-97937905D02*
X139701638Y-97804571D01*
X139701638Y-97804571D02*
X139734972Y-97737905D01*
X139734972Y-97737905D02*
X139768305Y-97704571D01*
X139768305Y-97704571D02*
X139834972Y-97671238D01*
X140334972Y-97737905D02*
X140368305Y-97704571D01*
X140368305Y-97704571D02*
X140434972Y-97671238D01*
X140434972Y-97671238D02*
X140601639Y-97671238D01*
X140601639Y-97671238D02*
X140668305Y-97704571D01*
X140668305Y-97704571D02*
X140701639Y-97737905D01*
X140701639Y-97737905D02*
X140734972Y-97804571D01*
X140734972Y-97804571D02*
X140734972Y-97871238D01*
X140734972Y-97871238D02*
X140701639Y-97971238D01*
X140701639Y-97971238D02*
X140301639Y-98371238D01*
X140301639Y-98371238D02*
X140734972Y-98371238D01*
X141368306Y-97671238D02*
X141034972Y-97671238D01*
X141034972Y-97671238D02*
X141001639Y-98004571D01*
X141001639Y-98004571D02*
X141034972Y-97971238D01*
X141034972Y-97971238D02*
X141101639Y-97937905D01*
X141101639Y-97937905D02*
X141268306Y-97937905D01*
X141268306Y-97937905D02*
X141334972Y-97971238D01*
X141334972Y-97971238D02*
X141368306Y-98004571D01*
X141368306Y-98004571D02*
X141401639Y-98071238D01*
X141401639Y-98071238D02*
X141401639Y-98237905D01*
X141401639Y-98237905D02*
X141368306Y-98304571D01*
X141368306Y-98304571D02*
X141334972Y-98337905D01*
X141334972Y-98337905D02*
X141268306Y-98371238D01*
X141268306Y-98371238D02*
X141101639Y-98371238D01*
X141101639Y-98371238D02*
X141034972Y-98337905D01*
X141034972Y-98337905D02*
X141001639Y-98304571D01*
X152233333Y-98499819D02*
X151900000Y-98023628D01*
X151661905Y-98499819D02*
X151661905Y-97499819D01*
X151661905Y-97499819D02*
X152042857Y-97499819D01*
X152042857Y-97499819D02*
X152138095Y-97547438D01*
X152138095Y-97547438D02*
X152185714Y-97595057D01*
X152185714Y-97595057D02*
X152233333Y-97690295D01*
X152233333Y-97690295D02*
X152233333Y-97833152D01*
X152233333Y-97833152D02*
X152185714Y-97928390D01*
X152185714Y-97928390D02*
X152138095Y-97976009D01*
X152138095Y-97976009D02*
X152042857Y-98023628D01*
X152042857Y-98023628D02*
X151661905Y-98023628D01*
X152566667Y-97499819D02*
X153185714Y-97499819D01*
X153185714Y-97499819D02*
X152852381Y-97880771D01*
X152852381Y-97880771D02*
X152995238Y-97880771D01*
X152995238Y-97880771D02*
X153090476Y-97928390D01*
X153090476Y-97928390D02*
X153138095Y-97976009D01*
X153138095Y-97976009D02*
X153185714Y-98071247D01*
X153185714Y-98071247D02*
X153185714Y-98309342D01*
X153185714Y-98309342D02*
X153138095Y-98404580D01*
X153138095Y-98404580D02*
X153090476Y-98452200D01*
X153090476Y-98452200D02*
X152995238Y-98499819D01*
X152995238Y-98499819D02*
X152709524Y-98499819D01*
X152709524Y-98499819D02*
X152614286Y-98452200D01*
X152614286Y-98452200D02*
X152566667Y-98404580D01*
X151847618Y-101707295D02*
X151390475Y-101707295D01*
X151619047Y-101707295D02*
X151619047Y-100907295D01*
X151619047Y-100907295D02*
X151542856Y-101021580D01*
X151542856Y-101021580D02*
X151466666Y-101097771D01*
X151466666Y-101097771D02*
X151390475Y-101135866D01*
X152342857Y-100907295D02*
X152419047Y-100907295D01*
X152419047Y-100907295D02*
X152495238Y-100945390D01*
X152495238Y-100945390D02*
X152533333Y-100983485D01*
X152533333Y-100983485D02*
X152571428Y-101059676D01*
X152571428Y-101059676D02*
X152609523Y-101212057D01*
X152609523Y-101212057D02*
X152609523Y-101402533D01*
X152609523Y-101402533D02*
X152571428Y-101554914D01*
X152571428Y-101554914D02*
X152533333Y-101631104D01*
X152533333Y-101631104D02*
X152495238Y-101669200D01*
X152495238Y-101669200D02*
X152419047Y-101707295D01*
X152419047Y-101707295D02*
X152342857Y-101707295D01*
X152342857Y-101707295D02*
X152266666Y-101669200D01*
X152266666Y-101669200D02*
X152228571Y-101631104D01*
X152228571Y-101631104D02*
X152190476Y-101554914D01*
X152190476Y-101554914D02*
X152152380Y-101402533D01*
X152152380Y-101402533D02*
X152152380Y-101212057D01*
X152152380Y-101212057D02*
X152190476Y-101059676D01*
X152190476Y-101059676D02*
X152228571Y-100983485D01*
X152228571Y-100983485D02*
X152266666Y-100945390D01*
X152266666Y-100945390D02*
X152342857Y-100907295D01*
X152952381Y-101707295D02*
X152952381Y-100907295D01*
X153409524Y-101707295D02*
X153066666Y-101250152D01*
X153409524Y-100907295D02*
X152952381Y-101364438D01*
X148863282Y-104549501D02*
X148863282Y-105068764D01*
X148863282Y-105068764D02*
X148893827Y-105129854D01*
X148893827Y-105129854D02*
X148924372Y-105160399D01*
X148924372Y-105160399D02*
X148985461Y-105190943D01*
X148985461Y-105190943D02*
X149107641Y-105190943D01*
X149107641Y-105190943D02*
X149168730Y-105160399D01*
X149168730Y-105160399D02*
X149199275Y-105129854D01*
X149199275Y-105129854D02*
X149229820Y-105068764D01*
X149229820Y-105068764D02*
X149229820Y-104549501D01*
X149810173Y-104763315D02*
X149810173Y-105190943D01*
X149657448Y-104518957D02*
X149504724Y-104977129D01*
X149504724Y-104977129D02*
X149901807Y-104977129D01*
D11*
X153174287Y-103713952D02*
X153412382Y-103713952D01*
X153126668Y-103856809D02*
X153293334Y-103356809D01*
X153293334Y-103356809D02*
X153460001Y-103856809D01*
X153555239Y-103356809D02*
X153840953Y-103356809D01*
X153698096Y-103856809D02*
X153698096Y-103356809D01*
X154007619Y-103856809D02*
X154007619Y-103356809D01*
X154007619Y-103356809D02*
X154174286Y-103713952D01*
X154174286Y-103713952D02*
X154340952Y-103356809D01*
X154340952Y-103356809D02*
X154340952Y-103856809D01*
X154579048Y-103594904D02*
X154745715Y-103594904D01*
X154817143Y-103856809D02*
X154579048Y-103856809D01*
X154579048Y-103856809D02*
X154579048Y-103356809D01*
X154579048Y-103356809D02*
X154817143Y-103356809D01*
X155293334Y-103380619D02*
X155245715Y-103356809D01*
X155245715Y-103356809D02*
X155174286Y-103356809D01*
X155174286Y-103356809D02*
X155102858Y-103380619D01*
X155102858Y-103380619D02*
X155055239Y-103428238D01*
X155055239Y-103428238D02*
X155031429Y-103475857D01*
X155031429Y-103475857D02*
X155007620Y-103571095D01*
X155007620Y-103571095D02*
X155007620Y-103642523D01*
X155007620Y-103642523D02*
X155031429Y-103737761D01*
X155031429Y-103737761D02*
X155055239Y-103785380D01*
X155055239Y-103785380D02*
X155102858Y-103833000D01*
X155102858Y-103833000D02*
X155174286Y-103856809D01*
X155174286Y-103856809D02*
X155221905Y-103856809D01*
X155221905Y-103856809D02*
X155293334Y-103833000D01*
X155293334Y-103833000D02*
X155317143Y-103809190D01*
X155317143Y-103809190D02*
X155317143Y-103642523D01*
X155317143Y-103642523D02*
X155221905Y-103642523D01*
X155507620Y-103713952D02*
X155745715Y-103713952D01*
X155460001Y-103856809D02*
X155626667Y-103356809D01*
X155626667Y-103356809D02*
X155793334Y-103856809D01*
X155912381Y-103356809D02*
X156221905Y-103356809D01*
X156221905Y-103356809D02*
X156055238Y-103547285D01*
X156055238Y-103547285D02*
X156126667Y-103547285D01*
X156126667Y-103547285D02*
X156174286Y-103571095D01*
X156174286Y-103571095D02*
X156198095Y-103594904D01*
X156198095Y-103594904D02*
X156221905Y-103642523D01*
X156221905Y-103642523D02*
X156221905Y-103761571D01*
X156221905Y-103761571D02*
X156198095Y-103809190D01*
X156198095Y-103809190D02*
X156174286Y-103833000D01*
X156174286Y-103833000D02*
X156126667Y-103856809D01*
X156126667Y-103856809D02*
X155983810Y-103856809D01*
X155983810Y-103856809D02*
X155936191Y-103833000D01*
X155936191Y-103833000D02*
X155912381Y-103809190D01*
X156412381Y-103404428D02*
X156436190Y-103380619D01*
X156436190Y-103380619D02*
X156483809Y-103356809D01*
X156483809Y-103356809D02*
X156602857Y-103356809D01*
X156602857Y-103356809D02*
X156650476Y-103380619D01*
X156650476Y-103380619D02*
X156674285Y-103404428D01*
X156674285Y-103404428D02*
X156698095Y-103452047D01*
X156698095Y-103452047D02*
X156698095Y-103499666D01*
X156698095Y-103499666D02*
X156674285Y-103571095D01*
X156674285Y-103571095D02*
X156388571Y-103856809D01*
X156388571Y-103856809D02*
X156698095Y-103856809D01*
X156983809Y-103571095D02*
X156936190Y-103547285D01*
X156936190Y-103547285D02*
X156912380Y-103523476D01*
X156912380Y-103523476D02*
X156888571Y-103475857D01*
X156888571Y-103475857D02*
X156888571Y-103452047D01*
X156888571Y-103452047D02*
X156912380Y-103404428D01*
X156912380Y-103404428D02*
X156936190Y-103380619D01*
X156936190Y-103380619D02*
X156983809Y-103356809D01*
X156983809Y-103356809D02*
X157079047Y-103356809D01*
X157079047Y-103356809D02*
X157126666Y-103380619D01*
X157126666Y-103380619D02*
X157150475Y-103404428D01*
X157150475Y-103404428D02*
X157174285Y-103452047D01*
X157174285Y-103452047D02*
X157174285Y-103475857D01*
X157174285Y-103475857D02*
X157150475Y-103523476D01*
X157150475Y-103523476D02*
X157126666Y-103547285D01*
X157126666Y-103547285D02*
X157079047Y-103571095D01*
X157079047Y-103571095D02*
X156983809Y-103571095D01*
X156983809Y-103571095D02*
X156936190Y-103594904D01*
X156936190Y-103594904D02*
X156912380Y-103618714D01*
X156912380Y-103618714D02*
X156888571Y-103666333D01*
X156888571Y-103666333D02*
X156888571Y-103761571D01*
X156888571Y-103761571D02*
X156912380Y-103809190D01*
X156912380Y-103809190D02*
X156936190Y-103833000D01*
X156936190Y-103833000D02*
X156983809Y-103856809D01*
X156983809Y-103856809D02*
X157079047Y-103856809D01*
X157079047Y-103856809D02*
X157126666Y-103833000D01*
X157126666Y-103833000D02*
X157150475Y-103809190D01*
X157150475Y-103809190D02*
X157174285Y-103761571D01*
X157174285Y-103761571D02*
X157174285Y-103666333D01*
X157174285Y-103666333D02*
X157150475Y-103618714D01*
X157150475Y-103618714D02*
X157126666Y-103594904D01*
X157126666Y-103594904D02*
X157079047Y-103571095D01*
X157388570Y-103856809D02*
X157388570Y-103356809D01*
X157388570Y-103356809D02*
X157579046Y-103356809D01*
X157579046Y-103356809D02*
X157626665Y-103380619D01*
X157626665Y-103380619D02*
X157650475Y-103404428D01*
X157650475Y-103404428D02*
X157674284Y-103452047D01*
X157674284Y-103452047D02*
X157674284Y-103523476D01*
X157674284Y-103523476D02*
X157650475Y-103571095D01*
X157650475Y-103571095D02*
X157626665Y-103594904D01*
X157626665Y-103594904D02*
X157579046Y-103618714D01*
X157579046Y-103618714D02*
X157388570Y-103618714D01*
X157888570Y-103666333D02*
X158269523Y-103666333D01*
X158483809Y-103713952D02*
X158721904Y-103713952D01*
X158436190Y-103856809D02*
X158602856Y-103356809D01*
X158602856Y-103356809D02*
X158769523Y-103856809D01*
X158936189Y-103856809D02*
X158936189Y-103356809D01*
X158936189Y-103356809D02*
X159221903Y-103856809D01*
X159221903Y-103856809D02*
X159221903Y-103356809D01*
D10*
X137755333Y-120755580D02*
X137707714Y-120803200D01*
X137707714Y-120803200D02*
X137564857Y-120850819D01*
X137564857Y-120850819D02*
X137469619Y-120850819D01*
X137469619Y-120850819D02*
X137326762Y-120803200D01*
X137326762Y-120803200D02*
X137231524Y-120707961D01*
X137231524Y-120707961D02*
X137183905Y-120612723D01*
X137183905Y-120612723D02*
X137136286Y-120422247D01*
X137136286Y-120422247D02*
X137136286Y-120279390D01*
X137136286Y-120279390D02*
X137183905Y-120088914D01*
X137183905Y-120088914D02*
X137231524Y-119993676D01*
X137231524Y-119993676D02*
X137326762Y-119898438D01*
X137326762Y-119898438D02*
X137469619Y-119850819D01*
X137469619Y-119850819D02*
X137564857Y-119850819D01*
X137564857Y-119850819D02*
X137707714Y-119898438D01*
X137707714Y-119898438D02*
X137755333Y-119946057D01*
X138136286Y-119946057D02*
X138183905Y-119898438D01*
X138183905Y-119898438D02*
X138279143Y-119850819D01*
X138279143Y-119850819D02*
X138517238Y-119850819D01*
X138517238Y-119850819D02*
X138612476Y-119898438D01*
X138612476Y-119898438D02*
X138660095Y-119946057D01*
X138660095Y-119946057D02*
X138707714Y-120041295D01*
X138707714Y-120041295D02*
X138707714Y-120136533D01*
X138707714Y-120136533D02*
X138660095Y-120279390D01*
X138660095Y-120279390D02*
X138088667Y-120850819D01*
X138088667Y-120850819D02*
X138707714Y-120850819D01*
X133879714Y-119294295D02*
X133955904Y-119294295D01*
X133955904Y-119294295D02*
X134032095Y-119332390D01*
X134032095Y-119332390D02*
X134070190Y-119370485D01*
X134070190Y-119370485D02*
X134108285Y-119446676D01*
X134108285Y-119446676D02*
X134146380Y-119599057D01*
X134146380Y-119599057D02*
X134146380Y-119789533D01*
X134146380Y-119789533D02*
X134108285Y-119941914D01*
X134108285Y-119941914D02*
X134070190Y-120018104D01*
X134070190Y-120018104D02*
X134032095Y-120056200D01*
X134032095Y-120056200D02*
X133955904Y-120094295D01*
X133955904Y-120094295D02*
X133879714Y-120094295D01*
X133879714Y-120094295D02*
X133803523Y-120056200D01*
X133803523Y-120056200D02*
X133765428Y-120018104D01*
X133765428Y-120018104D02*
X133727333Y-119941914D01*
X133727333Y-119941914D02*
X133689237Y-119789533D01*
X133689237Y-119789533D02*
X133689237Y-119599057D01*
X133689237Y-119599057D02*
X133727333Y-119446676D01*
X133727333Y-119446676D02*
X133765428Y-119370485D01*
X133765428Y-119370485D02*
X133803523Y-119332390D01*
X133803523Y-119332390D02*
X133879714Y-119294295D01*
X134489238Y-120018104D02*
X134527333Y-120056200D01*
X134527333Y-120056200D02*
X134489238Y-120094295D01*
X134489238Y-120094295D02*
X134451142Y-120056200D01*
X134451142Y-120056200D02*
X134489238Y-120018104D01*
X134489238Y-120018104D02*
X134489238Y-120094295D01*
X135289237Y-120094295D02*
X134832094Y-120094295D01*
X135060666Y-120094295D02*
X135060666Y-119294295D01*
X135060666Y-119294295D02*
X134984475Y-119408580D01*
X134984475Y-119408580D02*
X134908285Y-119484771D01*
X134908285Y-119484771D02*
X134832094Y-119522866D01*
X135974952Y-119560961D02*
X135974952Y-120094295D01*
X135632095Y-119560961D02*
X135632095Y-119980009D01*
X135632095Y-119980009D02*
X135670190Y-120056200D01*
X135670190Y-120056200D02*
X135746380Y-120094295D01*
X135746380Y-120094295D02*
X135860666Y-120094295D01*
X135860666Y-120094295D02*
X135936857Y-120056200D01*
X135936857Y-120056200D02*
X135974952Y-120018104D01*
X136622571Y-119675247D02*
X136355905Y-119675247D01*
X136355905Y-120094295D02*
X136355905Y-119294295D01*
X136355905Y-119294295D02*
X136736857Y-119294295D01*
X169846666Y-101054819D02*
X169846666Y-101769104D01*
X169846666Y-101769104D02*
X169799047Y-101911961D01*
X169799047Y-101911961D02*
X169703809Y-102007200D01*
X169703809Y-102007200D02*
X169560952Y-102054819D01*
X169560952Y-102054819D02*
X169465714Y-102054819D01*
X170751428Y-101388152D02*
X170751428Y-102054819D01*
X170513333Y-101007200D02*
X170275238Y-101721485D01*
X170275238Y-101721485D02*
X170894285Y-101721485D01*
X166711333Y-102817819D02*
X166378000Y-102341628D01*
X166139905Y-102817819D02*
X166139905Y-101817819D01*
X166139905Y-101817819D02*
X166520857Y-101817819D01*
X166520857Y-101817819D02*
X166616095Y-101865438D01*
X166616095Y-101865438D02*
X166663714Y-101913057D01*
X166663714Y-101913057D02*
X166711333Y-102008295D01*
X166711333Y-102008295D02*
X166711333Y-102151152D01*
X166711333Y-102151152D02*
X166663714Y-102246390D01*
X166663714Y-102246390D02*
X166616095Y-102294009D01*
X166616095Y-102294009D02*
X166520857Y-102341628D01*
X166520857Y-102341628D02*
X166139905Y-102341628D01*
X167663714Y-102817819D02*
X167092286Y-102817819D01*
X167378000Y-102817819D02*
X167378000Y-101817819D01*
X167378000Y-101817819D02*
X167282762Y-101960676D01*
X167282762Y-101960676D02*
X167187524Y-102055914D01*
X167187524Y-102055914D02*
X167092286Y-102103533D01*
X167881428Y-105480295D02*
X168376666Y-105480295D01*
X168376666Y-105480295D02*
X168110000Y-105785057D01*
X168110000Y-105785057D02*
X168224285Y-105785057D01*
X168224285Y-105785057D02*
X168300476Y-105823152D01*
X168300476Y-105823152D02*
X168338571Y-105861247D01*
X168338571Y-105861247D02*
X168376666Y-105937438D01*
X168376666Y-105937438D02*
X168376666Y-106127914D01*
X168376666Y-106127914D02*
X168338571Y-106204104D01*
X168338571Y-106204104D02*
X168300476Y-106242200D01*
X168300476Y-106242200D02*
X168224285Y-106280295D01*
X168224285Y-106280295D02*
X167995714Y-106280295D01*
X167995714Y-106280295D02*
X167919523Y-106242200D01*
X167919523Y-106242200D02*
X167881428Y-106204104D01*
X168643333Y-105480295D02*
X169138571Y-105480295D01*
X169138571Y-105480295D02*
X168871905Y-105785057D01*
X168871905Y-105785057D02*
X168986190Y-105785057D01*
X168986190Y-105785057D02*
X169062381Y-105823152D01*
X169062381Y-105823152D02*
X169100476Y-105861247D01*
X169100476Y-105861247D02*
X169138571Y-105937438D01*
X169138571Y-105937438D02*
X169138571Y-106127914D01*
X169138571Y-106127914D02*
X169100476Y-106204104D01*
X169100476Y-106204104D02*
X169062381Y-106242200D01*
X169062381Y-106242200D02*
X168986190Y-106280295D01*
X168986190Y-106280295D02*
X168757619Y-106280295D01*
X168757619Y-106280295D02*
X168681428Y-106242200D01*
X168681428Y-106242200D02*
X168643333Y-106204104D01*
X169633810Y-105480295D02*
X169710000Y-105480295D01*
X169710000Y-105480295D02*
X169786191Y-105518390D01*
X169786191Y-105518390D02*
X169824286Y-105556485D01*
X169824286Y-105556485D02*
X169862381Y-105632676D01*
X169862381Y-105632676D02*
X169900476Y-105785057D01*
X169900476Y-105785057D02*
X169900476Y-105975533D01*
X169900476Y-105975533D02*
X169862381Y-106127914D01*
X169862381Y-106127914D02*
X169824286Y-106204104D01*
X169824286Y-106204104D02*
X169786191Y-106242200D01*
X169786191Y-106242200D02*
X169710000Y-106280295D01*
X169710000Y-106280295D02*
X169633810Y-106280295D01*
X169633810Y-106280295D02*
X169557619Y-106242200D01*
X169557619Y-106242200D02*
X169519524Y-106204104D01*
X169519524Y-106204104D02*
X169481429Y-106127914D01*
X169481429Y-106127914D02*
X169443333Y-105975533D01*
X169443333Y-105975533D02*
X169443333Y-105785057D01*
X169443333Y-105785057D02*
X169481429Y-105632676D01*
X169481429Y-105632676D02*
X169519524Y-105556485D01*
X169519524Y-105556485D02*
X169557619Y-105518390D01*
X169557619Y-105518390D02*
X169633810Y-105480295D01*
X150709333Y-117551580D02*
X150661714Y-117599200D01*
X150661714Y-117599200D02*
X150518857Y-117646819D01*
X150518857Y-117646819D02*
X150423619Y-117646819D01*
X150423619Y-117646819D02*
X150280762Y-117599200D01*
X150280762Y-117599200D02*
X150185524Y-117503961D01*
X150185524Y-117503961D02*
X150137905Y-117408723D01*
X150137905Y-117408723D02*
X150090286Y-117218247D01*
X150090286Y-117218247D02*
X150090286Y-117075390D01*
X150090286Y-117075390D02*
X150137905Y-116884914D01*
X150137905Y-116884914D02*
X150185524Y-116789676D01*
X150185524Y-116789676D02*
X150280762Y-116694438D01*
X150280762Y-116694438D02*
X150423619Y-116646819D01*
X150423619Y-116646819D02*
X150518857Y-116646819D01*
X150518857Y-116646819D02*
X150661714Y-116694438D01*
X150661714Y-116694438D02*
X150709333Y-116742057D01*
X151566476Y-116980152D02*
X151566476Y-117646819D01*
X151328381Y-116599200D02*
X151090286Y-117313485D01*
X151090286Y-117313485D02*
X151709333Y-117313485D01*
X149726000Y-120078700D02*
X149759333Y-120045366D01*
X149759333Y-120045366D02*
X149826000Y-120012033D01*
X149826000Y-120012033D02*
X149992667Y-120012033D01*
X149992667Y-120012033D02*
X150059333Y-120045366D01*
X150059333Y-120045366D02*
X150092667Y-120078700D01*
X150092667Y-120078700D02*
X150126000Y-120145366D01*
X150126000Y-120145366D02*
X150126000Y-120212033D01*
X150126000Y-120212033D02*
X150092667Y-120312033D01*
X150092667Y-120312033D02*
X149692667Y-120712033D01*
X149692667Y-120712033D02*
X150126000Y-120712033D01*
X150392667Y-120078700D02*
X150426000Y-120045366D01*
X150426000Y-120045366D02*
X150492667Y-120012033D01*
X150492667Y-120012033D02*
X150659334Y-120012033D01*
X150659334Y-120012033D02*
X150726000Y-120045366D01*
X150726000Y-120045366D02*
X150759334Y-120078700D01*
X150759334Y-120078700D02*
X150792667Y-120145366D01*
X150792667Y-120145366D02*
X150792667Y-120212033D01*
X150792667Y-120212033D02*
X150759334Y-120312033D01*
X150759334Y-120312033D02*
X150359334Y-120712033D01*
X150359334Y-120712033D02*
X150792667Y-120712033D01*
X151092667Y-120245366D02*
X151092667Y-120945366D01*
X151092667Y-120278700D02*
X151159334Y-120245366D01*
X151159334Y-120245366D02*
X151292667Y-120245366D01*
X151292667Y-120245366D02*
X151359334Y-120278700D01*
X151359334Y-120278700D02*
X151392667Y-120312033D01*
X151392667Y-120312033D02*
X151426001Y-120378700D01*
X151426001Y-120378700D02*
X151426001Y-120578700D01*
X151426001Y-120578700D02*
X151392667Y-120645366D01*
X151392667Y-120645366D02*
X151359334Y-120678700D01*
X151359334Y-120678700D02*
X151292667Y-120712033D01*
X151292667Y-120712033D02*
X151159334Y-120712033D01*
X151159334Y-120712033D02*
X151092667Y-120678700D01*
X151959334Y-120345366D02*
X151726000Y-120345366D01*
X151726000Y-120712033D02*
X151726000Y-120012033D01*
X151726000Y-120012033D02*
X152059334Y-120012033D01*
X164618333Y-118059580D02*
X164570714Y-118107200D01*
X164570714Y-118107200D02*
X164427857Y-118154819D01*
X164427857Y-118154819D02*
X164332619Y-118154819D01*
X164332619Y-118154819D02*
X164189762Y-118107200D01*
X164189762Y-118107200D02*
X164094524Y-118011961D01*
X164094524Y-118011961D02*
X164046905Y-117916723D01*
X164046905Y-117916723D02*
X163999286Y-117726247D01*
X163999286Y-117726247D02*
X163999286Y-117583390D01*
X163999286Y-117583390D02*
X164046905Y-117392914D01*
X164046905Y-117392914D02*
X164094524Y-117297676D01*
X164094524Y-117297676D02*
X164189762Y-117202438D01*
X164189762Y-117202438D02*
X164332619Y-117154819D01*
X164332619Y-117154819D02*
X164427857Y-117154819D01*
X164427857Y-117154819D02*
X164570714Y-117202438D01*
X164570714Y-117202438D02*
X164618333Y-117250057D01*
X164951667Y-117154819D02*
X165570714Y-117154819D01*
X165570714Y-117154819D02*
X165237381Y-117535771D01*
X165237381Y-117535771D02*
X165380238Y-117535771D01*
X165380238Y-117535771D02*
X165475476Y-117583390D01*
X165475476Y-117583390D02*
X165523095Y-117631009D01*
X165523095Y-117631009D02*
X165570714Y-117726247D01*
X165570714Y-117726247D02*
X165570714Y-117964342D01*
X165570714Y-117964342D02*
X165523095Y-118059580D01*
X165523095Y-118059580D02*
X165475476Y-118107200D01*
X165475476Y-118107200D02*
X165380238Y-118154819D01*
X165380238Y-118154819D02*
X165094524Y-118154819D01*
X165094524Y-118154819D02*
X164999286Y-118107200D01*
X164999286Y-118107200D02*
X164951667Y-118059580D01*
X163635000Y-120742700D02*
X163668333Y-120709366D01*
X163668333Y-120709366D02*
X163735000Y-120676033D01*
X163735000Y-120676033D02*
X163901667Y-120676033D01*
X163901667Y-120676033D02*
X163968333Y-120709366D01*
X163968333Y-120709366D02*
X164001667Y-120742700D01*
X164001667Y-120742700D02*
X164035000Y-120809366D01*
X164035000Y-120809366D02*
X164035000Y-120876033D01*
X164035000Y-120876033D02*
X164001667Y-120976033D01*
X164001667Y-120976033D02*
X163601667Y-121376033D01*
X163601667Y-121376033D02*
X164035000Y-121376033D01*
X164301667Y-120742700D02*
X164335000Y-120709366D01*
X164335000Y-120709366D02*
X164401667Y-120676033D01*
X164401667Y-120676033D02*
X164568334Y-120676033D01*
X164568334Y-120676033D02*
X164635000Y-120709366D01*
X164635000Y-120709366D02*
X164668334Y-120742700D01*
X164668334Y-120742700D02*
X164701667Y-120809366D01*
X164701667Y-120809366D02*
X164701667Y-120876033D01*
X164701667Y-120876033D02*
X164668334Y-120976033D01*
X164668334Y-120976033D02*
X164268334Y-121376033D01*
X164268334Y-121376033D02*
X164701667Y-121376033D01*
X165001667Y-120909366D02*
X165001667Y-121609366D01*
X165001667Y-120942700D02*
X165068334Y-120909366D01*
X165068334Y-120909366D02*
X165201667Y-120909366D01*
X165201667Y-120909366D02*
X165268334Y-120942700D01*
X165268334Y-120942700D02*
X165301667Y-120976033D01*
X165301667Y-120976033D02*
X165335001Y-121042700D01*
X165335001Y-121042700D02*
X165335001Y-121242700D01*
X165335001Y-121242700D02*
X165301667Y-121309366D01*
X165301667Y-121309366D02*
X165268334Y-121342700D01*
X165268334Y-121342700D02*
X165201667Y-121376033D01*
X165201667Y-121376033D02*
X165068334Y-121376033D01*
X165068334Y-121376033D02*
X165001667Y-121342700D01*
X165868334Y-121009366D02*
X165635000Y-121009366D01*
X165635000Y-121376033D02*
X165635000Y-120676033D01*
X165635000Y-120676033D02*
X165968334Y-120676033D01*
X132000666Y-122340019D02*
X132000666Y-123054304D01*
X132000666Y-123054304D02*
X131953047Y-123197161D01*
X131953047Y-123197161D02*
X131857809Y-123292400D01*
X131857809Y-123292400D02*
X131714952Y-123340019D01*
X131714952Y-123340019D02*
X131619714Y-123340019D01*
X132381619Y-122340019D02*
X133000666Y-122340019D01*
X133000666Y-122340019D02*
X132667333Y-122720971D01*
X132667333Y-122720971D02*
X132810190Y-122720971D01*
X132810190Y-122720971D02*
X132905428Y-122768590D01*
X132905428Y-122768590D02*
X132953047Y-122816209D01*
X132953047Y-122816209D02*
X133000666Y-122911447D01*
X133000666Y-122911447D02*
X133000666Y-123149542D01*
X133000666Y-123149542D02*
X132953047Y-123244780D01*
X132953047Y-123244780D02*
X132905428Y-123292400D01*
X132905428Y-123292400D02*
X132810190Y-123340019D01*
X132810190Y-123340019D02*
X132524476Y-123340019D01*
X132524476Y-123340019D02*
X132429238Y-123292400D01*
X132429238Y-123292400D02*
X132381619Y-123244780D01*
X126470628Y-116300190D02*
X126946819Y-116300190D01*
X125946819Y-116633523D02*
X126470628Y-116300190D01*
X126470628Y-116300190D02*
X125946819Y-115966857D01*
X126042057Y-115681142D02*
X125994438Y-115633523D01*
X125994438Y-115633523D02*
X125946819Y-115538285D01*
X125946819Y-115538285D02*
X125946819Y-115300190D01*
X125946819Y-115300190D02*
X125994438Y-115204952D01*
X125994438Y-115204952D02*
X126042057Y-115157333D01*
X126042057Y-115157333D02*
X126137295Y-115109714D01*
X126137295Y-115109714D02*
X126232533Y-115109714D01*
X126232533Y-115109714D02*
X126375390Y-115157333D01*
X126375390Y-115157333D02*
X126946819Y-115728761D01*
X126946819Y-115728761D02*
X126946819Y-115109714D01*
X131343495Y-119252571D02*
X131343495Y-118757333D01*
X131343495Y-118757333D02*
X131648257Y-119023999D01*
X131648257Y-119023999D02*
X131648257Y-118909714D01*
X131648257Y-118909714D02*
X131686352Y-118833523D01*
X131686352Y-118833523D02*
X131724447Y-118795428D01*
X131724447Y-118795428D02*
X131800638Y-118757333D01*
X131800638Y-118757333D02*
X131991114Y-118757333D01*
X131991114Y-118757333D02*
X132067304Y-118795428D01*
X132067304Y-118795428D02*
X132105400Y-118833523D01*
X132105400Y-118833523D02*
X132143495Y-118909714D01*
X132143495Y-118909714D02*
X132143495Y-119138285D01*
X132143495Y-119138285D02*
X132105400Y-119214476D01*
X132105400Y-119214476D02*
X132067304Y-119252571D01*
X131419685Y-118452571D02*
X131381590Y-118414475D01*
X131381590Y-118414475D02*
X131343495Y-118338285D01*
X131343495Y-118338285D02*
X131343495Y-118147809D01*
X131343495Y-118147809D02*
X131381590Y-118071618D01*
X131381590Y-118071618D02*
X131419685Y-118033523D01*
X131419685Y-118033523D02*
X131495876Y-117995428D01*
X131495876Y-117995428D02*
X131572066Y-117995428D01*
X131572066Y-117995428D02*
X131686352Y-118033523D01*
X131686352Y-118033523D02*
X132143495Y-118490666D01*
X132143495Y-118490666D02*
X132143495Y-117995428D01*
X132067304Y-117652570D02*
X132105400Y-117614475D01*
X132105400Y-117614475D02*
X132143495Y-117652570D01*
X132143495Y-117652570D02*
X132105400Y-117690666D01*
X132105400Y-117690666D02*
X132067304Y-117652570D01*
X132067304Y-117652570D02*
X132143495Y-117652570D01*
X131343495Y-117347809D02*
X131343495Y-116814475D01*
X131343495Y-116814475D02*
X132143495Y-117157333D01*
X131343495Y-116166856D02*
X131343495Y-116319237D01*
X131343495Y-116319237D02*
X131381590Y-116395428D01*
X131381590Y-116395428D02*
X131419685Y-116433523D01*
X131419685Y-116433523D02*
X131533971Y-116509713D01*
X131533971Y-116509713D02*
X131686352Y-116547809D01*
X131686352Y-116547809D02*
X131991114Y-116547809D01*
X131991114Y-116547809D02*
X132067304Y-116509713D01*
X132067304Y-116509713D02*
X132105400Y-116471618D01*
X132105400Y-116471618D02*
X132143495Y-116395428D01*
X132143495Y-116395428D02*
X132143495Y-116243047D01*
X132143495Y-116243047D02*
X132105400Y-116166856D01*
X132105400Y-116166856D02*
X132067304Y-116128761D01*
X132067304Y-116128761D02*
X131991114Y-116090666D01*
X131991114Y-116090666D02*
X131800638Y-116090666D01*
X131800638Y-116090666D02*
X131724447Y-116128761D01*
X131724447Y-116128761D02*
X131686352Y-116166856D01*
X131686352Y-116166856D02*
X131648257Y-116243047D01*
X131648257Y-116243047D02*
X131648257Y-116395428D01*
X131648257Y-116395428D02*
X131686352Y-116471618D01*
X131686352Y-116471618D02*
X131724447Y-116509713D01*
X131724447Y-116509713D02*
X131800638Y-116547809D01*
X131686352Y-115633523D02*
X131648257Y-115709713D01*
X131648257Y-115709713D02*
X131610161Y-115747808D01*
X131610161Y-115747808D02*
X131533971Y-115785904D01*
X131533971Y-115785904D02*
X131495876Y-115785904D01*
X131495876Y-115785904D02*
X131419685Y-115747808D01*
X131419685Y-115747808D02*
X131381590Y-115709713D01*
X131381590Y-115709713D02*
X131343495Y-115633523D01*
X131343495Y-115633523D02*
X131343495Y-115481142D01*
X131343495Y-115481142D02*
X131381590Y-115404951D01*
X131381590Y-115404951D02*
X131419685Y-115366856D01*
X131419685Y-115366856D02*
X131495876Y-115328761D01*
X131495876Y-115328761D02*
X131533971Y-115328761D01*
X131533971Y-115328761D02*
X131610161Y-115366856D01*
X131610161Y-115366856D02*
X131648257Y-115404951D01*
X131648257Y-115404951D02*
X131686352Y-115481142D01*
X131686352Y-115481142D02*
X131686352Y-115633523D01*
X131686352Y-115633523D02*
X131724447Y-115709713D01*
X131724447Y-115709713D02*
X131762542Y-115747808D01*
X131762542Y-115747808D02*
X131838733Y-115785904D01*
X131838733Y-115785904D02*
X131991114Y-115785904D01*
X131991114Y-115785904D02*
X132067304Y-115747808D01*
X132067304Y-115747808D02*
X132105400Y-115709713D01*
X132105400Y-115709713D02*
X132143495Y-115633523D01*
X132143495Y-115633523D02*
X132143495Y-115481142D01*
X132143495Y-115481142D02*
X132105400Y-115404951D01*
X132105400Y-115404951D02*
X132067304Y-115366856D01*
X132067304Y-115366856D02*
X131991114Y-115328761D01*
X131991114Y-115328761D02*
X131838733Y-115328761D01*
X131838733Y-115328761D02*
X131762542Y-115366856D01*
X131762542Y-115366856D02*
X131724447Y-115404951D01*
X131724447Y-115404951D02*
X131686352Y-115481142D01*
X132143495Y-114376379D02*
X131343495Y-114376379D01*
X132143495Y-113919236D02*
X131686352Y-114262094D01*
X131343495Y-113919236D02*
X131800638Y-114376379D01*
X132143495Y-113576379D02*
X131343495Y-113576379D01*
X131724447Y-113576379D02*
X131724447Y-113119236D01*
X132143495Y-113119236D02*
X131343495Y-113119236D01*
X131610161Y-112814475D02*
X131610161Y-112395427D01*
X131610161Y-112395427D02*
X132143495Y-112814475D01*
X132143495Y-112814475D02*
X132143495Y-112395427D01*
X161885333Y-102817819D02*
X161552000Y-102341628D01*
X161313905Y-102817819D02*
X161313905Y-101817819D01*
X161313905Y-101817819D02*
X161694857Y-101817819D01*
X161694857Y-101817819D02*
X161790095Y-101865438D01*
X161790095Y-101865438D02*
X161837714Y-101913057D01*
X161837714Y-101913057D02*
X161885333Y-102008295D01*
X161885333Y-102008295D02*
X161885333Y-102151152D01*
X161885333Y-102151152D02*
X161837714Y-102246390D01*
X161837714Y-102246390D02*
X161790095Y-102294009D01*
X161790095Y-102294009D02*
X161694857Y-102341628D01*
X161694857Y-102341628D02*
X161313905Y-102341628D01*
X162742476Y-102151152D02*
X162742476Y-102817819D01*
X162504381Y-101770200D02*
X162266286Y-102484485D01*
X162266286Y-102484485D02*
X162885333Y-102484485D01*
X161912428Y-105225295D02*
X162407666Y-105225295D01*
X162407666Y-105225295D02*
X162141000Y-105530057D01*
X162141000Y-105530057D02*
X162255285Y-105530057D01*
X162255285Y-105530057D02*
X162331476Y-105568152D01*
X162331476Y-105568152D02*
X162369571Y-105606247D01*
X162369571Y-105606247D02*
X162407666Y-105682438D01*
X162407666Y-105682438D02*
X162407666Y-105872914D01*
X162407666Y-105872914D02*
X162369571Y-105949104D01*
X162369571Y-105949104D02*
X162331476Y-105987200D01*
X162331476Y-105987200D02*
X162255285Y-106025295D01*
X162255285Y-106025295D02*
X162026714Y-106025295D01*
X162026714Y-106025295D02*
X161950523Y-105987200D01*
X161950523Y-105987200D02*
X161912428Y-105949104D01*
X162674333Y-105225295D02*
X163169571Y-105225295D01*
X163169571Y-105225295D02*
X162902905Y-105530057D01*
X162902905Y-105530057D02*
X163017190Y-105530057D01*
X163017190Y-105530057D02*
X163093381Y-105568152D01*
X163093381Y-105568152D02*
X163131476Y-105606247D01*
X163131476Y-105606247D02*
X163169571Y-105682438D01*
X163169571Y-105682438D02*
X163169571Y-105872914D01*
X163169571Y-105872914D02*
X163131476Y-105949104D01*
X163131476Y-105949104D02*
X163093381Y-105987200D01*
X163093381Y-105987200D02*
X163017190Y-106025295D01*
X163017190Y-106025295D02*
X162788619Y-106025295D01*
X162788619Y-106025295D02*
X162712428Y-105987200D01*
X162712428Y-105987200D02*
X162674333Y-105949104D01*
X163664810Y-105225295D02*
X163741000Y-105225295D01*
X163741000Y-105225295D02*
X163817191Y-105263390D01*
X163817191Y-105263390D02*
X163855286Y-105301485D01*
X163855286Y-105301485D02*
X163893381Y-105377676D01*
X163893381Y-105377676D02*
X163931476Y-105530057D01*
X163931476Y-105530057D02*
X163931476Y-105720533D01*
X163931476Y-105720533D02*
X163893381Y-105872914D01*
X163893381Y-105872914D02*
X163855286Y-105949104D01*
X163855286Y-105949104D02*
X163817191Y-105987200D01*
X163817191Y-105987200D02*
X163741000Y-106025295D01*
X163741000Y-106025295D02*
X163664810Y-106025295D01*
X163664810Y-106025295D02*
X163588619Y-105987200D01*
X163588619Y-105987200D02*
X163550524Y-105949104D01*
X163550524Y-105949104D02*
X163512429Y-105872914D01*
X163512429Y-105872914D02*
X163474333Y-105720533D01*
X163474333Y-105720533D02*
X163474333Y-105530057D01*
X163474333Y-105530057D02*
X163512429Y-105377676D01*
X163512429Y-105377676D02*
X163550524Y-105301485D01*
X163550524Y-105301485D02*
X163588619Y-105263390D01*
X163588619Y-105263390D02*
X163664810Y-105225295D01*
X143597333Y-113612819D02*
X143264000Y-113136628D01*
X143025905Y-113612819D02*
X143025905Y-112612819D01*
X143025905Y-112612819D02*
X143406857Y-112612819D01*
X143406857Y-112612819D02*
X143502095Y-112660438D01*
X143502095Y-112660438D02*
X143549714Y-112708057D01*
X143549714Y-112708057D02*
X143597333Y-112803295D01*
X143597333Y-112803295D02*
X143597333Y-112946152D01*
X143597333Y-112946152D02*
X143549714Y-113041390D01*
X143549714Y-113041390D02*
X143502095Y-113089009D01*
X143502095Y-113089009D02*
X143406857Y-113136628D01*
X143406857Y-113136628D02*
X143025905Y-113136628D01*
X144454476Y-112612819D02*
X144264000Y-112612819D01*
X144264000Y-112612819D02*
X144168762Y-112660438D01*
X144168762Y-112660438D02*
X144121143Y-112708057D01*
X144121143Y-112708057D02*
X144025905Y-112850914D01*
X144025905Y-112850914D02*
X143978286Y-113041390D01*
X143978286Y-113041390D02*
X143978286Y-113422342D01*
X143978286Y-113422342D02*
X144025905Y-113517580D01*
X144025905Y-113517580D02*
X144073524Y-113565200D01*
X144073524Y-113565200D02*
X144168762Y-113612819D01*
X144168762Y-113612819D02*
X144359238Y-113612819D01*
X144359238Y-113612819D02*
X144454476Y-113565200D01*
X144454476Y-113565200D02*
X144502095Y-113517580D01*
X144502095Y-113517580D02*
X144549714Y-113422342D01*
X144549714Y-113422342D02*
X144549714Y-113184247D01*
X144549714Y-113184247D02*
X144502095Y-113089009D01*
X144502095Y-113089009D02*
X144454476Y-113041390D01*
X144454476Y-113041390D02*
X144359238Y-112993771D01*
X144359238Y-112993771D02*
X144168762Y-112993771D01*
X144168762Y-112993771D02*
X144073524Y-113041390D01*
X144073524Y-113041390D02*
X144025905Y-113089009D01*
X144025905Y-113089009D02*
X143978286Y-113184247D01*
X143973618Y-116820295D02*
X143516475Y-116820295D01*
X143745047Y-116820295D02*
X143745047Y-116020295D01*
X143745047Y-116020295D02*
X143668856Y-116134580D01*
X143668856Y-116134580D02*
X143592666Y-116210771D01*
X143592666Y-116210771D02*
X143516475Y-116248866D01*
X144468857Y-116020295D02*
X144545047Y-116020295D01*
X144545047Y-116020295D02*
X144621238Y-116058390D01*
X144621238Y-116058390D02*
X144659333Y-116096485D01*
X144659333Y-116096485D02*
X144697428Y-116172676D01*
X144697428Y-116172676D02*
X144735523Y-116325057D01*
X144735523Y-116325057D02*
X144735523Y-116515533D01*
X144735523Y-116515533D02*
X144697428Y-116667914D01*
X144697428Y-116667914D02*
X144659333Y-116744104D01*
X144659333Y-116744104D02*
X144621238Y-116782200D01*
X144621238Y-116782200D02*
X144545047Y-116820295D01*
X144545047Y-116820295D02*
X144468857Y-116820295D01*
X144468857Y-116820295D02*
X144392666Y-116782200D01*
X144392666Y-116782200D02*
X144354571Y-116744104D01*
X144354571Y-116744104D02*
X144316476Y-116667914D01*
X144316476Y-116667914D02*
X144278380Y-116515533D01*
X144278380Y-116515533D02*
X144278380Y-116325057D01*
X144278380Y-116325057D02*
X144316476Y-116172676D01*
X144316476Y-116172676D02*
X144354571Y-116096485D01*
X144354571Y-116096485D02*
X144392666Y-116058390D01*
X144392666Y-116058390D02*
X144468857Y-116020295D01*
X145078381Y-116820295D02*
X145078381Y-116020295D01*
X145535524Y-116820295D02*
X145192666Y-116363152D01*
X145535524Y-116020295D02*
X145078381Y-116477438D01*
X162647333Y-114500819D02*
X162314000Y-114024628D01*
X162075905Y-114500819D02*
X162075905Y-113500819D01*
X162075905Y-113500819D02*
X162456857Y-113500819D01*
X162456857Y-113500819D02*
X162552095Y-113548438D01*
X162552095Y-113548438D02*
X162599714Y-113596057D01*
X162599714Y-113596057D02*
X162647333Y-113691295D01*
X162647333Y-113691295D02*
X162647333Y-113834152D01*
X162647333Y-113834152D02*
X162599714Y-113929390D01*
X162599714Y-113929390D02*
X162552095Y-113977009D01*
X162552095Y-113977009D02*
X162456857Y-114024628D01*
X162456857Y-114024628D02*
X162075905Y-114024628D01*
X163552095Y-113500819D02*
X163075905Y-113500819D01*
X163075905Y-113500819D02*
X163028286Y-113977009D01*
X163028286Y-113977009D02*
X163075905Y-113929390D01*
X163075905Y-113929390D02*
X163171143Y-113881771D01*
X163171143Y-113881771D02*
X163409238Y-113881771D01*
X163409238Y-113881771D02*
X163504476Y-113929390D01*
X163504476Y-113929390D02*
X163552095Y-113977009D01*
X163552095Y-113977009D02*
X163599714Y-114072247D01*
X163599714Y-114072247D02*
X163599714Y-114310342D01*
X163599714Y-114310342D02*
X163552095Y-114405580D01*
X163552095Y-114405580D02*
X163504476Y-114453200D01*
X163504476Y-114453200D02*
X163409238Y-114500819D01*
X163409238Y-114500819D02*
X163171143Y-114500819D01*
X163171143Y-114500819D02*
X163075905Y-114453200D01*
X163075905Y-114453200D02*
X163028286Y-114405580D01*
X165804952Y-115778961D02*
X165804952Y-116312295D01*
X165614476Y-115474200D02*
X165423999Y-116045628D01*
X165423999Y-116045628D02*
X165919238Y-116045628D01*
X166224000Y-116236104D02*
X166262095Y-116274200D01*
X166262095Y-116274200D02*
X166224000Y-116312295D01*
X166224000Y-116312295D02*
X166185904Y-116274200D01*
X166185904Y-116274200D02*
X166224000Y-116236104D01*
X166224000Y-116236104D02*
X166224000Y-116312295D01*
X166528761Y-115512295D02*
X167062095Y-115512295D01*
X167062095Y-115512295D02*
X166719237Y-116312295D01*
X167366857Y-116312295D02*
X167366857Y-115512295D01*
X167824000Y-116312295D02*
X167481142Y-115855152D01*
X167824000Y-115512295D02*
X167366857Y-115969438D01*
X134264476Y-112435295D02*
X134264476Y-113082914D01*
X134264476Y-113082914D02*
X134302571Y-113159104D01*
X134302571Y-113159104D02*
X134340666Y-113197200D01*
X134340666Y-113197200D02*
X134416857Y-113235295D01*
X134416857Y-113235295D02*
X134569238Y-113235295D01*
X134569238Y-113235295D02*
X134645428Y-113197200D01*
X134645428Y-113197200D02*
X134683523Y-113159104D01*
X134683523Y-113159104D02*
X134721619Y-113082914D01*
X134721619Y-113082914D02*
X134721619Y-112435295D01*
X135026380Y-112435295D02*
X135521618Y-112435295D01*
X135521618Y-112435295D02*
X135254952Y-112740057D01*
X135254952Y-112740057D02*
X135369237Y-112740057D01*
X135369237Y-112740057D02*
X135445428Y-112778152D01*
X135445428Y-112778152D02*
X135483523Y-112816247D01*
X135483523Y-112816247D02*
X135521618Y-112892438D01*
X135521618Y-112892438D02*
X135521618Y-113082914D01*
X135521618Y-113082914D02*
X135483523Y-113159104D01*
X135483523Y-113159104D02*
X135445428Y-113197200D01*
X135445428Y-113197200D02*
X135369237Y-113235295D01*
X135369237Y-113235295D02*
X135140666Y-113235295D01*
X135140666Y-113235295D02*
X135064475Y-113197200D01*
X135064475Y-113197200D02*
X135026380Y-113159104D01*
X136741999Y-113346033D02*
X136741999Y-112646033D01*
X136741999Y-112646033D02*
X136908666Y-112646033D01*
X136908666Y-112646033D02*
X137008666Y-112679366D01*
X137008666Y-112679366D02*
X137075333Y-112746033D01*
X137075333Y-112746033D02*
X137108666Y-112812700D01*
X137108666Y-112812700D02*
X137141999Y-112946033D01*
X137141999Y-112946033D02*
X137141999Y-113046033D01*
X137141999Y-113046033D02*
X137108666Y-113179366D01*
X137108666Y-113179366D02*
X137075333Y-113246033D01*
X137075333Y-113246033D02*
X137008666Y-113312700D01*
X137008666Y-113312700D02*
X136908666Y-113346033D01*
X136908666Y-113346033D02*
X136741999Y-113346033D01*
X137408666Y-113312700D02*
X137508666Y-113346033D01*
X137508666Y-113346033D02*
X137675333Y-113346033D01*
X137675333Y-113346033D02*
X137741999Y-113312700D01*
X137741999Y-113312700D02*
X137775333Y-113279366D01*
X137775333Y-113279366D02*
X137808666Y-113212700D01*
X137808666Y-113212700D02*
X137808666Y-113146033D01*
X137808666Y-113146033D02*
X137775333Y-113079366D01*
X137775333Y-113079366D02*
X137741999Y-113046033D01*
X137741999Y-113046033D02*
X137675333Y-113012700D01*
X137675333Y-113012700D02*
X137541999Y-112979366D01*
X137541999Y-112979366D02*
X137475333Y-112946033D01*
X137475333Y-112946033D02*
X137441999Y-112912700D01*
X137441999Y-112912700D02*
X137408666Y-112846033D01*
X137408666Y-112846033D02*
X137408666Y-112779366D01*
X137408666Y-112779366D02*
X137441999Y-112712700D01*
X137441999Y-112712700D02*
X137475333Y-112679366D01*
X137475333Y-112679366D02*
X137541999Y-112646033D01*
X137541999Y-112646033D02*
X137708666Y-112646033D01*
X137708666Y-112646033D02*
X137808666Y-112679366D01*
X138475333Y-113346033D02*
X138075333Y-113346033D01*
X138275333Y-113346033D02*
X138275333Y-112646033D01*
X138275333Y-112646033D02*
X138208666Y-112746033D01*
X138208666Y-112746033D02*
X138142000Y-112812700D01*
X138142000Y-112812700D02*
X138075333Y-112846033D01*
X138708667Y-112646033D02*
X139142000Y-112646033D01*
X139142000Y-112646033D02*
X138908667Y-112912700D01*
X138908667Y-112912700D02*
X139008667Y-112912700D01*
X139008667Y-112912700D02*
X139075333Y-112946033D01*
X139075333Y-112946033D02*
X139108667Y-112979366D01*
X139108667Y-112979366D02*
X139142000Y-113046033D01*
X139142000Y-113046033D02*
X139142000Y-113212700D01*
X139142000Y-113212700D02*
X139108667Y-113279366D01*
X139108667Y-113279366D02*
X139075333Y-113312700D01*
X139075333Y-113312700D02*
X139008667Y-113346033D01*
X139008667Y-113346033D02*
X138808667Y-113346033D01*
X138808667Y-113346033D02*
X138742000Y-113312700D01*
X138742000Y-113312700D02*
X138708667Y-113279366D01*
X139375334Y-112646033D02*
X139808667Y-112646033D01*
X139808667Y-112646033D02*
X139575334Y-112912700D01*
X139575334Y-112912700D02*
X139675334Y-112912700D01*
X139675334Y-112912700D02*
X139742000Y-112946033D01*
X139742000Y-112946033D02*
X139775334Y-112979366D01*
X139775334Y-112979366D02*
X139808667Y-113046033D01*
X139808667Y-113046033D02*
X139808667Y-113212700D01*
X139808667Y-113212700D02*
X139775334Y-113279366D01*
X139775334Y-113279366D02*
X139742000Y-113312700D01*
X139742000Y-113312700D02*
X139675334Y-113346033D01*
X139675334Y-113346033D02*
X139475334Y-113346033D01*
X139475334Y-113346033D02*
X139408667Y-113312700D01*
X139408667Y-113312700D02*
X139375334Y-113279366D01*
X140042001Y-112646033D02*
X140508667Y-112646033D01*
X140508667Y-112646033D02*
X140208667Y-113346033D01*
X140742001Y-113312700D02*
X140842001Y-113346033D01*
X140842001Y-113346033D02*
X141008668Y-113346033D01*
X141008668Y-113346033D02*
X141075334Y-113312700D01*
X141075334Y-113312700D02*
X141108668Y-113279366D01*
X141108668Y-113279366D02*
X141142001Y-113212700D01*
X141142001Y-113212700D02*
X141142001Y-113146033D01*
X141142001Y-113146033D02*
X141108668Y-113079366D01*
X141108668Y-113079366D02*
X141075334Y-113046033D01*
X141075334Y-113046033D02*
X141008668Y-113012700D01*
X141008668Y-113012700D02*
X140875334Y-112979366D01*
X140875334Y-112979366D02*
X140808668Y-112946033D01*
X140808668Y-112946033D02*
X140775334Y-112912700D01*
X140775334Y-112912700D02*
X140742001Y-112846033D01*
X140742001Y-112846033D02*
X140742001Y-112779366D01*
X140742001Y-112779366D02*
X140775334Y-112712700D01*
X140775334Y-112712700D02*
X140808668Y-112679366D01*
X140808668Y-112679366D02*
X140875334Y-112646033D01*
X140875334Y-112646033D02*
X141042001Y-112646033D01*
X141042001Y-112646033D02*
X141142001Y-112679366D01*
X141275335Y-113412700D02*
X141808668Y-113412700D01*
D12*
%TO.C,BT1*%
X127575000Y-104080000D02*
X128905000Y-104080000D01*
X127575000Y-105410000D02*
X127575000Y-104080000D01*
X127575000Y-106680000D02*
X127575000Y-109280000D01*
X127575000Y-106680000D02*
X130235000Y-106680000D01*
X127575000Y-109280000D02*
X130235000Y-109280000D01*
X130235000Y-106680000D02*
X130235000Y-109280000D01*
%TO.C,U2*%
X134530000Y-106495000D02*
X134530000Y-106755000D01*
X134530000Y-111945000D02*
X134530000Y-111685000D01*
X137255000Y-106495000D02*
X134530000Y-106495000D01*
X137255000Y-106495000D02*
X139980000Y-106495000D01*
X137255000Y-111945000D02*
X134530000Y-111945000D01*
X137255000Y-111945000D02*
X139980000Y-111945000D01*
X139980000Y-106495000D02*
X139980000Y-106755000D01*
X139980000Y-111945000D02*
X139980000Y-111685000D01*
X133747500Y-106755000D02*
X133507500Y-106425000D01*
X133987500Y-106425000D01*
X133747500Y-106755000D01*
G36*
X133747500Y-106755000D02*
G01*
X133507500Y-106425000D01*
X133987500Y-106425000D01*
X133747500Y-106755000D01*
G37*
%TO.C,R2*%
X164595436Y-109120000D02*
X165049564Y-109120000D01*
X164595436Y-110590000D02*
X165049564Y-110590000D01*
%TO.C,D1*%
X165955000Y-98735000D02*
X165955000Y-100655000D01*
X165955000Y-100655000D02*
X168640000Y-100655000D01*
X168640000Y-98735000D02*
X165955000Y-98735000D01*
%TO.C,J1*%
X172660000Y-111700000D02*
X173990000Y-111700000D01*
X172660000Y-113030000D02*
X172660000Y-111700000D01*
X172660000Y-114300000D02*
X172660000Y-121980000D01*
X172660000Y-114300000D02*
X175320000Y-114300000D01*
X172660000Y-121980000D02*
X175320000Y-121980000D01*
X175320000Y-114300000D02*
X175320000Y-121980000D01*
%TO.C,R7*%
X143536936Y-104675000D02*
X143991064Y-104675000D01*
X143536936Y-106145000D02*
X143991064Y-106145000D01*
%TO.C,Y1*%
X152870000Y-117580000D02*
X152870000Y-121180000D01*
X152870000Y-121180000D02*
X160120000Y-121180000D01*
X160120000Y-117580000D02*
X152870000Y-117580000D01*
%TO.C,J2*%
X158055000Y-126425000D02*
X158055000Y-125095000D01*
X159385000Y-126425000D02*
X158055000Y-126425000D01*
X160655000Y-123765000D02*
X168335000Y-123765000D01*
X160655000Y-126425000D02*
X160655000Y-123765000D01*
X160655000Y-126425000D02*
X168335000Y-126425000D01*
X168335000Y-126425000D02*
X168335000Y-123765000D01*
%TO.C,D2*%
X161207500Y-98735000D02*
X161207500Y-100655000D01*
X161207500Y-100655000D02*
X163892500Y-100655000D01*
X163892500Y-98735000D02*
X161207500Y-98735000D01*
%TO.C,C1*%
X157665748Y-98960000D02*
X158188252Y-98960000D01*
X157665748Y-100430000D02*
X158188252Y-100430000D01*
%TO.C,C5*%
X146108748Y-98960000D02*
X146631252Y-98960000D01*
X146108748Y-100430000D02*
X146631252Y-100430000D01*
%TO.C,U1*%
X134530000Y-98875000D02*
X134530000Y-99135000D01*
X134530000Y-104325000D02*
X134530000Y-104065000D01*
X137255000Y-98875000D02*
X134530000Y-98875000D01*
X137255000Y-98875000D02*
X139980000Y-98875000D01*
X137255000Y-104325000D02*
X134530000Y-104325000D01*
X137255000Y-104325000D02*
X139980000Y-104325000D01*
X139980000Y-98875000D02*
X139980000Y-99135000D01*
X139980000Y-104325000D02*
X139980000Y-104065000D01*
X133747500Y-99135000D02*
X133507500Y-98805000D01*
X133987500Y-98805000D01*
X133747500Y-99135000D01*
G36*
X133747500Y-99135000D02*
G01*
X133507500Y-98805000D01*
X133987500Y-98805000D01*
X133747500Y-99135000D01*
G37*
%TO.C,R3*%
X152172936Y-98960000D02*
X152627064Y-98960000D01*
X152172936Y-100430000D02*
X152627064Y-100430000D01*
D13*
%TO.C,U4*%
X150415000Y-106080000D02*
X157215000Y-106080000D01*
X150415000Y-112880000D02*
X150415000Y-106080000D01*
X157215000Y-106080000D02*
X157215000Y-112880000D01*
X157215000Y-112880000D02*
X150415000Y-112880000D01*
D14*
X149442000Y-105730000D02*
G75*
G02*
X149188000Y-105730000I-127000J0D01*
G01*
X149188000Y-105730000D02*
G75*
G02*
X149442000Y-105730000I127000J0D01*
G01*
D13*
X151431000Y-106736800D02*
G75*
G02*
X150712600Y-106736800I-359200J0D01*
G01*
X150712600Y-106736800D02*
G75*
G02*
X151431000Y-106736800I359200J0D01*
G01*
D12*
%TO.C,C2*%
X135455252Y-120677000D02*
X134932748Y-120677000D01*
X135455252Y-122147000D02*
X134932748Y-122147000D01*
%TO.C,J4*%
X170120000Y-102810000D02*
X171450000Y-102810000D01*
X170120000Y-104140000D02*
X170120000Y-102810000D01*
X170120000Y-105410000D02*
X170120000Y-110550000D01*
X170120000Y-105410000D02*
X172720000Y-105410000D01*
X170120000Y-110550000D02*
X175320000Y-110550000D01*
X172720000Y-102810000D02*
X175320000Y-102810000D01*
X172720000Y-105410000D02*
X172720000Y-102810000D01*
X175320000Y-102810000D02*
X175320000Y-110550000D01*
%TO.C,R1*%
X167412936Y-103278000D02*
X167867064Y-103278000D01*
X167412936Y-104748000D02*
X167867064Y-104748000D01*
%TO.C,C4*%
X150614748Y-118137000D02*
X151137252Y-118137000D01*
X150614748Y-119607000D02*
X151137252Y-119607000D01*
%TO.C,C3*%
X164523748Y-118645000D02*
X165046252Y-118645000D01*
X164523748Y-120115000D02*
X165046252Y-120115000D01*
%TO.C,J3*%
X131359600Y-126755200D02*
X131359600Y-125425200D01*
X132689600Y-126755200D02*
X131359600Y-126755200D01*
X133959600Y-124095200D02*
X154339600Y-124095200D01*
X133959600Y-126755200D02*
X133959600Y-124095200D01*
X133959600Y-126755200D02*
X154339600Y-126755200D01*
X154339600Y-126755200D02*
X154339600Y-124095200D01*
%TO.C,Y2*%
X127181200Y-113124000D02*
X127181200Y-120374000D01*
X127181200Y-120374000D02*
X130781200Y-120374000D01*
X130781200Y-120374000D02*
X130781200Y-113124000D01*
%TO.C,R4*%
X162713936Y-103278000D02*
X163168064Y-103278000D01*
X162713936Y-104748000D02*
X163168064Y-104748000D01*
%TO.C,R6*%
X143536936Y-114073000D02*
X143991064Y-114073000D01*
X143536936Y-115543000D02*
X143991064Y-115543000D01*
%TO.C,R5*%
X165380936Y-113565000D02*
X165835064Y-113565000D01*
X165380936Y-115035000D02*
X165835064Y-115035000D01*
D15*
%TO.C,U3*%
X135225000Y-113685000D02*
X139225000Y-113685000D01*
X135225000Y-118725000D02*
X139225000Y-118725000D01*
D16*
X132880000Y-113710000D02*
G75*
G02*
X132680000Y-113710000I-100000J0D01*
G01*
X132680000Y-113710000D02*
G75*
G02*
X132880000Y-113710000I100000J0D01*
G01*
%TD*%
M02*
