%TF.GenerationSoftware,KiCad,Pcbnew,8.0.5*%
%TF.CreationDate,2025-01-15T00:37:06+05:30*%
%TF.ProjectId,MCU_Datalogger,4d43555f-4461-4746-916c-6f676765722e,1*%
%TF.SameCoordinates,Original*%
%TF.FileFunction,Paste,Top*%
%TF.FilePolarity,Positive*%
%FSLAX46Y46*%
G04 Gerber Fmt 4.6, Leading zero omitted, Abs format (unit mm)*
G04 Created by KiCad (PCBNEW 8.0.5) date 2025-01-15 00:37:06*
%MOMM*%
%LPD*%
G01*
G04 APERTURE LIST*
G04 Aperture macros list*
%AMRoundRect*
0 Rectangle with rounded corners*
0 $1 Rounding radius*
0 $2 $3 $4 $5 $6 $7 $8 $9 X,Y pos of 4 corners*
0 Add a 4 corners polygon primitive as box body*
4,1,4,$2,$3,$4,$5,$6,$7,$8,$9,$2,$3,0*
0 Add four circle primitives for the rounded corners*
1,1,$1+$1,$2,$3*
1,1,$1+$1,$4,$5*
1,1,$1+$1,$6,$7*
1,1,$1+$1,$8,$9*
0 Add four rect primitives between the rounded corners*
20,1,$1+$1,$2,$3,$4,$5,0*
20,1,$1+$1,$4,$5,$6,$7,0*
20,1,$1+$1,$6,$7,$8,$9,0*
20,1,$1+$1,$8,$9,$2,$3,0*%
G04 Aperture macros list end*
%ADD10RoundRect,0.150000X-0.650000X-0.150000X0.650000X-0.150000X0.650000X0.150000X-0.650000X0.150000X0*%
%ADD11RoundRect,0.250000X-0.262500X-0.450000X0.262500X-0.450000X0.262500X0.450000X-0.262500X0.450000X0*%
%ADD12RoundRect,0.243750X-0.243750X-0.456250X0.243750X-0.456250X0.243750X0.456250X-0.243750X0.456250X0*%
%ADD13R,3.500000X2.400000*%
%ADD14RoundRect,0.250000X-0.250000X-0.475000X0.250000X-0.475000X0.250000X0.475000X-0.250000X0.475000X0*%
%ADD15R,1.500000X0.550000*%
%ADD16R,0.550000X1.500000*%
%ADD17RoundRect,0.250000X0.250000X0.475000X-0.250000X0.475000X-0.250000X-0.475000X0.250000X-0.475000X0*%
%ADD18R,2.400000X3.500000*%
%ADD19RoundRect,0.073750X-0.911250X-0.221250X0.911250X-0.221250X0.911250X0.221250X-0.911250X0.221250X0*%
G04 APERTURE END LIST*
D10*
%TO.C,U2*%
X133655000Y-107315000D03*
X133655000Y-108585000D03*
X133655000Y-109855000D03*
X133655000Y-111125000D03*
X140855000Y-111125000D03*
X140855000Y-109855000D03*
X140855000Y-108585000D03*
X140855000Y-107315000D03*
%TD*%
D11*
%TO.C,R2*%
X163910000Y-109855000D03*
X165735000Y-109855000D03*
%TD*%
D12*
%TO.C,D1*%
X166702500Y-99695000D03*
X168577500Y-99695000D03*
%TD*%
D11*
%TO.C,R7*%
X142851500Y-105410000D03*
X144676500Y-105410000D03*
%TD*%
D13*
%TO.C,Y1*%
X154820000Y-119380000D03*
X160020000Y-119380000D03*
%TD*%
D12*
%TO.C,D2*%
X161955000Y-99695000D03*
X163830000Y-99695000D03*
%TD*%
D14*
%TO.C,C1*%
X156977000Y-99695000D03*
X158877000Y-99695000D03*
%TD*%
%TO.C,C5*%
X145420000Y-99695000D03*
X147320000Y-99695000D03*
%TD*%
D10*
%TO.C,U1*%
X133655000Y-99695000D03*
X133655000Y-100965000D03*
X133655000Y-102235000D03*
X133655000Y-103505000D03*
X140855000Y-103505000D03*
X140855000Y-102235000D03*
X140855000Y-100965000D03*
X140855000Y-99695000D03*
%TD*%
D11*
%TO.C,R3*%
X151487500Y-99695000D03*
X153312500Y-99695000D03*
%TD*%
D15*
%TO.C,U4*%
X149515000Y-106680000D03*
X149515000Y-107480000D03*
X149515000Y-108280000D03*
X149515000Y-109080000D03*
X149515000Y-109880000D03*
X149515000Y-110680000D03*
X149515000Y-111480000D03*
X149515000Y-112280000D03*
D16*
X151015000Y-113780000D03*
X151815000Y-113780000D03*
X152615000Y-113780000D03*
X153415000Y-113780000D03*
X154215000Y-113780000D03*
X155015000Y-113780000D03*
X155815000Y-113780000D03*
X156615000Y-113780000D03*
D15*
X158115000Y-112280000D03*
X158115000Y-111480000D03*
X158115000Y-110680000D03*
X158115000Y-109880000D03*
X158115000Y-109080000D03*
X158115000Y-108280000D03*
X158115000Y-107480000D03*
X158115000Y-106680000D03*
D16*
X156615000Y-105180000D03*
X155815000Y-105180000D03*
X155015000Y-105180000D03*
X154215000Y-105180000D03*
X153415000Y-105180000D03*
X152615000Y-105180000D03*
X151815000Y-105180000D03*
X151015000Y-105180000D03*
%TD*%
D17*
%TO.C,C2*%
X136144000Y-121412000D03*
X134244000Y-121412000D03*
%TD*%
D11*
%TO.C,R1*%
X166727500Y-104013000D03*
X168552500Y-104013000D03*
%TD*%
D14*
%TO.C,C4*%
X149926000Y-118872000D03*
X151826000Y-118872000D03*
%TD*%
%TO.C,C3*%
X163835000Y-119380000D03*
X165735000Y-119380000D03*
%TD*%
D18*
%TO.C,Y2*%
X128981200Y-118424000D03*
X128981200Y-113224000D03*
%TD*%
D11*
%TO.C,R4*%
X162028500Y-104013000D03*
X163853500Y-104013000D03*
%TD*%
%TO.C,R6*%
X142851500Y-114808000D03*
X144676500Y-114808000D03*
%TD*%
%TO.C,R5*%
X164695500Y-114300000D03*
X166520500Y-114300000D03*
%TD*%
D19*
%TO.C,U3*%
X134750000Y-114300000D03*
X134750000Y-115570000D03*
X134750000Y-116840000D03*
X134750000Y-118110000D03*
X139700000Y-118110000D03*
X139700000Y-116840000D03*
X139700000Y-115570000D03*
X139700000Y-114300000D03*
%TD*%
M02*
