%TF.GenerationSoftware,KiCad,Pcbnew,8.0.5*%
%TF.CreationDate,2025-01-15T00:39:03+05:30*%
%TF.ProjectId,MCU_Datalogger,4d43555f-4461-4746-916c-6f676765722e,1*%
%TF.SameCoordinates,Original*%
%TF.FileFunction,Copper,L1,Top*%
%TF.FilePolarity,Positive*%
%FSLAX46Y46*%
G04 Gerber Fmt 4.6, Leading zero omitted, Abs format (unit mm)*
G04 Created by KiCad (PCBNEW 8.0.5) date 2025-01-15 00:39:03*
%MOMM*%
%LPD*%
G01*
G04 APERTURE LIST*
G04 Aperture macros list*
%AMRoundRect*
0 Rectangle with rounded corners*
0 $1 Rounding radius*
0 $2 $3 $4 $5 $6 $7 $8 $9 X,Y pos of 4 corners*
0 Add a 4 corners polygon primitive as box body*
4,1,4,$2,$3,$4,$5,$6,$7,$8,$9,$2,$3,0*
0 Add four circle primitives for the rounded corners*
1,1,$1+$1,$2,$3*
1,1,$1+$1,$4,$5*
1,1,$1+$1,$6,$7*
1,1,$1+$1,$8,$9*
0 Add four rect primitives between the rounded corners*
20,1,$1+$1,$2,$3,$4,$5,0*
20,1,$1+$1,$4,$5,$6,$7,0*
20,1,$1+$1,$6,$7,$8,$9,0*
20,1,$1+$1,$8,$9,$2,$3,0*%
G04 Aperture macros list end*
%TA.AperFunction,ComponentPad*%
%ADD10R,1.700000X1.700000*%
%TD*%
%TA.AperFunction,ComponentPad*%
%ADD11O,1.700000X1.700000*%
%TD*%
%TA.AperFunction,SMDPad,CuDef*%
%ADD12RoundRect,0.150000X-0.650000X-0.150000X0.650000X-0.150000X0.650000X0.150000X-0.650000X0.150000X0*%
%TD*%
%TA.AperFunction,SMDPad,CuDef*%
%ADD13RoundRect,0.250000X-0.262500X-0.450000X0.262500X-0.450000X0.262500X0.450000X-0.262500X0.450000X0*%
%TD*%
%TA.AperFunction,SMDPad,CuDef*%
%ADD14RoundRect,0.243750X-0.243750X-0.456250X0.243750X-0.456250X0.243750X0.456250X-0.243750X0.456250X0*%
%TD*%
%TA.AperFunction,SMDPad,CuDef*%
%ADD15R,3.500000X2.400000*%
%TD*%
%TA.AperFunction,SMDPad,CuDef*%
%ADD16RoundRect,0.250000X-0.250000X-0.475000X0.250000X-0.475000X0.250000X0.475000X-0.250000X0.475000X0*%
%TD*%
%TA.AperFunction,SMDPad,CuDef*%
%ADD17R,1.500000X0.550000*%
%TD*%
%TA.AperFunction,SMDPad,CuDef*%
%ADD18R,0.550000X1.500000*%
%TD*%
%TA.AperFunction,SMDPad,CuDef*%
%ADD19RoundRect,0.250000X0.250000X0.475000X-0.250000X0.475000X-0.250000X-0.475000X0.250000X-0.475000X0*%
%TD*%
%TA.AperFunction,SMDPad,CuDef*%
%ADD20R,2.400000X3.500000*%
%TD*%
%TA.AperFunction,SMDPad,CuDef*%
%ADD21RoundRect,0.073750X-0.911250X-0.221250X0.911250X-0.221250X0.911250X0.221250X-0.911250X0.221250X0*%
%TD*%
%TA.AperFunction,ViaPad*%
%ADD22C,0.800000*%
%TD*%
%TA.AperFunction,ViaPad*%
%ADD23C,0.900000*%
%TD*%
%TA.AperFunction,Conductor*%
%ADD24C,0.250000*%
%TD*%
%TA.AperFunction,Conductor*%
%ADD25C,0.350000*%
%TD*%
G04 APERTURE END LIST*
D10*
%TO.P,BT1,1,+*%
%TO.N,Net-(BT1-+)*%
X128905000Y-105410000D03*
D11*
%TO.P,BT1,2,-*%
%TO.N,GND*%
X128905000Y-107950000D03*
%TD*%
D12*
%TO.P,U2,1,A0*%
%TO.N,/Vcc*%
X133655000Y-107315000D03*
%TO.P,U2,2,A1*%
%TO.N,GND*%
X133655000Y-108585000D03*
%TO.P,U2,3,A2*%
%TO.N,/Vcc*%
X133655000Y-109855000D03*
%TO.P,U2,4,GND*%
%TO.N,GND*%
X133655000Y-111125000D03*
%TO.P,U2,5,SDA*%
%TO.N,/SDA*%
X140855000Y-111125000D03*
%TO.P,U2,6,SCL*%
%TO.N,/SCK*%
X140855000Y-109855000D03*
%TO.P,U2,7,WP*%
%TO.N,GND*%
X140855000Y-108585000D03*
%TO.P,U2,8,VCC*%
%TO.N,/Vcc*%
X140855000Y-107315000D03*
%TD*%
D13*
%TO.P,R2,1*%
%TO.N,/Vcc*%
X163910000Y-109855000D03*
%TO.P,R2,2*%
%TO.N,/SDA*%
X165735000Y-109855000D03*
%TD*%
D14*
%TO.P,D1,1,K*%
%TO.N,Net-(D1-K)*%
X166702500Y-99695000D03*
%TO.P,D1,2,A*%
%TO.N,Net-(BT1-+)*%
X168577500Y-99695000D03*
%TD*%
D10*
%TO.P,J1,1,Pin_1*%
%TO.N,GND*%
X173990000Y-113030000D03*
D11*
%TO.P,J1,2,Pin_2*%
%TO.N,/Vcc*%
X173990000Y-115570000D03*
%TO.P,J1,3,Pin_3*%
%TO.N,/SDA*%
X173990000Y-118110000D03*
%TO.P,J1,4,Pin_4*%
%TO.N,/SCK*%
X173990000Y-120650000D03*
%TD*%
D13*
%TO.P,R7,1*%
%TO.N,/Vcc*%
X142851500Y-105410000D03*
%TO.P,R7,2*%
%TO.N,Net-(U3-~{INTA})*%
X144676500Y-105410000D03*
%TD*%
D15*
%TO.P,Y1,1,1*%
%TO.N,Net-(U4-PB7)*%
X154820000Y-119380000D03*
%TO.P,Y1,2,2*%
%TO.N,Net-(U4-PB6)*%
X160020000Y-119380000D03*
%TD*%
D10*
%TO.P,J2,1,Pin_1*%
%TO.N,GND*%
X159385000Y-125095000D03*
D11*
%TO.P,J2,2,Pin_2*%
%TO.N,/Vcc*%
X161925000Y-125095000D03*
%TO.P,J2,3,Pin_3*%
%TO.N,/RX*%
X164465000Y-125095000D03*
%TO.P,J2,4,Pin_4*%
%TO.N,/TX*%
X167005000Y-125095000D03*
%TD*%
D14*
%TO.P,D2,1,K*%
%TO.N,Net-(D2-K)*%
X161955000Y-99695000D03*
%TO.P,D2,2,A*%
%TO.N,/SCK*%
X163830000Y-99695000D03*
%TD*%
D16*
%TO.P,C1,1*%
%TO.N,GND*%
X156977000Y-99695000D03*
%TO.P,C1,2*%
%TO.N,Net-(U4-AREF)*%
X158877000Y-99695000D03*
%TD*%
%TO.P,C5,1*%
%TO.N,Net-(BT1-+)*%
X145420000Y-99695000D03*
%TO.P,C5,2*%
%TO.N,GND*%
X147320000Y-99695000D03*
%TD*%
D12*
%TO.P,U1,1,A0*%
%TO.N,/Vcc*%
X133655000Y-99695000D03*
%TO.P,U1,2,A1*%
X133655000Y-100965000D03*
%TO.P,U1,3,A2*%
X133655000Y-102235000D03*
%TO.P,U1,4,GND*%
%TO.N,GND*%
X133655000Y-103505000D03*
%TO.P,U1,5,SDA*%
%TO.N,/SDA*%
X140855000Y-103505000D03*
%TO.P,U1,6,SCL*%
%TO.N,/SCK*%
X140855000Y-102235000D03*
%TO.P,U1,7,WP*%
%TO.N,GND*%
X140855000Y-100965000D03*
%TO.P,U1,8,VCC*%
%TO.N,/Vcc*%
X140855000Y-99695000D03*
%TD*%
D13*
%TO.P,R3,1*%
%TO.N,/Vcc*%
X151487500Y-99695000D03*
%TO.P,R3,2*%
%TO.N,/RESET*%
X153312500Y-99695000D03*
%TD*%
D17*
%TO.P,U4,1,PD3*%
%TO.N,/D3*%
X149515000Y-106680000D03*
%TO.P,U4,2,PD4*%
%TO.N,/D4*%
X149515000Y-107480000D03*
%TO.P,U4,3,GND*%
%TO.N,GND*%
X149515000Y-108280000D03*
%TO.P,U4,4,VCC*%
%TO.N,Net-(BT1-+)*%
X149515000Y-109080000D03*
%TO.P,U4,5,GND*%
%TO.N,GND*%
X149515000Y-109880000D03*
%TO.P,U4,6,VCC*%
%TO.N,unconnected-(U4-VCC-Pad6)*%
X149515000Y-110680000D03*
%TO.P,U4,7,PB6*%
%TO.N,Net-(U4-PB6)*%
X149515000Y-111480000D03*
%TO.P,U4,8,PB7*%
%TO.N,Net-(U4-PB7)*%
X149515000Y-112280000D03*
D18*
%TO.P,U4,9,PD5*%
%TO.N,/D5*%
X151015000Y-113780000D03*
%TO.P,U4,10,PD6*%
%TO.N,/D6*%
X151815000Y-113780000D03*
%TO.P,U4,11,PD7*%
%TO.N,/D7*%
X152615000Y-113780000D03*
%TO.P,U4,12,PB0*%
%TO.N,/D8*%
X153415000Y-113780000D03*
%TO.P,U4,13,PB1*%
%TO.N,unconnected-(U4-PB1-Pad13)*%
X154215000Y-113780000D03*
%TO.P,U4,14,PB2*%
%TO.N,unconnected-(U4-PB2-Pad14)*%
X155015000Y-113780000D03*
%TO.P,U4,15,PB3*%
%TO.N,/MOSI*%
X155815000Y-113780000D03*
%TO.P,U4,16,PB4*%
%TO.N,/MISO*%
X156615000Y-113780000D03*
D17*
%TO.P,U4,17,PB5*%
%TO.N,/SCK*%
X158115000Y-112280000D03*
%TO.P,U4,18,AVCC*%
%TO.N,Net-(BT1-+)*%
X158115000Y-111480000D03*
%TO.P,U4,19,ADC6*%
%TO.N,unconnected-(U4-ADC6-Pad19)*%
X158115000Y-110680000D03*
%TO.P,U4,20,AREF*%
%TO.N,Net-(U4-AREF)*%
X158115000Y-109880000D03*
%TO.P,U4,21,GND*%
%TO.N,GND*%
X158115000Y-109080000D03*
%TO.P,U4,22,ADC7*%
%TO.N,unconnected-(U4-ADC7-Pad22)*%
X158115000Y-108280000D03*
%TO.P,U4,23,PC0*%
%TO.N,unconnected-(U4-PC0-Pad23)*%
X158115000Y-107480000D03*
%TO.P,U4,24,PC1*%
%TO.N,unconnected-(U4-PC1-Pad24)*%
X158115000Y-106680000D03*
D18*
%TO.P,U4,25,PC2*%
%TO.N,unconnected-(U4-PC2-Pad25)*%
X156615000Y-105180000D03*
%TO.P,U4,26,PC3*%
%TO.N,unconnected-(U4-PC3-Pad26)*%
X155815000Y-105180000D03*
%TO.P,U4,27,PC4*%
%TO.N,/SDA*%
X155015000Y-105180000D03*
%TO.P,U4,28,PC5*%
%TO.N,/SCK*%
X154215000Y-105180000D03*
%TO.P,U4,29,PC6/~{RESET}*%
%TO.N,/RESET*%
X153415000Y-105180000D03*
%TO.P,U4,30,PD0*%
%TO.N,/RX*%
X152615000Y-105180000D03*
%TO.P,U4,31,PD1*%
%TO.N,/TX*%
X151815000Y-105180000D03*
%TO.P,U4,32,PD2*%
%TO.N,/D2*%
X151015000Y-105180000D03*
%TD*%
D19*
%TO.P,C2,1*%
%TO.N,/Vcc*%
X136144000Y-121412000D03*
%TO.P,C2,2*%
%TO.N,GND*%
X134244000Y-121412000D03*
%TD*%
D10*
%TO.P,J4,1,Pin_1*%
%TO.N,/MISO*%
X171450000Y-104140000D03*
D11*
%TO.P,J4,2,Pin_2*%
%TO.N,/Vcc*%
X173990000Y-104140000D03*
%TO.P,J4,3,Pin_3*%
%TO.N,/SCK*%
X171450000Y-106680000D03*
%TO.P,J4,4,Pin_4*%
%TO.N,/MOSI*%
X173990000Y-106680000D03*
%TO.P,J4,5,Pin_5*%
%TO.N,/RESET*%
X171450000Y-109220000D03*
%TO.P,J4,6,Pin_6*%
%TO.N,GND*%
X173990000Y-109220000D03*
%TD*%
D13*
%TO.P,R1,1*%
%TO.N,Net-(D1-K)*%
X166727500Y-104013000D03*
%TO.P,R1,2*%
%TO.N,GND*%
X168552500Y-104013000D03*
%TD*%
D16*
%TO.P,C4,1*%
%TO.N,GND*%
X149926000Y-118872000D03*
%TO.P,C4,2*%
%TO.N,Net-(U4-PB6)*%
X151826000Y-118872000D03*
%TD*%
%TO.P,C3,1*%
%TO.N,GND*%
X163835000Y-119380000D03*
%TO.P,C3,2*%
%TO.N,Net-(U4-PB7)*%
X165735000Y-119380000D03*
%TD*%
D10*
%TO.P,J3,1,Pin_1*%
%TO.N,/D2*%
X132689600Y-125425200D03*
D11*
%TO.P,J3,2,Pin_2*%
%TO.N,/D3*%
X135229600Y-125425200D03*
%TO.P,J3,3,Pin_3*%
%TO.N,/D4*%
X137769600Y-125425200D03*
%TO.P,J3,4,Pin_4*%
%TO.N,/D5*%
X140309600Y-125425200D03*
%TO.P,J3,5,Pin_5*%
%TO.N,/D6*%
X142849600Y-125425200D03*
%TO.P,J3,6,Pin_6*%
%TO.N,/D7*%
X145389600Y-125425200D03*
%TO.P,J3,7,Pin_7*%
%TO.N,/D8*%
X147929600Y-125425200D03*
%TO.P,J3,8,Pin_8*%
%TO.N,GND*%
X150469600Y-125425200D03*
%TO.P,J3,9,Pin_9*%
%TO.N,/Vcc*%
X153009600Y-125425200D03*
%TD*%
D20*
%TO.P,Y2,1,1*%
%TO.N,Net-(U3-X2)*%
X128981200Y-118424000D03*
%TO.P,Y2,2,2*%
%TO.N,Net-(U3-X1)*%
X128981200Y-113224000D03*
%TD*%
D13*
%TO.P,R4,1*%
%TO.N,GND*%
X162028500Y-104013000D03*
%TO.P,R4,2*%
%TO.N,Net-(D2-K)*%
X163853500Y-104013000D03*
%TD*%
%TO.P,R6,1*%
%TO.N,/Vcc*%
X142851500Y-114808000D03*
%TO.P,R6,2*%
%TO.N,Net-(U3-SQW{slash}~INT)*%
X144676500Y-114808000D03*
%TD*%
%TO.P,R5,1*%
%TO.N,/Vcc*%
X164695500Y-114300000D03*
%TO.P,R5,2*%
%TO.N,/SCK*%
X166520500Y-114300000D03*
%TD*%
D21*
%TO.P,U3,1,X1*%
%TO.N,Net-(U3-X1)*%
X134750000Y-114300000D03*
%TO.P,U3,2,X2*%
%TO.N,Net-(U3-X2)*%
X134750000Y-115570000D03*
%TO.P,U3,3,~{INTA}*%
%TO.N,Net-(U3-~{INTA})*%
X134750000Y-116840000D03*
%TO.P,U3,4,GND*%
%TO.N,GND*%
X134750000Y-118110000D03*
%TO.P,U3,5,SDA*%
%TO.N,/SDA*%
X139700000Y-118110000D03*
%TO.P,U3,6,SCL*%
%TO.N,/SCK*%
X139700000Y-116840000D03*
%TO.P,U3,7,SQW/~INT*%
%TO.N,Net-(U3-SQW{slash}~INT)*%
X139700000Y-115570000D03*
%TO.P,U3,8,VCC*%
%TO.N,/Vcc*%
X139700000Y-114300000D03*
%TD*%
D22*
%TO.N,Net-(BT1-+)*%
X143764000Y-100584000D03*
X155800304Y-111506000D03*
X152400000Y-109055000D03*
D23*
%TO.N,GND*%
X151384000Y-110998000D03*
X163500636Y-102425000D03*
X151384000Y-107696000D03*
X135890000Y-105410000D03*
X160782000Y-107950000D03*
X135382000Y-109728000D03*
X148590000Y-99427000D03*
X160782000Y-104839000D03*
X144780000Y-119634000D03*
X168402000Y-102362000D03*
%TO.N,/Vcc*%
X150697364Y-98881364D03*
X132080000Y-109474000D03*
X136652000Y-111252000D03*
X167397864Y-105906136D03*
X131064000Y-107710000D03*
X164846000Y-107950000D03*
X163068000Y-107188000D03*
X137414000Y-117602000D03*
X143764000Y-99314000D03*
X138430000Y-121412000D03*
D22*
%TO.N,Net-(U4-PB7)*%
X154178000Y-112268000D03*
X154940000Y-122174000D03*
%TO.N,Net-(U4-PB6)*%
X146050000Y-122365000D03*
X150431000Y-121412000D03*
X152400000Y-102616000D03*
X146050000Y-102870000D03*
X153924000Y-110705000D03*
X131064000Y-122682000D03*
%TO.N,/SCK*%
X142748000Y-109728000D03*
X164846000Y-115955552D03*
X169418000Y-112014000D03*
X156475540Y-112243606D03*
X160059696Y-114504999D03*
X143002000Y-116840000D03*
X138176000Y-109728000D03*
X137160000Y-103632000D03*
X162761256Y-115034803D03*
X168910000Y-114300000D03*
X156464000Y-107950000D03*
X158242000Y-113030000D03*
%TO.N,/SDA*%
X133688110Y-112302006D03*
X161802653Y-110739347D03*
X154686000Y-102362000D03*
X137489364Y-119558636D03*
X169672000Y-117602000D03*
X151134653Y-102112653D03*
%TO.N,/D8*%
X153416000Y-115353000D03*
X148405000Y-122365000D03*
%TO.N,/D6*%
X147757948Y-120349299D03*
X150114000Y-115353000D03*
%TO.N,/D5*%
X148373000Y-118364000D03*
X149352000Y-114554000D03*
%TO.N,/D7*%
X148781000Y-120523000D03*
X152400000Y-115353000D03*
%TO.N,/D4*%
X147574000Y-107696000D03*
X145796000Y-118586006D03*
%TO.N,/D2*%
X145796000Y-116586000D03*
X147828000Y-105156000D03*
%TO.N,/D3*%
X147421000Y-106680000D03*
X145796000Y-117586003D03*
%TO.N,/RESET*%
X169164000Y-101283000D03*
X172720000Y-105664000D03*
X156464000Y-106934000D03*
X154944653Y-106929347D03*
X154432000Y-108712000D03*
%TO.N,/MISO*%
X161036000Y-113284000D03*
%TO.N,/MOSI*%
X155075304Y-110705000D03*
%TO.N,Net-(U3-~{INTA})*%
X142217786Y-113246193D03*
X143510000Y-110744000D03*
%TD*%
D24*
%TO.N,/SDA*%
X133908104Y-112522000D02*
X139458000Y-112522000D01*
X133688110Y-112302006D02*
X133908104Y-112522000D01*
X139458000Y-112522000D02*
X140855000Y-111125000D01*
%TO.N,Net-(U4-PB6)*%
X143190501Y-126746000D02*
X144024600Y-125911901D01*
X144024600Y-125911901D02*
X144024600Y-124390400D01*
X144024600Y-124390400D02*
X146050000Y-122365000D01*
X131660400Y-126746000D02*
X143190501Y-126746000D01*
X131064000Y-126149600D02*
X131660400Y-126746000D01*
X131064000Y-122682000D02*
X131064000Y-126149600D01*
D25*
%TO.N,GND*%
X175601000Y-102790000D02*
X175601000Y-107609000D01*
X175173000Y-102362000D02*
X175601000Y-102790000D01*
X175601000Y-107609000D02*
X173990000Y-109220000D01*
X169926000Y-102362000D02*
X175173000Y-102362000D01*
X169672000Y-102108000D02*
X169926000Y-102362000D01*
D24*
%TO.N,Net-(BT1-+)*%
X145420000Y-99695000D02*
X144653000Y-99695000D01*
X160782000Y-112395000D02*
X159867000Y-111480000D01*
X144653000Y-99695000D02*
X143764000Y-100584000D01*
X143515000Y-97790000D02*
X145420000Y-99695000D01*
X168577500Y-98473500D02*
X168021000Y-97917000D01*
X167767000Y-111506000D02*
X166878000Y-112395000D01*
X128905000Y-102870000D02*
X131445000Y-100330000D01*
X165989000Y-97917000D02*
X165481000Y-98425000D01*
X149515000Y-109080000D02*
X152375000Y-109080000D01*
X166878000Y-112395000D02*
X160782000Y-112395000D01*
X152375000Y-109080000D02*
X152400000Y-109055000D01*
X165481000Y-98425000D02*
X165481000Y-105156000D01*
X131445000Y-100330000D02*
X131445000Y-98425000D01*
X168577500Y-99695000D02*
X168577500Y-98473500D01*
X159867000Y-111480000D02*
X158115000Y-111480000D01*
X167767000Y-107442000D02*
X167767000Y-111506000D01*
X132080000Y-97790000D02*
X143515000Y-97790000D01*
X131445000Y-98425000D02*
X132080000Y-97790000D01*
X168021000Y-97917000D02*
X165989000Y-97917000D01*
X158089000Y-111506000D02*
X158115000Y-111480000D01*
X165481000Y-105156000D02*
X167767000Y-107442000D01*
X155800304Y-111506000D02*
X158089000Y-111506000D01*
X128905000Y-105410000D02*
X128905000Y-102870000D01*
D25*
%TO.N,GND*%
X159652000Y-109080000D02*
X160782000Y-107950000D01*
X140855000Y-100965000D02*
X142113000Y-100965000D01*
X131572000Y-110236000D02*
X129540000Y-110236000D01*
X134244000Y-118616000D02*
X134750000Y-118110000D01*
X133655000Y-108585000D02*
X140855000Y-108585000D01*
X160782000Y-104013000D02*
X162028500Y-104013000D01*
X128905000Y-109601000D02*
X128905000Y-107950000D01*
X151384000Y-110998000D02*
X151384000Y-110388000D01*
X126238000Y-111379000D02*
X127381000Y-110236000D01*
X168656000Y-102108000D02*
X169672000Y-102108000D01*
X128905000Y-107950000D02*
X129540000Y-108585000D01*
X158115000Y-109080000D02*
X159652000Y-109080000D01*
X142113000Y-100965000D02*
X142557000Y-101409000D01*
X134686000Y-121412000D02*
X134686000Y-120904000D01*
X135890000Y-105410000D02*
X134366000Y-105410000D01*
X168552500Y-104013000D02*
X168552500Y-103227500D01*
X148322000Y-99695000D02*
X147320000Y-99695000D01*
X150469600Y-125425200D02*
X151744600Y-126700200D01*
X150876000Y-109880000D02*
X156240000Y-109880000D01*
X132969000Y-118110000D02*
X131826000Y-119253000D01*
X156240000Y-109880000D02*
X157040000Y-109080000D01*
X149926000Y-118872000D02*
X149606000Y-119192000D01*
X151384000Y-110388000D02*
X150876000Y-109880000D01*
X161163000Y-122047000D02*
X162687000Y-122047000D01*
X135890000Y-105410000D02*
X135890000Y-103735273D01*
X151384000Y-107696000D02*
X150800000Y-108280000D01*
X150800000Y-108280000D02*
X149515000Y-108280000D01*
X151744600Y-126700200D02*
X157779800Y-126700200D01*
X156977000Y-99827000D02*
X160782000Y-103632000D01*
X148440000Y-109880000D02*
X149515000Y-109880000D01*
X135890000Y-103735273D02*
X138660273Y-100965000D01*
X162687000Y-122047000D02*
X163835000Y-120899000D01*
X149926000Y-118872000D02*
X149926000Y-118147000D01*
X133655000Y-108585000D02*
X134239000Y-108585000D01*
X157779800Y-126700200D02*
X159385000Y-125095000D01*
X145606000Y-101409000D02*
X147320000Y-99695000D01*
X149606000Y-124561600D02*
X150469600Y-125425200D01*
X159385000Y-123825000D02*
X161163000Y-122047000D01*
X147955000Y-109395000D02*
X148440000Y-109880000D01*
X149926000Y-118147000D02*
X149127000Y-117348000D01*
X147955000Y-108585000D02*
X147955000Y-109395000D01*
X133655000Y-104699000D02*
X133655000Y-103505000D01*
X149606000Y-119192000D02*
X149606000Y-124561600D01*
X149515000Y-109880000D02*
X150876000Y-109880000D01*
X132461000Y-111125000D02*
X131572000Y-110236000D01*
X157040000Y-109080000D02*
X158115000Y-109080000D01*
X142557000Y-101409000D02*
X145606000Y-101409000D01*
X131318000Y-121793000D02*
X127381000Y-121793000D01*
X145914733Y-119634000D02*
X144780000Y-119634000D01*
X134239000Y-108585000D02*
X135382000Y-109728000D01*
X127381000Y-121793000D02*
X126238000Y-120650000D01*
X131826000Y-119253000D02*
X131826000Y-121285000D01*
X162028500Y-104013000D02*
X162028500Y-103897136D01*
X156977000Y-99695000D02*
X156977000Y-99827000D01*
X160782000Y-104839000D02*
X160782000Y-104013000D01*
X148260000Y-108280000D02*
X147955000Y-108585000D01*
X163835000Y-120899000D02*
X163835000Y-119380000D01*
X127381000Y-110236000D02*
X129540000Y-110236000D01*
X159385000Y-125095000D02*
X159385000Y-123825000D01*
X162028500Y-103897136D02*
X163500636Y-102425000D01*
X173990000Y-109220000D02*
X173990000Y-113030000D01*
X168402000Y-102362000D02*
X168656000Y-102108000D01*
X129540000Y-108585000D02*
X133655000Y-108585000D01*
X126238000Y-120650000D02*
X126238000Y-111379000D01*
X134244000Y-121412000D02*
X134244000Y-118616000D01*
X149515000Y-108280000D02*
X148260000Y-108280000D01*
X133655000Y-111125000D02*
X132461000Y-111125000D01*
X148200733Y-117348000D02*
X145914733Y-119634000D01*
X129540000Y-110236000D02*
X128905000Y-109601000D01*
X131826000Y-121285000D02*
X131318000Y-121793000D01*
X138660273Y-100965000D02*
X140855000Y-100965000D01*
X149127000Y-117348000D02*
X148200733Y-117348000D01*
X134366000Y-105410000D02*
X133655000Y-104699000D01*
X160782000Y-103632000D02*
X160782000Y-104013000D01*
X168552500Y-103227500D02*
X169672000Y-102108000D01*
X148590000Y-99427000D02*
X148322000Y-99695000D01*
X134750000Y-118110000D02*
X132969000Y-118110000D01*
D24*
%TO.N,Net-(U4-AREF)*%
X159918000Y-109880000D02*
X158115000Y-109880000D01*
X167132000Y-107696000D02*
X167132000Y-111252000D01*
X164973000Y-105537000D02*
X167132000Y-107696000D01*
X164084000Y-101600000D02*
X164973000Y-102489000D01*
X166624000Y-111760000D02*
X161798000Y-111760000D01*
X158877000Y-99695000D02*
X160782000Y-101600000D01*
X160782000Y-101600000D02*
X164084000Y-101600000D01*
X167132000Y-111252000D02*
X166624000Y-111760000D01*
X164973000Y-102489000D02*
X164973000Y-105537000D01*
X161798000Y-111760000D02*
X159918000Y-109880000D01*
D25*
%TO.N,/Vcc*%
X136694000Y-116813818D02*
X136694000Y-114019818D01*
X133985000Y-98425000D02*
X140335000Y-98425000D01*
X164973000Y-113030000D02*
X168402000Y-113030000D01*
X163910000Y-108886000D02*
X164846000Y-107950000D01*
X133655000Y-109855000D02*
X134002328Y-109855000D01*
X137160000Y-121412000D02*
X137668000Y-120904000D01*
X162306000Y-107950000D02*
X163068000Y-107188000D01*
X132080000Y-107315000D02*
X131445000Y-106680000D01*
X133655000Y-100965000D02*
X133655000Y-102235000D01*
X136398000Y-119634000D02*
X136398000Y-117109818D01*
X168402000Y-106910272D02*
X168402000Y-113030000D01*
X138176000Y-121412000D02*
X137668000Y-120904000D01*
X138430000Y-121412000D02*
X138176000Y-121412000D01*
X137922000Y-117094000D02*
X137922000Y-115093000D01*
X164695500Y-113307500D02*
X164973000Y-113030000D01*
X139234000Y-113834000D02*
X139700000Y-114300000D01*
X137668000Y-120904000D02*
X136398000Y-119634000D01*
X133655000Y-99695000D02*
X133655000Y-98755000D01*
X171450000Y-113030000D02*
X173990000Y-115570000D01*
X131445000Y-106680000D02*
X131445000Y-103645001D01*
X140855000Y-98945000D02*
X140855000Y-99695000D01*
X140335000Y-98425000D02*
X140855000Y-98945000D01*
X133655000Y-107315000D02*
X134036000Y-107696000D01*
X136398000Y-117109818D02*
X136694000Y-116813818D01*
X132461000Y-109855000D02*
X132080000Y-109474000D01*
X142748000Y-114300000D02*
X142851500Y-114403500D01*
X137414000Y-117602000D02*
X137922000Y-117094000D01*
X134002328Y-109855000D02*
X135399328Y-111252000D01*
X150697364Y-98904864D02*
X151487500Y-99695000D01*
X162306000Y-109220000D02*
X162306000Y-107950000D01*
X167397864Y-105906136D02*
X168402000Y-106910272D01*
X150697364Y-98881364D02*
X150697364Y-98904864D01*
X133260000Y-107710000D02*
X133655000Y-107315000D01*
X136144000Y-121412000D02*
X137160000Y-121412000D01*
X133655000Y-99695000D02*
X133655000Y-100965000D01*
X142851500Y-114403500D02*
X142851500Y-114554000D01*
X137922000Y-115093000D02*
X138715000Y-114300000D01*
X134036000Y-107696000D02*
X140474000Y-107696000D01*
X164695500Y-114300000D02*
X164695500Y-113307500D01*
X141654999Y-107315000D02*
X142851500Y-106118499D01*
X168402000Y-113030000D02*
X171450000Y-113030000D01*
X140474000Y-107696000D02*
X140855000Y-107315000D01*
X131445000Y-103645001D02*
X132855001Y-102235000D01*
X143383000Y-99695000D02*
X140855000Y-99695000D01*
X133655000Y-107315000D02*
X132080000Y-107315000D01*
X135399328Y-111252000D02*
X136652000Y-111252000D01*
X143764000Y-99314000D02*
X143383000Y-99695000D01*
X139700000Y-114300000D02*
X142748000Y-114300000D01*
X140855000Y-107315000D02*
X141654999Y-107315000D01*
X163910000Y-109855000D02*
X162941000Y-109855000D01*
X138715000Y-114300000D02*
X139700000Y-114300000D01*
X133655000Y-109855000D02*
X132461000Y-109855000D01*
X136694000Y-114019818D02*
X136879818Y-113834000D01*
X131064000Y-107710000D02*
X133260000Y-107710000D01*
X133655000Y-98755000D02*
X133985000Y-98425000D01*
X163910000Y-109855000D02*
X163910000Y-108886000D01*
X142851500Y-106118499D02*
X142851500Y-105410000D01*
X136879818Y-113834000D02*
X139234000Y-113834000D01*
X162941000Y-109855000D02*
X162306000Y-109220000D01*
X132855001Y-102235000D02*
X133655000Y-102235000D01*
D24*
%TO.N,Net-(U4-PB7)*%
X152122000Y-112522000D02*
X151880000Y-112280000D01*
X153924000Y-112522000D02*
X152122000Y-112522000D01*
X163322000Y-117221000D02*
X155575000Y-117221000D01*
X165481000Y-119380000D02*
X163322000Y-117221000D01*
X154820000Y-119380000D02*
X154820000Y-122054000D01*
X154178000Y-112268000D02*
X153924000Y-112522000D01*
X165735000Y-119380000D02*
X165481000Y-119380000D01*
X151880000Y-112280000D02*
X149515000Y-112280000D01*
X154820000Y-117976000D02*
X154820000Y-119380000D01*
X155575000Y-117221000D02*
X154820000Y-117976000D01*
X154820000Y-122054000D02*
X154940000Y-122174000D01*
%TO.N,Net-(U4-PB6)*%
X146050000Y-102870000D02*
X147063208Y-102870000D01*
X151826000Y-121600000D02*
X153162000Y-122936000D01*
X151826000Y-118872000D02*
X151826000Y-121600000D01*
X152400000Y-102108000D02*
X152400000Y-102616000D01*
X147063208Y-102870000D02*
X148545555Y-101387653D01*
X151679653Y-101387653D02*
X152400000Y-102108000D01*
X156464000Y-122936000D02*
X160020000Y-119380000D01*
X150342000Y-111480000D02*
X149515000Y-111480000D01*
X153924000Y-110705000D02*
X152806000Y-111823000D01*
X150685000Y-111823000D02*
X150342000Y-111480000D01*
X153162000Y-122936000D02*
X156464000Y-122936000D01*
X152806000Y-111823000D02*
X150685000Y-111823000D01*
X148545555Y-101387653D02*
X151679653Y-101387653D01*
X151826000Y-118872000D02*
X151826000Y-120017000D01*
X151826000Y-120017000D02*
X150431000Y-121412000D01*
%TO.N,Net-(D1-K)*%
X166624000Y-103909500D02*
X166727500Y-104013000D01*
X166702500Y-99695000D02*
X166624000Y-99773500D01*
X166624000Y-99773500D02*
X166624000Y-103909500D01*
%TO.N,/SCK*%
X158115000Y-112903000D02*
X158242000Y-113030000D01*
X163830000Y-99695000D02*
X163830000Y-98806000D01*
X168783000Y-114427000D02*
X166647500Y-114427000D01*
X162687000Y-97663000D02*
X155829000Y-97663000D01*
X164846000Y-115955552D02*
X166501552Y-114300000D01*
X158078606Y-112243606D02*
X158115000Y-112280000D01*
X140589000Y-102235000D02*
X139192000Y-103632000D01*
X140982000Y-109728000D02*
X140855000Y-109855000D01*
X142748000Y-109728000D02*
X140982000Y-109728000D01*
X154432000Y-98044000D02*
X154940000Y-98552000D01*
X170815000Y-120650000D02*
X173990000Y-120650000D01*
X166501552Y-114300000D02*
X166520500Y-114300000D01*
X154215000Y-104305000D02*
X154215000Y-105180000D01*
X154940000Y-107950000D02*
X154215000Y-107225000D01*
X139192000Y-103632000D02*
X137160000Y-103632000D01*
X158115000Y-112280000D02*
X158115000Y-112903000D01*
X166520500Y-116355500D02*
X170815000Y-120650000D01*
X163830000Y-98806000D02*
X162687000Y-97663000D01*
X153762500Y-101253500D02*
X153762500Y-103852500D01*
X149860000Y-98552000D02*
X150368000Y-98044000D01*
X140855000Y-102235000D02*
X140589000Y-102235000D01*
X166647500Y-114427000D02*
X166520500Y-114300000D01*
X154940000Y-98552000D02*
X154940000Y-100076000D01*
X149860000Y-99568002D02*
X149860000Y-98552000D01*
X149176002Y-100252000D02*
X149860000Y-99568002D01*
X153762500Y-103852500D02*
X154215000Y-104305000D01*
X139700000Y-116840000D02*
X143002000Y-116840000D01*
X168910000Y-114300000D02*
X168783000Y-114427000D01*
X146961000Y-101959000D02*
X148668000Y-100252000D01*
X166520500Y-114300000D02*
X166520500Y-116355500D01*
X160059696Y-114504999D02*
X162231452Y-114504999D01*
X169418000Y-108712000D02*
X171450000Y-106680000D01*
X155829000Y-97663000D02*
X154940000Y-98552000D01*
X169418000Y-112014000D02*
X169418000Y-108712000D01*
X154940000Y-100076000D02*
X153762500Y-101253500D01*
X154215000Y-107225000D02*
X154215000Y-105180000D01*
X138303000Y-109855000D02*
X140855000Y-109855000D01*
X141131000Y-101959000D02*
X146961000Y-101959000D01*
X156464000Y-107950000D02*
X154940000Y-107950000D01*
X148668000Y-100252000D02*
X149176002Y-100252000D01*
X162231452Y-114504999D02*
X162761256Y-115034803D01*
X156475540Y-112243606D02*
X158078606Y-112243606D01*
X138176000Y-109728000D02*
X138303000Y-109855000D01*
X140855000Y-102235000D02*
X141131000Y-101959000D01*
X150368000Y-98044000D02*
X154432000Y-98044000D01*
%TO.N,Net-(D2-K)*%
X155702000Y-101600000D02*
X159766000Y-105664000D01*
X161955000Y-99695000D02*
X160431000Y-98171000D01*
X155702000Y-98679000D02*
X155702000Y-101600000D01*
X162202500Y-105664000D02*
X163853500Y-104013000D01*
X156210000Y-98171000D02*
X155702000Y-98679000D01*
X159766000Y-105664000D02*
X162202500Y-105664000D01*
X160431000Y-98171000D02*
X156210000Y-98171000D01*
%TO.N,/SDA*%
X141236000Y-103886000D02*
X145669000Y-103886000D01*
X165735000Y-109855000D02*
X165735000Y-107315000D01*
X165735000Y-107315000D02*
X164592000Y-106172000D01*
X147953604Y-102616000D02*
X146556604Y-104013000D01*
X170434000Y-117602000D02*
X170942000Y-118110000D01*
X145796000Y-109728000D02*
X143510000Y-112014000D01*
X159512000Y-106172000D02*
X156972000Y-103632000D01*
X150631306Y-102616000D02*
X147953604Y-102616000D01*
X146556604Y-104013000D02*
X145796000Y-104013000D01*
X170942000Y-118110000D02*
X173990000Y-118110000D01*
X155015000Y-102691000D02*
X155015000Y-105180000D01*
X165735000Y-110109000D02*
X164592000Y-111252000D01*
X162315306Y-111252000D02*
X161802653Y-110739347D01*
X140855000Y-103505000D02*
X141236000Y-103886000D01*
X155563000Y-103632000D02*
X155015000Y-104180000D01*
X156972000Y-103632000D02*
X155563000Y-103632000D01*
X154686000Y-102362000D02*
X155015000Y-102691000D01*
X141744000Y-112014000D02*
X140855000Y-111125000D01*
X151134653Y-102112653D02*
X150631306Y-102616000D01*
X169672000Y-117602000D02*
X170434000Y-117602000D01*
X155015000Y-104180000D02*
X155015000Y-105180000D01*
X165735000Y-109855000D02*
X165735000Y-110109000D01*
X139700000Y-118110000D02*
X138251364Y-119558636D01*
X145669000Y-103886000D02*
X145796000Y-104013000D01*
X138251364Y-119558636D02*
X137489364Y-119558636D01*
X164592000Y-111252000D02*
X162315306Y-111252000D01*
X145796000Y-104013000D02*
X145796000Y-109728000D01*
X143510000Y-112014000D02*
X141744000Y-112014000D01*
X164592000Y-106172000D02*
X159512000Y-106172000D01*
%TO.N,/TX*%
X167767000Y-124333000D02*
X167005000Y-125095000D01*
X151430604Y-103632000D02*
X148336000Y-103632000D01*
X165576948Y-116680552D02*
X167767000Y-118870604D01*
X151815000Y-105180000D02*
X151815000Y-104016396D01*
X163767896Y-116078000D02*
X164370448Y-116680552D01*
X147527695Y-104431000D02*
X146696000Y-105262695D01*
X147537000Y-104431000D02*
X147527695Y-104431000D01*
X167767000Y-118870604D02*
X167767000Y-124333000D01*
X164370448Y-116680552D02*
X165576948Y-116680552D01*
X148336000Y-116078000D02*
X163767896Y-116078000D01*
X148336000Y-103632000D02*
X147537000Y-104431000D01*
X146696000Y-105262695D02*
X146696000Y-114438000D01*
X151815000Y-104016396D02*
X151430604Y-103632000D01*
X146696000Y-114438000D02*
X148336000Y-116078000D01*
%TO.N,/RX*%
X165481000Y-117221000D02*
X167259000Y-118999000D01*
X167259000Y-122301000D02*
X164465000Y-125095000D01*
X164274500Y-117221000D02*
X165481000Y-117221000D01*
X167259000Y-118999000D02*
X167259000Y-122301000D01*
X146246000Y-104960000D02*
X146246000Y-114624396D01*
X152615000Y-104180000D02*
X151559000Y-103124000D01*
X146246000Y-114624396D02*
X148207604Y-116586000D01*
X151559000Y-103124000D02*
X148082000Y-103124000D01*
X148082000Y-103124000D02*
X146246000Y-104960000D01*
X163639500Y-116586000D02*
X164274500Y-117221000D01*
X148207604Y-116586000D02*
X163639500Y-116586000D01*
X152615000Y-105180000D02*
X152615000Y-104180000D01*
%TO.N,/D8*%
X147929600Y-125425200D02*
X147929600Y-122840400D01*
X153416000Y-115353000D02*
X153416000Y-113781000D01*
X153416000Y-113781000D02*
X153415000Y-113780000D01*
X147929600Y-122840400D02*
X148405000Y-122365000D01*
%TO.N,/D6*%
X147757948Y-120349299D02*
X146860097Y-120349299D01*
X151815000Y-114780000D02*
X151815000Y-113780000D01*
X142849600Y-124359796D02*
X142849600Y-125425200D01*
X151242000Y-115353000D02*
X151815000Y-114780000D01*
X146860097Y-120349299D02*
X142849600Y-124359796D01*
X150114000Y-115353000D02*
X151242000Y-115353000D01*
%TO.N,/D5*%
X150241000Y-114554000D02*
X151015000Y-113780000D01*
X142055600Y-124517400D02*
X141217400Y-124517400D01*
X149352000Y-114554000D02*
X150241000Y-114554000D01*
X148373000Y-118364000D02*
X148209000Y-118364000D01*
X141217400Y-124517400D02*
X140309600Y-125425200D01*
X148209000Y-118364000D02*
X142055600Y-124517400D01*
%TO.N,/D7*%
X148781000Y-120523000D02*
X147680000Y-121624000D01*
X152400000Y-115353000D02*
X152615000Y-115138000D01*
X152615000Y-115138000D02*
X152615000Y-113780000D01*
X145389600Y-124612400D02*
X145389600Y-125425200D01*
X147680000Y-121624000D02*
X147680000Y-122322000D01*
X147680000Y-122322000D02*
X145389600Y-124612400D01*
%TO.N,/D4*%
X147790000Y-107480000D02*
X149515000Y-107480000D01*
X137769600Y-125425200D02*
X144576800Y-118618000D01*
X147574000Y-107696000D02*
X147790000Y-107480000D01*
X144576800Y-118618000D02*
X145764006Y-118618000D01*
X145764006Y-118618000D02*
X145796000Y-118586006D01*
%TO.N,/D2*%
X135178800Y-122936000D02*
X138176000Y-122936000D01*
X132689600Y-125425200D02*
X135178800Y-122936000D01*
X150991000Y-105156000D02*
X151015000Y-105180000D01*
X147828000Y-105156000D02*
X150991000Y-105156000D01*
X138176000Y-122936000D02*
X144526000Y-116586000D01*
X144526000Y-116586000D02*
X145796000Y-116586000D01*
%TO.N,/D3*%
X147421000Y-106680000D02*
X149515000Y-106680000D01*
X135229600Y-125425200D02*
X136956800Y-123698000D01*
X138430000Y-123698000D02*
X144541997Y-117586003D01*
X144541997Y-117586003D02*
X145796000Y-117586003D01*
X136956800Y-123698000D02*
X138430000Y-123698000D01*
%TO.N,/RESET*%
X153312500Y-99695000D02*
X153312500Y-105077500D01*
X172720000Y-105664000D02*
X172378772Y-105322772D01*
X167577000Y-104640810D02*
X167577000Y-102020273D01*
X172378772Y-105322772D02*
X168258962Y-105322772D01*
X168314273Y-101283000D02*
X169164000Y-101283000D01*
X154432000Y-108712000D02*
X153415000Y-107695000D01*
X153312500Y-105077500D02*
X153415000Y-105180000D01*
X153415000Y-107695000D02*
X153415000Y-105180000D01*
X168258962Y-105322772D02*
X167577000Y-104640810D01*
X154949306Y-106934000D02*
X154944653Y-106929347D01*
X156464000Y-106934000D02*
X154949306Y-106934000D01*
X167577000Y-102020273D02*
X168314273Y-101283000D01*
%TO.N,/MISO*%
X156615000Y-113780000D02*
X160540000Y-113780000D01*
X160540000Y-113780000D02*
X161036000Y-113284000D01*
%TO.N,/MOSI*%
X155815000Y-113072000D02*
X155815000Y-113780000D01*
X155075304Y-112332304D02*
X155815000Y-113072000D01*
X155075304Y-110705000D02*
X155075304Y-112332304D01*
%TO.N,Net-(U3-SQW{slash}~INT)*%
X141732000Y-115570000D02*
X139700000Y-115570000D01*
X144676500Y-114554000D02*
X144676500Y-115673500D01*
X144272000Y-116078000D02*
X142240000Y-116078000D01*
X142240000Y-116078000D02*
X141732000Y-115570000D01*
X144676500Y-115673500D02*
X144272000Y-116078000D01*
%TO.N,Net-(U3-~{INTA})*%
X143510000Y-106576500D02*
X144676500Y-105410000D01*
X142179979Y-113284000D02*
X136652000Y-113284000D01*
X142217786Y-113246193D02*
X142179979Y-113284000D01*
X136652000Y-113284000D02*
X136144000Y-113792000D01*
X136144000Y-116586000D02*
X135890000Y-116840000D01*
X143510000Y-110744000D02*
X143510000Y-106576500D01*
X135890000Y-116840000D02*
X134750000Y-116840000D01*
X136144000Y-113792000D02*
X136144000Y-116586000D01*
%TO.N,Net-(U3-X1)*%
X133429200Y-112979200D02*
X134750000Y-114300000D01*
X128981200Y-113224000D02*
X129226000Y-112979200D01*
X129226000Y-112979200D02*
X133429200Y-112979200D01*
%TO.N,Net-(U3-X2)*%
X128981200Y-117398800D02*
X130810000Y-115570000D01*
X128981200Y-118424000D02*
X128981200Y-117398800D01*
X130810000Y-115570000D02*
X134750000Y-115570000D01*
%TD*%
M02*
