M48
; DRILL file {KiCad 8.0.5} date 2025-01-15T00:39:08+0530
; FORMAT={-:-/ absolute / inch / decimal}
; #@! TF.CreationDate,2025-01-15T00:39:08+05:30
; #@! TF.GenerationSoftware,Kicad,Pcbnew,8.0.5
; #@! TF.FileFunction,Plated,1,2,PTH
FMAT,2
INCH
; #@! TA.AperFunction,Plated,PTH,ViaDrill
T1C0.0157
; #@! TA.AperFunction,Plated,PTH,ComponentDrill
T2C0.0394
%
G90
G05
T1
X5.16Y-4.2406
X5.16Y-4.83
X5.2Y-4.31
X5.2633Y-4.4213
X5.33Y-4.32
X5.35Y-4.15
X5.38Y-4.38
X5.4Y-4.08
X5.41Y-4.63
X5.413Y-4.707
X5.44Y-4.32
X5.45Y-4.78
X5.5991Y-4.4585
X5.62Y-4.32
X5.63Y-4.6
X5.65Y-4.36
X5.66Y-3.91
X5.66Y-3.96
X5.7Y-4.71
X5.74Y-4.59
X5.74Y-4.6294
X5.74Y-4.6687
X5.75Y-4.05
X5.75Y-4.8175
X5.804Y-4.2
X5.81Y-4.24
X5.8172Y-4.7382
X5.82Y-4.14
X5.8415Y-4.66
X5.8427Y-4.8175
X5.85Y-3.9144
X5.8575Y-4.745
X5.88Y-4.51
X5.91Y-4.5415
X5.9225Y-4.78
X5.933Y-3.893
X5.9502Y-4.0202
X5.96Y-4.24
X5.96Y-4.37
X6.0Y-4.04
X6.0Y-4.2935
X6.0Y-4.5415
X6.04Y-4.5415
X6.06Y-4.3585
X6.07Y-4.42
X6.08Y-4.28
X6.09Y-4.03
X6.1Y-4.81
X6.1002Y-4.2098
X6.1053Y-4.3585
X6.1339Y-4.39
X6.16Y-4.21
X6.16Y-4.25
X6.1605Y-4.419
X6.23Y-4.45
X6.3016Y-4.5081
X6.33Y-4.1275
X6.33Y-4.25
X6.34Y-4.46
X6.3702Y-4.3598
X6.4079Y-4.5289
X6.42Y-4.22
X6.437Y-4.0325
X6.49Y-4.25
X6.49Y-4.5652
X6.5905Y-4.1695
X6.63Y-4.03
X6.65Y-4.5
X6.66Y-3.9875
X6.67Y-4.41
X6.68Y-4.63
X6.8Y-4.16
T2
X5.075Y-4.15
X5.075Y-4.25
X5.224Y-4.938
X5.324Y-4.938
X5.424Y-4.938
X5.524Y-4.938
X5.624Y-4.938
X5.724Y-4.938
X5.824Y-4.938
X5.924Y-4.938
X6.024Y-4.938
X6.275Y-4.925
X6.375Y-4.925
X6.475Y-4.925
X6.575Y-4.925
X6.75Y-4.1
X6.75Y-4.2
X6.75Y-4.3
X6.85Y-4.1
X6.85Y-4.2
X6.85Y-4.3
X6.85Y-4.45
X6.85Y-4.55
X6.85Y-4.65
X6.85Y-4.75
M30
