%TF.GenerationSoftware,KiCad,Pcbnew,8.0.5*%
%TF.CreationDate,2025-01-15T00:39:03+05:30*%
%TF.ProjectId,MCU_Datalogger,4d43555f-4461-4746-916c-6f676765722e,1*%
%TF.SameCoordinates,Original*%
%TF.FileFunction,Legend,Bot*%
%TF.FilePolarity,Positive*%
%FSLAX46Y46*%
G04 Gerber Fmt 4.6, Leading zero omitted, Abs format (unit mm)*
G04 Created by KiCad (PCBNEW 8.0.5) date 2025-01-15 00:39:03*
%MOMM*%
%LPD*%
G01*
G04 APERTURE LIST*
%ADD10C,0.100000*%
%ADD11C,0.010000*%
G04 APERTURE END LIST*
D10*
X170892115Y-122046419D02*
X170892115Y-121046419D01*
X170892115Y-121046419D02*
X170654020Y-121046419D01*
X170654020Y-121046419D02*
X170511163Y-121094038D01*
X170511163Y-121094038D02*
X170415925Y-121189276D01*
X170415925Y-121189276D02*
X170368306Y-121284514D01*
X170368306Y-121284514D02*
X170320687Y-121474990D01*
X170320687Y-121474990D02*
X170320687Y-121617847D01*
X170320687Y-121617847D02*
X170368306Y-121808323D01*
X170368306Y-121808323D02*
X170415925Y-121903561D01*
X170415925Y-121903561D02*
X170511163Y-121998800D01*
X170511163Y-121998800D02*
X170654020Y-122046419D01*
X170654020Y-122046419D02*
X170892115Y-122046419D01*
X169892115Y-122046419D02*
X169892115Y-121046419D01*
X169463544Y-122046419D02*
X169463544Y-121522609D01*
X169463544Y-121522609D02*
X169511163Y-121427371D01*
X169511163Y-121427371D02*
X169606401Y-121379752D01*
X169606401Y-121379752D02*
X169749258Y-121379752D01*
X169749258Y-121379752D02*
X169844496Y-121427371D01*
X169844496Y-121427371D02*
X169892115Y-121474990D01*
X168987353Y-122046419D02*
X168987353Y-121379752D01*
X168987353Y-121570228D02*
X168939734Y-121474990D01*
X168939734Y-121474990D02*
X168892115Y-121427371D01*
X168892115Y-121427371D02*
X168796877Y-121379752D01*
X168796877Y-121379752D02*
X168701639Y-121379752D01*
X167939734Y-121379752D02*
X167939734Y-122046419D01*
X168368305Y-121379752D02*
X168368305Y-121903561D01*
X168368305Y-121903561D02*
X168320686Y-121998800D01*
X168320686Y-121998800D02*
X168225448Y-122046419D01*
X168225448Y-122046419D02*
X168082591Y-122046419D01*
X168082591Y-122046419D02*
X167987353Y-121998800D01*
X167987353Y-121998800D02*
X167939734Y-121951180D01*
X167558781Y-121379752D02*
X167320686Y-122046419D01*
X167320686Y-122046419D02*
X167082591Y-121379752D01*
X165987352Y-121998800D02*
X165844495Y-122046419D01*
X165844495Y-122046419D02*
X165606400Y-122046419D01*
X165606400Y-122046419D02*
X165511162Y-121998800D01*
X165511162Y-121998800D02*
X165463543Y-121951180D01*
X165463543Y-121951180D02*
X165415924Y-121855942D01*
X165415924Y-121855942D02*
X165415924Y-121760704D01*
X165415924Y-121760704D02*
X165463543Y-121665466D01*
X165463543Y-121665466D02*
X165511162Y-121617847D01*
X165511162Y-121617847D02*
X165606400Y-121570228D01*
X165606400Y-121570228D02*
X165796876Y-121522609D01*
X165796876Y-121522609D02*
X165892114Y-121474990D01*
X165892114Y-121474990D02*
X165939733Y-121427371D01*
X165939733Y-121427371D02*
X165987352Y-121332133D01*
X165987352Y-121332133D02*
X165987352Y-121236895D01*
X165987352Y-121236895D02*
X165939733Y-121141657D01*
X165939733Y-121141657D02*
X165892114Y-121094038D01*
X165892114Y-121094038D02*
X165796876Y-121046419D01*
X165796876Y-121046419D02*
X165558781Y-121046419D01*
X165558781Y-121046419D02*
X165415924Y-121094038D01*
X164558781Y-122046419D02*
X164558781Y-121522609D01*
X164558781Y-121522609D02*
X164606400Y-121427371D01*
X164606400Y-121427371D02*
X164701638Y-121379752D01*
X164701638Y-121379752D02*
X164892114Y-121379752D01*
X164892114Y-121379752D02*
X164987352Y-121427371D01*
X164558781Y-121998800D02*
X164654019Y-122046419D01*
X164654019Y-122046419D02*
X164892114Y-122046419D01*
X164892114Y-122046419D02*
X164987352Y-121998800D01*
X164987352Y-121998800D02*
X165034971Y-121903561D01*
X165034971Y-121903561D02*
X165034971Y-121808323D01*
X165034971Y-121808323D02*
X164987352Y-121713085D01*
X164987352Y-121713085D02*
X164892114Y-121665466D01*
X164892114Y-121665466D02*
X164654019Y-121665466D01*
X164654019Y-121665466D02*
X164558781Y-121617847D01*
X164082590Y-121379752D02*
X164082590Y-122046419D01*
X164082590Y-121474990D02*
X164034971Y-121427371D01*
X164034971Y-121427371D02*
X163939733Y-121379752D01*
X163939733Y-121379752D02*
X163796876Y-121379752D01*
X163796876Y-121379752D02*
X163701638Y-121427371D01*
X163701638Y-121427371D02*
X163654019Y-121522609D01*
X163654019Y-121522609D02*
X163654019Y-122046419D01*
X163320685Y-121379752D02*
X162939733Y-121379752D01*
X163177828Y-121046419D02*
X163177828Y-121903561D01*
X163177828Y-121903561D02*
X163130209Y-121998800D01*
X163130209Y-121998800D02*
X163034971Y-122046419D01*
X163034971Y-122046419D02*
X162939733Y-122046419D01*
X162463542Y-122046419D02*
X162558780Y-121998800D01*
X162558780Y-121998800D02*
X162606399Y-121951180D01*
X162606399Y-121951180D02*
X162654018Y-121855942D01*
X162654018Y-121855942D02*
X162654018Y-121570228D01*
X162654018Y-121570228D02*
X162606399Y-121474990D01*
X162606399Y-121474990D02*
X162558780Y-121427371D01*
X162558780Y-121427371D02*
X162463542Y-121379752D01*
X162463542Y-121379752D02*
X162320685Y-121379752D01*
X162320685Y-121379752D02*
X162225447Y-121427371D01*
X162225447Y-121427371D02*
X162177828Y-121474990D01*
X162177828Y-121474990D02*
X162130209Y-121570228D01*
X162130209Y-121570228D02*
X162130209Y-121855942D01*
X162130209Y-121855942D02*
X162177828Y-121951180D01*
X162177828Y-121951180D02*
X162225447Y-121998800D01*
X162225447Y-121998800D02*
X162320685Y-122046419D01*
X162320685Y-122046419D02*
X162463542Y-122046419D01*
X161749256Y-121998800D02*
X161654018Y-122046419D01*
X161654018Y-122046419D02*
X161463542Y-122046419D01*
X161463542Y-122046419D02*
X161368304Y-121998800D01*
X161368304Y-121998800D02*
X161320685Y-121903561D01*
X161320685Y-121903561D02*
X161320685Y-121855942D01*
X161320685Y-121855942D02*
X161368304Y-121760704D01*
X161368304Y-121760704D02*
X161463542Y-121713085D01*
X161463542Y-121713085D02*
X161606399Y-121713085D01*
X161606399Y-121713085D02*
X161701637Y-121665466D01*
X161701637Y-121665466D02*
X161749256Y-121570228D01*
X161749256Y-121570228D02*
X161749256Y-121522609D01*
X161749256Y-121522609D02*
X161701637Y-121427371D01*
X161701637Y-121427371D02*
X161606399Y-121379752D01*
X161606399Y-121379752D02*
X161463542Y-121379752D01*
X161463542Y-121379752D02*
X161368304Y-121427371D01*
X160892113Y-122046419D02*
X160892113Y-121046419D01*
X160463542Y-122046419D02*
X160463542Y-121522609D01*
X160463542Y-121522609D02*
X160511161Y-121427371D01*
X160511161Y-121427371D02*
X160606399Y-121379752D01*
X160606399Y-121379752D02*
X160749256Y-121379752D01*
X160749256Y-121379752D02*
X160844494Y-121427371D01*
X160844494Y-121427371D02*
X160892113Y-121474990D01*
X159320684Y-121046419D02*
X159082589Y-122046419D01*
X159082589Y-122046419D02*
X158892113Y-121332133D01*
X158892113Y-121332133D02*
X158701637Y-122046419D01*
X158701637Y-122046419D02*
X158463542Y-121046419D01*
X157654018Y-122046419D02*
X157654018Y-121522609D01*
X157654018Y-121522609D02*
X157701637Y-121427371D01*
X157701637Y-121427371D02*
X157796875Y-121379752D01*
X157796875Y-121379752D02*
X157987351Y-121379752D01*
X157987351Y-121379752D02*
X158082589Y-121427371D01*
X157654018Y-121998800D02*
X157749256Y-122046419D01*
X157749256Y-122046419D02*
X157987351Y-122046419D01*
X157987351Y-122046419D02*
X158082589Y-121998800D01*
X158082589Y-121998800D02*
X158130208Y-121903561D01*
X158130208Y-121903561D02*
X158130208Y-121808323D01*
X158130208Y-121808323D02*
X158082589Y-121713085D01*
X158082589Y-121713085D02*
X157987351Y-121665466D01*
X157987351Y-121665466D02*
X157749256Y-121665466D01*
X157749256Y-121665466D02*
X157654018Y-121617847D01*
X157177827Y-122046419D02*
X157177827Y-121379752D01*
X157177827Y-121570228D02*
X157130208Y-121474990D01*
X157130208Y-121474990D02*
X157082589Y-121427371D01*
X157082589Y-121427371D02*
X156987351Y-121379752D01*
X156987351Y-121379752D02*
X156892113Y-121379752D01*
X156558779Y-122046419D02*
X156558779Y-121379752D01*
X156558779Y-121046419D02*
X156606398Y-121094038D01*
X156606398Y-121094038D02*
X156558779Y-121141657D01*
X156558779Y-121141657D02*
X156511160Y-121094038D01*
X156511160Y-121094038D02*
X156558779Y-121046419D01*
X156558779Y-121046419D02*
X156558779Y-121141657D01*
X156082589Y-122046419D02*
X156082589Y-121046419D01*
X155987351Y-121665466D02*
X155701637Y-122046419D01*
X155701637Y-121379752D02*
X156082589Y-121760704D01*
X168860115Y-100284531D02*
X168860115Y-99284531D01*
X168860115Y-99284531D02*
X168526782Y-99998816D01*
X168526782Y-99998816D02*
X168193449Y-99284531D01*
X168193449Y-99284531D02*
X168193449Y-100284531D01*
X167145830Y-100189292D02*
X167193449Y-100236912D01*
X167193449Y-100236912D02*
X167336306Y-100284531D01*
X167336306Y-100284531D02*
X167431544Y-100284531D01*
X167431544Y-100284531D02*
X167574401Y-100236912D01*
X167574401Y-100236912D02*
X167669639Y-100141673D01*
X167669639Y-100141673D02*
X167717258Y-100046435D01*
X167717258Y-100046435D02*
X167764877Y-99855959D01*
X167764877Y-99855959D02*
X167764877Y-99713102D01*
X167764877Y-99713102D02*
X167717258Y-99522626D01*
X167717258Y-99522626D02*
X167669639Y-99427388D01*
X167669639Y-99427388D02*
X167574401Y-99332150D01*
X167574401Y-99332150D02*
X167431544Y-99284531D01*
X167431544Y-99284531D02*
X167336306Y-99284531D01*
X167336306Y-99284531D02*
X167193449Y-99332150D01*
X167193449Y-99332150D02*
X167145830Y-99379769D01*
X166717258Y-99284531D02*
X166717258Y-100094054D01*
X166717258Y-100094054D02*
X166669639Y-100189292D01*
X166669639Y-100189292D02*
X166622020Y-100236912D01*
X166622020Y-100236912D02*
X166526782Y-100284531D01*
X166526782Y-100284531D02*
X166336306Y-100284531D01*
X166336306Y-100284531D02*
X166241068Y-100236912D01*
X166241068Y-100236912D02*
X166193449Y-100189292D01*
X166193449Y-100189292D02*
X166145830Y-100094054D01*
X166145830Y-100094054D02*
X166145830Y-99284531D01*
X164907734Y-100284531D02*
X164907734Y-99284531D01*
X164907734Y-99284531D02*
X164669639Y-99284531D01*
X164669639Y-99284531D02*
X164526782Y-99332150D01*
X164526782Y-99332150D02*
X164431544Y-99427388D01*
X164431544Y-99427388D02*
X164383925Y-99522626D01*
X164383925Y-99522626D02*
X164336306Y-99713102D01*
X164336306Y-99713102D02*
X164336306Y-99855959D01*
X164336306Y-99855959D02*
X164383925Y-100046435D01*
X164383925Y-100046435D02*
X164431544Y-100141673D01*
X164431544Y-100141673D02*
X164526782Y-100236912D01*
X164526782Y-100236912D02*
X164669639Y-100284531D01*
X164669639Y-100284531D02*
X164907734Y-100284531D01*
X163479163Y-100284531D02*
X163479163Y-99760721D01*
X163479163Y-99760721D02*
X163526782Y-99665483D01*
X163526782Y-99665483D02*
X163622020Y-99617864D01*
X163622020Y-99617864D02*
X163812496Y-99617864D01*
X163812496Y-99617864D02*
X163907734Y-99665483D01*
X163479163Y-100236912D02*
X163574401Y-100284531D01*
X163574401Y-100284531D02*
X163812496Y-100284531D01*
X163812496Y-100284531D02*
X163907734Y-100236912D01*
X163907734Y-100236912D02*
X163955353Y-100141673D01*
X163955353Y-100141673D02*
X163955353Y-100046435D01*
X163955353Y-100046435D02*
X163907734Y-99951197D01*
X163907734Y-99951197D02*
X163812496Y-99903578D01*
X163812496Y-99903578D02*
X163574401Y-99903578D01*
X163574401Y-99903578D02*
X163479163Y-99855959D01*
X163145829Y-99617864D02*
X162764877Y-99617864D01*
X163002972Y-99284531D02*
X163002972Y-100141673D01*
X163002972Y-100141673D02*
X162955353Y-100236912D01*
X162955353Y-100236912D02*
X162860115Y-100284531D01*
X162860115Y-100284531D02*
X162764877Y-100284531D01*
X162002972Y-100284531D02*
X162002972Y-99760721D01*
X162002972Y-99760721D02*
X162050591Y-99665483D01*
X162050591Y-99665483D02*
X162145829Y-99617864D01*
X162145829Y-99617864D02*
X162336305Y-99617864D01*
X162336305Y-99617864D02*
X162431543Y-99665483D01*
X162002972Y-100236912D02*
X162098210Y-100284531D01*
X162098210Y-100284531D02*
X162336305Y-100284531D01*
X162336305Y-100284531D02*
X162431543Y-100236912D01*
X162431543Y-100236912D02*
X162479162Y-100141673D01*
X162479162Y-100141673D02*
X162479162Y-100046435D01*
X162479162Y-100046435D02*
X162431543Y-99951197D01*
X162431543Y-99951197D02*
X162336305Y-99903578D01*
X162336305Y-99903578D02*
X162098210Y-99903578D01*
X162098210Y-99903578D02*
X162002972Y-99855959D01*
X161383924Y-100284531D02*
X161479162Y-100236912D01*
X161479162Y-100236912D02*
X161526781Y-100141673D01*
X161526781Y-100141673D02*
X161526781Y-99284531D01*
X160860114Y-100284531D02*
X160955352Y-100236912D01*
X160955352Y-100236912D02*
X161002971Y-100189292D01*
X161002971Y-100189292D02*
X161050590Y-100094054D01*
X161050590Y-100094054D02*
X161050590Y-99808340D01*
X161050590Y-99808340D02*
X161002971Y-99713102D01*
X161002971Y-99713102D02*
X160955352Y-99665483D01*
X160955352Y-99665483D02*
X160860114Y-99617864D01*
X160860114Y-99617864D02*
X160717257Y-99617864D01*
X160717257Y-99617864D02*
X160622019Y-99665483D01*
X160622019Y-99665483D02*
X160574400Y-99713102D01*
X160574400Y-99713102D02*
X160526781Y-99808340D01*
X160526781Y-99808340D02*
X160526781Y-100094054D01*
X160526781Y-100094054D02*
X160574400Y-100189292D01*
X160574400Y-100189292D02*
X160622019Y-100236912D01*
X160622019Y-100236912D02*
X160717257Y-100284531D01*
X160717257Y-100284531D02*
X160860114Y-100284531D01*
X159669638Y-99617864D02*
X159669638Y-100427388D01*
X159669638Y-100427388D02*
X159717257Y-100522626D01*
X159717257Y-100522626D02*
X159764876Y-100570245D01*
X159764876Y-100570245D02*
X159860114Y-100617864D01*
X159860114Y-100617864D02*
X160002971Y-100617864D01*
X160002971Y-100617864D02*
X160098209Y-100570245D01*
X159669638Y-100236912D02*
X159764876Y-100284531D01*
X159764876Y-100284531D02*
X159955352Y-100284531D01*
X159955352Y-100284531D02*
X160050590Y-100236912D01*
X160050590Y-100236912D02*
X160098209Y-100189292D01*
X160098209Y-100189292D02*
X160145828Y-100094054D01*
X160145828Y-100094054D02*
X160145828Y-99808340D01*
X160145828Y-99808340D02*
X160098209Y-99713102D01*
X160098209Y-99713102D02*
X160050590Y-99665483D01*
X160050590Y-99665483D02*
X159955352Y-99617864D01*
X159955352Y-99617864D02*
X159764876Y-99617864D01*
X159764876Y-99617864D02*
X159669638Y-99665483D01*
X158764876Y-99617864D02*
X158764876Y-100427388D01*
X158764876Y-100427388D02*
X158812495Y-100522626D01*
X158812495Y-100522626D02*
X158860114Y-100570245D01*
X158860114Y-100570245D02*
X158955352Y-100617864D01*
X158955352Y-100617864D02*
X159098209Y-100617864D01*
X159098209Y-100617864D02*
X159193447Y-100570245D01*
X158764876Y-100236912D02*
X158860114Y-100284531D01*
X158860114Y-100284531D02*
X159050590Y-100284531D01*
X159050590Y-100284531D02*
X159145828Y-100236912D01*
X159145828Y-100236912D02*
X159193447Y-100189292D01*
X159193447Y-100189292D02*
X159241066Y-100094054D01*
X159241066Y-100094054D02*
X159241066Y-99808340D01*
X159241066Y-99808340D02*
X159193447Y-99713102D01*
X159193447Y-99713102D02*
X159145828Y-99665483D01*
X159145828Y-99665483D02*
X159050590Y-99617864D01*
X159050590Y-99617864D02*
X158860114Y-99617864D01*
X158860114Y-99617864D02*
X158764876Y-99665483D01*
X157907733Y-100236912D02*
X158002971Y-100284531D01*
X158002971Y-100284531D02*
X158193447Y-100284531D01*
X158193447Y-100284531D02*
X158288685Y-100236912D01*
X158288685Y-100236912D02*
X158336304Y-100141673D01*
X158336304Y-100141673D02*
X158336304Y-99760721D01*
X158336304Y-99760721D02*
X158288685Y-99665483D01*
X158288685Y-99665483D02*
X158193447Y-99617864D01*
X158193447Y-99617864D02*
X158002971Y-99617864D01*
X158002971Y-99617864D02*
X157907733Y-99665483D01*
X157907733Y-99665483D02*
X157860114Y-99760721D01*
X157860114Y-99760721D02*
X157860114Y-99855959D01*
X157860114Y-99855959D02*
X158336304Y-99951197D01*
X157431542Y-100284531D02*
X157431542Y-99617864D01*
X157431542Y-99808340D02*
X157383923Y-99713102D01*
X157383923Y-99713102D02*
X157336304Y-99665483D01*
X157336304Y-99665483D02*
X157241066Y-99617864D01*
X157241066Y-99617864D02*
X157145828Y-99617864D01*
X168955353Y-101227808D02*
X168764877Y-101894475D01*
X168764877Y-101894475D02*
X168574401Y-101418284D01*
X168574401Y-101418284D02*
X168383925Y-101894475D01*
X168383925Y-101894475D02*
X168193449Y-101227808D01*
X167812496Y-101894475D02*
X167812496Y-101227808D01*
X167812496Y-100894475D02*
X167860115Y-100942094D01*
X167860115Y-100942094D02*
X167812496Y-100989713D01*
X167812496Y-100989713D02*
X167764877Y-100942094D01*
X167764877Y-100942094D02*
X167812496Y-100894475D01*
X167812496Y-100894475D02*
X167812496Y-100989713D01*
X167479163Y-101227808D02*
X167098211Y-101227808D01*
X167336306Y-100894475D02*
X167336306Y-101751617D01*
X167336306Y-101751617D02*
X167288687Y-101846856D01*
X167288687Y-101846856D02*
X167193449Y-101894475D01*
X167193449Y-101894475D02*
X167098211Y-101894475D01*
X166764877Y-101894475D02*
X166764877Y-100894475D01*
X166336306Y-101894475D02*
X166336306Y-101370665D01*
X166336306Y-101370665D02*
X166383925Y-101275427D01*
X166383925Y-101275427D02*
X166479163Y-101227808D01*
X166479163Y-101227808D02*
X166622020Y-101227808D01*
X166622020Y-101227808D02*
X166717258Y-101275427D01*
X166717258Y-101275427D02*
X166764877Y-101323046D01*
X165098210Y-101370665D02*
X164764877Y-101370665D01*
X164622020Y-101894475D02*
X165098210Y-101894475D01*
X165098210Y-101894475D02*
X165098210Y-100894475D01*
X165098210Y-100894475D02*
X164622020Y-100894475D01*
X164193448Y-101370665D02*
X163860115Y-101370665D01*
X163717258Y-101894475D02*
X164193448Y-101894475D01*
X164193448Y-101894475D02*
X164193448Y-100894475D01*
X164193448Y-100894475D02*
X163717258Y-100894475D01*
X163288686Y-101894475D02*
X163288686Y-100894475D01*
X163288686Y-100894475D02*
X162907734Y-100894475D01*
X162907734Y-100894475D02*
X162812496Y-100942094D01*
X162812496Y-100942094D02*
X162764877Y-100989713D01*
X162764877Y-100989713D02*
X162717258Y-101084951D01*
X162717258Y-101084951D02*
X162717258Y-101227808D01*
X162717258Y-101227808D02*
X162764877Y-101323046D01*
X162764877Y-101323046D02*
X162812496Y-101370665D01*
X162812496Y-101370665D02*
X162907734Y-101418284D01*
X162907734Y-101418284D02*
X163288686Y-101418284D01*
X161717258Y-101894475D02*
X162050591Y-101418284D01*
X162288686Y-101894475D02*
X162288686Y-100894475D01*
X162288686Y-100894475D02*
X161907734Y-100894475D01*
X161907734Y-100894475D02*
X161812496Y-100942094D01*
X161812496Y-100942094D02*
X161764877Y-100989713D01*
X161764877Y-100989713D02*
X161717258Y-101084951D01*
X161717258Y-101084951D02*
X161717258Y-101227808D01*
X161717258Y-101227808D02*
X161764877Y-101323046D01*
X161764877Y-101323046D02*
X161812496Y-101370665D01*
X161812496Y-101370665D02*
X161907734Y-101418284D01*
X161907734Y-101418284D02*
X162288686Y-101418284D01*
X161098210Y-100894475D02*
X160907734Y-100894475D01*
X160907734Y-100894475D02*
X160812496Y-100942094D01*
X160812496Y-100942094D02*
X160717258Y-101037332D01*
X160717258Y-101037332D02*
X160669639Y-101227808D01*
X160669639Y-101227808D02*
X160669639Y-101561141D01*
X160669639Y-101561141D02*
X160717258Y-101751617D01*
X160717258Y-101751617D02*
X160812496Y-101846856D01*
X160812496Y-101846856D02*
X160907734Y-101894475D01*
X160907734Y-101894475D02*
X161098210Y-101894475D01*
X161098210Y-101894475D02*
X161193448Y-101846856D01*
X161193448Y-101846856D02*
X161288686Y-101751617D01*
X161288686Y-101751617D02*
X161336305Y-101561141D01*
X161336305Y-101561141D02*
X161336305Y-101227808D01*
X161336305Y-101227808D02*
X161288686Y-101037332D01*
X161288686Y-101037332D02*
X161193448Y-100942094D01*
X161193448Y-100942094D02*
X161098210Y-100894475D01*
X160241067Y-101894475D02*
X160241067Y-100894475D01*
X160241067Y-100894475D02*
X159907734Y-101608760D01*
X159907734Y-101608760D02*
X159574401Y-100894475D01*
X159574401Y-100894475D02*
X159574401Y-101894475D01*
X168431544Y-103504419D02*
X168431544Y-102980609D01*
X168431544Y-102980609D02*
X168479163Y-102885371D01*
X168479163Y-102885371D02*
X168574401Y-102837752D01*
X168574401Y-102837752D02*
X168764877Y-102837752D01*
X168764877Y-102837752D02*
X168860115Y-102885371D01*
X168431544Y-103456800D02*
X168526782Y-103504419D01*
X168526782Y-103504419D02*
X168764877Y-103504419D01*
X168764877Y-103504419D02*
X168860115Y-103456800D01*
X168860115Y-103456800D02*
X168907734Y-103361561D01*
X168907734Y-103361561D02*
X168907734Y-103266323D01*
X168907734Y-103266323D02*
X168860115Y-103171085D01*
X168860115Y-103171085D02*
X168764877Y-103123466D01*
X168764877Y-103123466D02*
X168526782Y-103123466D01*
X168526782Y-103123466D02*
X168431544Y-103075847D01*
X167955353Y-102837752D02*
X167955353Y-103504419D01*
X167955353Y-102932990D02*
X167907734Y-102885371D01*
X167907734Y-102885371D02*
X167812496Y-102837752D01*
X167812496Y-102837752D02*
X167669639Y-102837752D01*
X167669639Y-102837752D02*
X167574401Y-102885371D01*
X167574401Y-102885371D02*
X167526782Y-102980609D01*
X167526782Y-102980609D02*
X167526782Y-103504419D01*
X166622020Y-103504419D02*
X166622020Y-102504419D01*
X166622020Y-103456800D02*
X166717258Y-103504419D01*
X166717258Y-103504419D02*
X166907734Y-103504419D01*
X166907734Y-103504419D02*
X167002972Y-103456800D01*
X167002972Y-103456800D02*
X167050591Y-103409180D01*
X167050591Y-103409180D02*
X167098210Y-103313942D01*
X167098210Y-103313942D02*
X167098210Y-103028228D01*
X167098210Y-103028228D02*
X167050591Y-102932990D01*
X167050591Y-102932990D02*
X167002972Y-102885371D01*
X167002972Y-102885371D02*
X166907734Y-102837752D01*
X166907734Y-102837752D02*
X166717258Y-102837752D01*
X166717258Y-102837752D02*
X166622020Y-102885371D01*
X164812496Y-103409180D02*
X164860115Y-103456800D01*
X164860115Y-103456800D02*
X165002972Y-103504419D01*
X165002972Y-103504419D02*
X165098210Y-103504419D01*
X165098210Y-103504419D02*
X165241067Y-103456800D01*
X165241067Y-103456800D02*
X165336305Y-103361561D01*
X165336305Y-103361561D02*
X165383924Y-103266323D01*
X165383924Y-103266323D02*
X165431543Y-103075847D01*
X165431543Y-103075847D02*
X165431543Y-102932990D01*
X165431543Y-102932990D02*
X165383924Y-102742514D01*
X165383924Y-102742514D02*
X165336305Y-102647276D01*
X165336305Y-102647276D02*
X165241067Y-102552038D01*
X165241067Y-102552038D02*
X165098210Y-102504419D01*
X165098210Y-102504419D02*
X165002972Y-102504419D01*
X165002972Y-102504419D02*
X164860115Y-102552038D01*
X164860115Y-102552038D02*
X164812496Y-102599657D01*
X164241067Y-103504419D02*
X164336305Y-103456800D01*
X164336305Y-103456800D02*
X164383924Y-103361561D01*
X164383924Y-103361561D02*
X164383924Y-102504419D01*
X163717257Y-103504419D02*
X163812495Y-103456800D01*
X163812495Y-103456800D02*
X163860114Y-103409180D01*
X163860114Y-103409180D02*
X163907733Y-103313942D01*
X163907733Y-103313942D02*
X163907733Y-103028228D01*
X163907733Y-103028228D02*
X163860114Y-102932990D01*
X163860114Y-102932990D02*
X163812495Y-102885371D01*
X163812495Y-102885371D02*
X163717257Y-102837752D01*
X163717257Y-102837752D02*
X163574400Y-102837752D01*
X163574400Y-102837752D02*
X163479162Y-102885371D01*
X163479162Y-102885371D02*
X163431543Y-102932990D01*
X163431543Y-102932990D02*
X163383924Y-103028228D01*
X163383924Y-103028228D02*
X163383924Y-103313942D01*
X163383924Y-103313942D02*
X163431543Y-103409180D01*
X163431543Y-103409180D02*
X163479162Y-103456800D01*
X163479162Y-103456800D02*
X163574400Y-103504419D01*
X163574400Y-103504419D02*
X163717257Y-103504419D01*
X162526781Y-103456800D02*
X162622019Y-103504419D01*
X162622019Y-103504419D02*
X162812495Y-103504419D01*
X162812495Y-103504419D02*
X162907733Y-103456800D01*
X162907733Y-103456800D02*
X162955352Y-103409180D01*
X162955352Y-103409180D02*
X163002971Y-103313942D01*
X163002971Y-103313942D02*
X163002971Y-103028228D01*
X163002971Y-103028228D02*
X162955352Y-102932990D01*
X162955352Y-102932990D02*
X162907733Y-102885371D01*
X162907733Y-102885371D02*
X162812495Y-102837752D01*
X162812495Y-102837752D02*
X162622019Y-102837752D01*
X162622019Y-102837752D02*
X162526781Y-102885371D01*
X162098209Y-103504419D02*
X162098209Y-102504419D01*
X162002971Y-103123466D02*
X161717257Y-103504419D01*
X161717257Y-102837752D02*
X162098209Y-103218704D01*
D11*
%TO.C,REF\u002A\u002A*%
X132761406Y-102350949D02*
X132787127Y-102366647D01*
X132813778Y-102388227D01*
X132813778Y-103035684D01*
X132787127Y-103057264D01*
X132755767Y-103074739D01*
X132719966Y-103075575D01*
X132688528Y-103055082D01*
X132684652Y-103050416D01*
X132679186Y-103040949D01*
X132674979Y-103027267D01*
X132671867Y-103006748D01*
X132669687Y-102976768D01*
X132668276Y-102934704D01*
X132667471Y-102877932D01*
X132667107Y-102803830D01*
X132667022Y-102709773D01*
X132667022Y-102388227D01*
X132693673Y-102366647D01*
X132717386Y-102351877D01*
X132740400Y-102345067D01*
X132761406Y-102350949D01*
G36*
X132761406Y-102350949D02*
G01*
X132787127Y-102366647D01*
X132813778Y-102388227D01*
X132813778Y-103035684D01*
X132787127Y-103057264D01*
X132755767Y-103074739D01*
X132719966Y-103075575D01*
X132688528Y-103055082D01*
X132684652Y-103050416D01*
X132679186Y-103040949D01*
X132674979Y-103027267D01*
X132671867Y-103006748D01*
X132669687Y-102976768D01*
X132668276Y-102934704D01*
X132667471Y-102877932D01*
X132667107Y-102803830D01*
X132667022Y-102709773D01*
X132667022Y-102388227D01*
X132693673Y-102366647D01*
X132717386Y-102351877D01*
X132740400Y-102345067D01*
X132761406Y-102350949D01*
G37*
X139892137Y-102349463D02*
X139926291Y-102372776D01*
X139954000Y-102400485D01*
X139954000Y-102713537D01*
X139953959Y-102797567D01*
X139953701Y-102871789D01*
X139953030Y-102928541D01*
X139951752Y-102970512D01*
X139949673Y-103000389D01*
X139946599Y-103020861D01*
X139942334Y-103034614D01*
X139936684Y-103044337D01*
X139929455Y-103052717D01*
X139897991Y-103074181D01*
X139862826Y-103075947D01*
X139829822Y-103056267D01*
X139824516Y-103050398D01*
X139819066Y-103041314D01*
X139814900Y-103027973D01*
X139811846Y-103007757D01*
X139809732Y-102978049D01*
X139808386Y-102936232D01*
X139807638Y-102879689D01*
X139807314Y-102805802D01*
X139807245Y-102711956D01*
X139807284Y-102636294D01*
X139807539Y-102558385D01*
X139808183Y-102498375D01*
X139809387Y-102453648D01*
X139811324Y-102421585D01*
X139814164Y-102399571D01*
X139818079Y-102384987D01*
X139823242Y-102375218D01*
X139829822Y-102367645D01*
X139859006Y-102348623D01*
X139892137Y-102349463D01*
G36*
X139892137Y-102349463D02*
G01*
X139926291Y-102372776D01*
X139954000Y-102400485D01*
X139954000Y-102713537D01*
X139953959Y-102797567D01*
X139953701Y-102871789D01*
X139953030Y-102928541D01*
X139951752Y-102970512D01*
X139949673Y-103000389D01*
X139946599Y-103020861D01*
X139942334Y-103034614D01*
X139936684Y-103044337D01*
X139929455Y-103052717D01*
X139897991Y-103074181D01*
X139862826Y-103075947D01*
X139829822Y-103056267D01*
X139824516Y-103050398D01*
X139819066Y-103041314D01*
X139814900Y-103027973D01*
X139811846Y-103007757D01*
X139809732Y-102978049D01*
X139808386Y-102936232D01*
X139807638Y-102879689D01*
X139807314Y-102805802D01*
X139807245Y-102711956D01*
X139807284Y-102636294D01*
X139807539Y-102558385D01*
X139808183Y-102498375D01*
X139809387Y-102453648D01*
X139811324Y-102421585D01*
X139814164Y-102399571D01*
X139818079Y-102384987D01*
X139823242Y-102375218D01*
X139829822Y-102367645D01*
X139859006Y-102348623D01*
X139892137Y-102349463D01*
G37*
X139360562Y-97108850D02*
X139443313Y-97136053D01*
X139518406Y-97181484D01*
X139590298Y-97247302D01*
X139628846Y-97291567D01*
X139668256Y-97349961D01*
X139693446Y-97410586D01*
X139706861Y-97479865D01*
X139710948Y-97564222D01*
X139710669Y-97610307D01*
X139708460Y-97651450D01*
X139702894Y-97683582D01*
X139692586Y-97714122D01*
X139676148Y-97750489D01*
X139662200Y-97777728D01*
X139603665Y-97863429D01*
X139531619Y-97932617D01*
X139447947Y-97983741D01*
X139354531Y-98015250D01*
X139321434Y-98022225D01*
X139280960Y-98029094D01*
X139247999Y-98030919D01*
X139213698Y-98027947D01*
X139169200Y-98020426D01*
X139117934Y-98008002D01*
X139027434Y-97970112D01*
X138948345Y-97915836D01*
X138882528Y-97847770D01*
X138831840Y-97768511D01*
X138798140Y-97680654D01*
X138783286Y-97586795D01*
X138789136Y-97489530D01*
X138815399Y-97393220D01*
X138860418Y-97304494D01*
X138921373Y-97229419D01*
X138996184Y-97169641D01*
X139082768Y-97126809D01*
X139179043Y-97102571D01*
X139282928Y-97098576D01*
X139360562Y-97108850D01*
G36*
X139360562Y-97108850D02*
G01*
X139443313Y-97136053D01*
X139518406Y-97181484D01*
X139590298Y-97247302D01*
X139628846Y-97291567D01*
X139668256Y-97349961D01*
X139693446Y-97410586D01*
X139706861Y-97479865D01*
X139710948Y-97564222D01*
X139710669Y-97610307D01*
X139708460Y-97651450D01*
X139702894Y-97683582D01*
X139692586Y-97714122D01*
X139676148Y-97750489D01*
X139662200Y-97777728D01*
X139603665Y-97863429D01*
X139531619Y-97932617D01*
X139447947Y-97983741D01*
X139354531Y-98015250D01*
X139321434Y-98022225D01*
X139280960Y-98029094D01*
X139247999Y-98030919D01*
X139213698Y-98027947D01*
X139169200Y-98020426D01*
X139117934Y-98008002D01*
X139027434Y-97970112D01*
X138948345Y-97915836D01*
X138882528Y-97847770D01*
X138831840Y-97768511D01*
X138798140Y-97680654D01*
X138783286Y-97586795D01*
X138789136Y-97489530D01*
X138815399Y-97393220D01*
X138860418Y-97304494D01*
X138921373Y-97229419D01*
X138996184Y-97169641D01*
X139082768Y-97126809D01*
X139179043Y-97102571D01*
X139282928Y-97098576D01*
X139360562Y-97108850D01*
G37*
X132061767Y-102345068D02*
X132155890Y-102345158D01*
X132230405Y-102345498D01*
X132287811Y-102346239D01*
X132330611Y-102347535D01*
X132361304Y-102349537D01*
X132382391Y-102352396D01*
X132396373Y-102356266D01*
X132405750Y-102361298D01*
X132413022Y-102367645D01*
X132431828Y-102400362D01*
X132433275Y-102437939D01*
X132416917Y-102471178D01*
X132415557Y-102472631D01*
X132404354Y-102480992D01*
X132387252Y-102486547D01*
X132360082Y-102489840D01*
X132318678Y-102491418D01*
X132258873Y-102491822D01*
X132119511Y-102491822D01*
X132119511Y-102755589D01*
X132119436Y-102831417D01*
X132119028Y-102898083D01*
X132118046Y-102947867D01*
X132116250Y-102983784D01*
X132113399Y-103008850D01*
X132109253Y-103026081D01*
X132103571Y-103038492D01*
X132096114Y-103049100D01*
X132093824Y-103051906D01*
X132062646Y-103074548D01*
X132028266Y-103076112D01*
X131995334Y-103056267D01*
X131988355Y-103048191D01*
X131982883Y-103037593D01*
X131978863Y-103021749D01*
X131976072Y-102997773D01*
X131974288Y-102962774D01*
X131973289Y-102913864D01*
X131972852Y-102848154D01*
X131972756Y-102762756D01*
X131972756Y-102491822D01*
X131826820Y-102491822D01*
X131815720Y-102491821D01*
X131759202Y-102491596D01*
X131720358Y-102490457D01*
X131694965Y-102487657D01*
X131678804Y-102482450D01*
X131667652Y-102474089D01*
X131657289Y-102461826D01*
X131641441Y-102431138D01*
X131644543Y-102397358D01*
X131670187Y-102364822D01*
X131675129Y-102361105D01*
X131685338Y-102356269D01*
X131700764Y-102352506D01*
X131723886Y-102349683D01*
X131757183Y-102347670D01*
X131803137Y-102346333D01*
X131864228Y-102345542D01*
X131942935Y-102345163D01*
X132041740Y-102345067D01*
X132061767Y-102345068D01*
G36*
X132061767Y-102345068D02*
G01*
X132155890Y-102345158D01*
X132230405Y-102345498D01*
X132287811Y-102346239D01*
X132330611Y-102347535D01*
X132361304Y-102349537D01*
X132382391Y-102352396D01*
X132396373Y-102356266D01*
X132405750Y-102361298D01*
X132413022Y-102367645D01*
X132431828Y-102400362D01*
X132433275Y-102437939D01*
X132416917Y-102471178D01*
X132415557Y-102472631D01*
X132404354Y-102480992D01*
X132387252Y-102486547D01*
X132360082Y-102489840D01*
X132318678Y-102491418D01*
X132258873Y-102491822D01*
X132119511Y-102491822D01*
X132119511Y-102755589D01*
X132119436Y-102831417D01*
X132119028Y-102898083D01*
X132118046Y-102947867D01*
X132116250Y-102983784D01*
X132113399Y-103008850D01*
X132109253Y-103026081D01*
X132103571Y-103038492D01*
X132096114Y-103049100D01*
X132093824Y-103051906D01*
X132062646Y-103074548D01*
X132028266Y-103076112D01*
X131995334Y-103056267D01*
X131988355Y-103048191D01*
X131982883Y-103037593D01*
X131978863Y-103021749D01*
X131976072Y-102997773D01*
X131974288Y-102962774D01*
X131973289Y-102913864D01*
X131972852Y-102848154D01*
X131972756Y-102762756D01*
X131972756Y-102491822D01*
X131826820Y-102491822D01*
X131815720Y-102491821D01*
X131759202Y-102491596D01*
X131720358Y-102490457D01*
X131694965Y-102487657D01*
X131678804Y-102482450D01*
X131667652Y-102474089D01*
X131657289Y-102461826D01*
X131641441Y-102431138D01*
X131644543Y-102397358D01*
X131670187Y-102364822D01*
X131675129Y-102361105D01*
X131685338Y-102356269D01*
X131700764Y-102352506D01*
X131723886Y-102349683D01*
X131757183Y-102347670D01*
X131803137Y-102346333D01*
X131864228Y-102345542D01*
X131942935Y-102345163D01*
X132041740Y-102345067D01*
X132061767Y-102345068D01*
G37*
X131385734Y-102367645D02*
X131391366Y-102373835D01*
X131396456Y-102382041D01*
X131400543Y-102393817D01*
X131403721Y-102411276D01*
X131406087Y-102436530D01*
X131407738Y-102471690D01*
X131408769Y-102518869D01*
X131409277Y-102580177D01*
X131409359Y-102657727D01*
X131409109Y-102753631D01*
X131408625Y-102870000D01*
X131408557Y-102884175D01*
X131407971Y-102945937D01*
X131406648Y-102989620D01*
X131404103Y-103019001D01*
X131399848Y-103037855D01*
X131393396Y-103049959D01*
X131384262Y-103059089D01*
X131350804Y-103076506D01*
X131315856Y-103073604D01*
X131284953Y-103049100D01*
X131275944Y-103035897D01*
X131268492Y-103017361D01*
X131264124Y-102991333D01*
X131262069Y-102952787D01*
X131261556Y-102896700D01*
X131261556Y-102774045D01*
X130764845Y-102774045D01*
X130764845Y-102908871D01*
X130764772Y-102944662D01*
X130764009Y-102990992D01*
X130761833Y-103021526D01*
X130757536Y-103040557D01*
X130750412Y-103052374D01*
X130739755Y-103061271D01*
X130707504Y-103076341D01*
X130672217Y-103073673D01*
X130641486Y-103049100D01*
X130636831Y-103042845D01*
X130630895Y-103032321D01*
X130626364Y-103018391D01*
X130623048Y-102998317D01*
X130620759Y-102969360D01*
X130619308Y-102928780D01*
X130618505Y-102873840D01*
X130618162Y-102801799D01*
X130618089Y-102709920D01*
X130618089Y-102400485D01*
X130645798Y-102372776D01*
X130677177Y-102350533D01*
X130710406Y-102347844D01*
X130742267Y-102367645D01*
X130750553Y-102377415D01*
X130757965Y-102393307D01*
X130762302Y-102417275D01*
X130764338Y-102454148D01*
X130764845Y-102508756D01*
X130764845Y-102627289D01*
X131261556Y-102627289D01*
X131261556Y-102511776D01*
X131261994Y-102460078D01*
X131263958Y-102425554D01*
X131268474Y-102402978D01*
X131276567Y-102387126D01*
X131289265Y-102372776D01*
X131320643Y-102350533D01*
X131353872Y-102347844D01*
X131385734Y-102367645D01*
G36*
X131385734Y-102367645D02*
G01*
X131391366Y-102373835D01*
X131396456Y-102382041D01*
X131400543Y-102393817D01*
X131403721Y-102411276D01*
X131406087Y-102436530D01*
X131407738Y-102471690D01*
X131408769Y-102518869D01*
X131409277Y-102580177D01*
X131409359Y-102657727D01*
X131409109Y-102753631D01*
X131408625Y-102870000D01*
X131408557Y-102884175D01*
X131407971Y-102945937D01*
X131406648Y-102989620D01*
X131404103Y-103019001D01*
X131399848Y-103037855D01*
X131393396Y-103049959D01*
X131384262Y-103059089D01*
X131350804Y-103076506D01*
X131315856Y-103073604D01*
X131284953Y-103049100D01*
X131275944Y-103035897D01*
X131268492Y-103017361D01*
X131264124Y-102991333D01*
X131262069Y-102952787D01*
X131261556Y-102896700D01*
X131261556Y-102774045D01*
X130764845Y-102774045D01*
X130764845Y-102908871D01*
X130764772Y-102944662D01*
X130764009Y-102990992D01*
X130761833Y-103021526D01*
X130757536Y-103040557D01*
X130750412Y-103052374D01*
X130739755Y-103061271D01*
X130707504Y-103076341D01*
X130672217Y-103073673D01*
X130641486Y-103049100D01*
X130636831Y-103042845D01*
X130630895Y-103032321D01*
X130626364Y-103018391D01*
X130623048Y-102998317D01*
X130620759Y-102969360D01*
X130619308Y-102928780D01*
X130618505Y-102873840D01*
X130618162Y-102801799D01*
X130618089Y-102709920D01*
X130618089Y-102400485D01*
X130645798Y-102372776D01*
X130677177Y-102350533D01*
X130710406Y-102347844D01*
X130742267Y-102367645D01*
X130750553Y-102377415D01*
X130757965Y-102393307D01*
X130762302Y-102417275D01*
X130764338Y-102454148D01*
X130764845Y-102508756D01*
X130764845Y-102627289D01*
X131261556Y-102627289D01*
X131261556Y-102511776D01*
X131261994Y-102460078D01*
X131263958Y-102425554D01*
X131268474Y-102402978D01*
X131276567Y-102387126D01*
X131289265Y-102372776D01*
X131320643Y-102350533D01*
X131353872Y-102347844D01*
X131385734Y-102367645D01*
G37*
X136091133Y-102956396D02*
X136089163Y-102989175D01*
X136086235Y-103012095D01*
X136082158Y-103027897D01*
X136076743Y-103039319D01*
X136069803Y-103049100D01*
X136046406Y-103078845D01*
X135880714Y-103078251D01*
X135845918Y-103077953D01*
X135747435Y-103074522D01*
X135666473Y-103066839D01*
X135599379Y-103054282D01*
X135542496Y-103036227D01*
X135492169Y-103012052D01*
X135488810Y-103010135D01*
X135430998Y-102973417D01*
X135388644Y-102936451D01*
X135355828Y-102892966D01*
X135326628Y-102836689D01*
X135322346Y-102827073D01*
X135299769Y-102763887D01*
X135294034Y-102718333D01*
X135443279Y-102718333D01*
X135448892Y-102743061D01*
X135454618Y-102758939D01*
X135487548Y-102818847D01*
X135534886Y-102864600D01*
X135598652Y-102897736D01*
X135680861Y-102919790D01*
X135683655Y-102920292D01*
X135729940Y-102926255D01*
X135786336Y-102930483D01*
X135841274Y-102932089D01*
X135935156Y-102932089D01*
X135935156Y-102491822D01*
X135847667Y-102492270D01*
X135780747Y-102494746D01*
X135688349Y-102505998D01*
X135609034Y-102525537D01*
X135547060Y-102552511D01*
X135516120Y-102573240D01*
X135488000Y-102603006D01*
X135464660Y-102645434D01*
X135457533Y-102661400D01*
X135445709Y-102693902D01*
X135443279Y-102718333D01*
X135294034Y-102718333D01*
X135292797Y-102708509D01*
X135301399Y-102653483D01*
X135325541Y-102591351D01*
X135326337Y-102589658D01*
X135366788Y-102520236D01*
X135417473Y-102463638D01*
X135480198Y-102419070D01*
X135556774Y-102385741D01*
X135649009Y-102362861D01*
X135758712Y-102349636D01*
X135887691Y-102345275D01*
X135891263Y-102345270D01*
X135951283Y-102345410D01*
X135993214Y-102346446D01*
X136021328Y-102349040D01*
X136039897Y-102353853D01*
X136053194Y-102361544D01*
X136065491Y-102372776D01*
X136093200Y-102400485D01*
X136093200Y-102709920D01*
X136093175Y-102771526D01*
X136092950Y-102850311D01*
X136092332Y-102911021D01*
X136091775Y-102932089D01*
X136091133Y-102956396D01*
G36*
X136091133Y-102956396D02*
G01*
X136089163Y-102989175D01*
X136086235Y-103012095D01*
X136082158Y-103027897D01*
X136076743Y-103039319D01*
X136069803Y-103049100D01*
X136046406Y-103078845D01*
X135880714Y-103078251D01*
X135845918Y-103077953D01*
X135747435Y-103074522D01*
X135666473Y-103066839D01*
X135599379Y-103054282D01*
X135542496Y-103036227D01*
X135492169Y-103012052D01*
X135488810Y-103010135D01*
X135430998Y-102973417D01*
X135388644Y-102936451D01*
X135355828Y-102892966D01*
X135326628Y-102836689D01*
X135322346Y-102827073D01*
X135299769Y-102763887D01*
X135294034Y-102718333D01*
X135443279Y-102718333D01*
X135448892Y-102743061D01*
X135454618Y-102758939D01*
X135487548Y-102818847D01*
X135534886Y-102864600D01*
X135598652Y-102897736D01*
X135680861Y-102919790D01*
X135683655Y-102920292D01*
X135729940Y-102926255D01*
X135786336Y-102930483D01*
X135841274Y-102932089D01*
X135935156Y-102932089D01*
X135935156Y-102491822D01*
X135847667Y-102492270D01*
X135780747Y-102494746D01*
X135688349Y-102505998D01*
X135609034Y-102525537D01*
X135547060Y-102552511D01*
X135516120Y-102573240D01*
X135488000Y-102603006D01*
X135464660Y-102645434D01*
X135457533Y-102661400D01*
X135445709Y-102693902D01*
X135443279Y-102718333D01*
X135294034Y-102718333D01*
X135292797Y-102708509D01*
X135301399Y-102653483D01*
X135325541Y-102591351D01*
X135326337Y-102589658D01*
X135366788Y-102520236D01*
X135417473Y-102463638D01*
X135480198Y-102419070D01*
X135556774Y-102385741D01*
X135649009Y-102362861D01*
X135758712Y-102349636D01*
X135887691Y-102345275D01*
X135891263Y-102345270D01*
X135951283Y-102345410D01*
X135993214Y-102346446D01*
X136021328Y-102349040D01*
X136039897Y-102353853D01*
X136053194Y-102361544D01*
X136065491Y-102372776D01*
X136093200Y-102400485D01*
X136093200Y-102709920D01*
X136093175Y-102771526D01*
X136092950Y-102850311D01*
X136092332Y-102911021D01*
X136091775Y-102932089D01*
X136091133Y-102956396D01*
G37*
X143182817Y-102530427D02*
X143182870Y-102611041D01*
X143182622Y-102711956D01*
X143182583Y-102787617D01*
X143182328Y-102865526D01*
X143181684Y-102925536D01*
X143180480Y-102970264D01*
X143178543Y-103002326D01*
X143175703Y-103024340D01*
X143171788Y-103038924D01*
X143166626Y-103048694D01*
X143160045Y-103056267D01*
X143153077Y-103062501D01*
X143140079Y-103069801D01*
X143120931Y-103074554D01*
X143091528Y-103077292D01*
X143047762Y-103078545D01*
X142985528Y-103078845D01*
X142936582Y-103078469D01*
X142829722Y-103074041D01*
X142740494Y-103063953D01*
X142665696Y-103047365D01*
X142602125Y-103023435D01*
X142546579Y-102991321D01*
X142495854Y-102950182D01*
X142489866Y-102944330D01*
X142452999Y-102895821D01*
X142421899Y-102835013D01*
X142400417Y-102770769D01*
X142395136Y-102732026D01*
X142542353Y-102732026D01*
X142560635Y-102782961D01*
X142590305Y-102828878D01*
X142637002Y-102871287D01*
X142698392Y-102901090D01*
X142777538Y-102920226D01*
X142779028Y-102920464D01*
X142827999Y-102926256D01*
X142886693Y-102930396D01*
X142942734Y-102932004D01*
X143035867Y-102932089D01*
X143035867Y-102491822D01*
X142959667Y-102491808D01*
X142956639Y-102491817D01*
X142905519Y-102493782D01*
X142845416Y-102498507D01*
X142788708Y-102505035D01*
X142738750Y-102514331D01*
X142663998Y-102540600D01*
X142606489Y-102579899D01*
X142564988Y-102632933D01*
X142543771Y-102684200D01*
X142542353Y-102732026D01*
X142395136Y-102732026D01*
X142392400Y-102711956D01*
X142393679Y-102690739D01*
X142405991Y-102633323D01*
X142428520Y-102573413D01*
X142457750Y-102519363D01*
X142490167Y-102479532D01*
X142509708Y-102462510D01*
X142564420Y-102423322D01*
X142624723Y-102393193D01*
X142693919Y-102371232D01*
X142775311Y-102356550D01*
X142872200Y-102348259D01*
X142987889Y-102345467D01*
X143027371Y-102345066D01*
X143073082Y-102344653D01*
X143108883Y-102346457D01*
X143135974Y-102352739D01*
X143155556Y-102365759D01*
X143168830Y-102387778D01*
X143176998Y-102421055D01*
X143181260Y-102467851D01*
X143181857Y-102491822D01*
X143182817Y-102530427D01*
G36*
X143182817Y-102530427D02*
G01*
X143182870Y-102611041D01*
X143182622Y-102711956D01*
X143182583Y-102787617D01*
X143182328Y-102865526D01*
X143181684Y-102925536D01*
X143180480Y-102970264D01*
X143178543Y-103002326D01*
X143175703Y-103024340D01*
X143171788Y-103038924D01*
X143166626Y-103048694D01*
X143160045Y-103056267D01*
X143153077Y-103062501D01*
X143140079Y-103069801D01*
X143120931Y-103074554D01*
X143091528Y-103077292D01*
X143047762Y-103078545D01*
X142985528Y-103078845D01*
X142936582Y-103078469D01*
X142829722Y-103074041D01*
X142740494Y-103063953D01*
X142665696Y-103047365D01*
X142602125Y-103023435D01*
X142546579Y-102991321D01*
X142495854Y-102950182D01*
X142489866Y-102944330D01*
X142452999Y-102895821D01*
X142421899Y-102835013D01*
X142400417Y-102770769D01*
X142395136Y-102732026D01*
X142542353Y-102732026D01*
X142560635Y-102782961D01*
X142590305Y-102828878D01*
X142637002Y-102871287D01*
X142698392Y-102901090D01*
X142777538Y-102920226D01*
X142779028Y-102920464D01*
X142827999Y-102926256D01*
X142886693Y-102930396D01*
X142942734Y-102932004D01*
X143035867Y-102932089D01*
X143035867Y-102491822D01*
X142959667Y-102491808D01*
X142956639Y-102491817D01*
X142905519Y-102493782D01*
X142845416Y-102498507D01*
X142788708Y-102505035D01*
X142738750Y-102514331D01*
X142663998Y-102540600D01*
X142606489Y-102579899D01*
X142564988Y-102632933D01*
X142543771Y-102684200D01*
X142542353Y-102732026D01*
X142395136Y-102732026D01*
X142392400Y-102711956D01*
X142393679Y-102690739D01*
X142405991Y-102633323D01*
X142428520Y-102573413D01*
X142457750Y-102519363D01*
X142490167Y-102479532D01*
X142509708Y-102462510D01*
X142564420Y-102423322D01*
X142624723Y-102393193D01*
X142693919Y-102371232D01*
X142775311Y-102356550D01*
X142872200Y-102348259D01*
X142987889Y-102345467D01*
X143027371Y-102345066D01*
X143073082Y-102344653D01*
X143108883Y-102346457D01*
X143135974Y-102352739D01*
X143155556Y-102365759D01*
X143168830Y-102387778D01*
X143176998Y-102421055D01*
X143181260Y-102467851D01*
X143181857Y-102491822D01*
X143182817Y-102530427D01*
G37*
X138237893Y-102343892D02*
X138249301Y-102350029D01*
X138259850Y-102360691D01*
X138271136Y-102374811D01*
X138275589Y-102380772D01*
X138281588Y-102391268D01*
X138286167Y-102405093D01*
X138289519Y-102424998D01*
X138291833Y-102453732D01*
X138293301Y-102494045D01*
X138294113Y-102548687D01*
X138294460Y-102620407D01*
X138294534Y-102711956D01*
X138294511Y-102770486D01*
X138294292Y-102849573D01*
X138293683Y-102910516D01*
X138292492Y-102956062D01*
X138290529Y-102988963D01*
X138287603Y-103011968D01*
X138283523Y-103027826D01*
X138278097Y-103039286D01*
X138271136Y-103049100D01*
X138240708Y-103073493D01*
X138205765Y-103076372D01*
X138168784Y-103057282D01*
X138164600Y-103053807D01*
X138156424Y-103045279D01*
X138150364Y-103033728D01*
X138145981Y-103015896D01*
X138142839Y-102988524D01*
X138140502Y-102948354D01*
X138138531Y-102892128D01*
X138136489Y-102816589D01*
X138130845Y-102597458D01*
X137865556Y-102838099D01*
X137791722Y-102904875D01*
X137726542Y-102962991D01*
X137674348Y-103007949D01*
X137633273Y-103040871D01*
X137601455Y-103062879D01*
X137577026Y-103075094D01*
X137558124Y-103078639D01*
X137542883Y-103074636D01*
X137529439Y-103064207D01*
X137515927Y-103048474D01*
X137509682Y-103039991D01*
X137504050Y-103029413D01*
X137499839Y-103015255D01*
X137496887Y-102994803D01*
X137495032Y-102965342D01*
X137494113Y-102924161D01*
X137493968Y-102868544D01*
X137494435Y-102795779D01*
X137495352Y-102703151D01*
X137498667Y-102388199D01*
X137525318Y-102366633D01*
X137551383Y-102350441D01*
X137584241Y-102347670D01*
X137618772Y-102366623D01*
X137623084Y-102370208D01*
X137631216Y-102378737D01*
X137637245Y-102390329D01*
X137641606Y-102408235D01*
X137644734Y-102435706D01*
X137647063Y-102475994D01*
X137649029Y-102532351D01*
X137651067Y-102608029D01*
X137656711Y-102827878D01*
X137837334Y-102664084D01*
X137924072Y-102585451D01*
X137999843Y-102517058D01*
X138061980Y-102461708D01*
X138112078Y-102418338D01*
X138151735Y-102385881D01*
X138182548Y-102363273D01*
X138206114Y-102349448D01*
X138224030Y-102343343D01*
X138237893Y-102343892D01*
G36*
X138237893Y-102343892D02*
G01*
X138249301Y-102350029D01*
X138259850Y-102360691D01*
X138271136Y-102374811D01*
X138275589Y-102380772D01*
X138281588Y-102391268D01*
X138286167Y-102405093D01*
X138289519Y-102424998D01*
X138291833Y-102453732D01*
X138293301Y-102494045D01*
X138294113Y-102548687D01*
X138294460Y-102620407D01*
X138294534Y-102711956D01*
X138294511Y-102770486D01*
X138294292Y-102849573D01*
X138293683Y-102910516D01*
X138292492Y-102956062D01*
X138290529Y-102988963D01*
X138287603Y-103011968D01*
X138283523Y-103027826D01*
X138278097Y-103039286D01*
X138271136Y-103049100D01*
X138240708Y-103073493D01*
X138205765Y-103076372D01*
X138168784Y-103057282D01*
X138164600Y-103053807D01*
X138156424Y-103045279D01*
X138150364Y-103033728D01*
X138145981Y-103015896D01*
X138142839Y-102988524D01*
X138140502Y-102948354D01*
X138138531Y-102892128D01*
X138136489Y-102816589D01*
X138130845Y-102597458D01*
X137865556Y-102838099D01*
X137791722Y-102904875D01*
X137726542Y-102962991D01*
X137674348Y-103007949D01*
X137633273Y-103040871D01*
X137601455Y-103062879D01*
X137577026Y-103075094D01*
X137558124Y-103078639D01*
X137542883Y-103074636D01*
X137529439Y-103064207D01*
X137515927Y-103048474D01*
X137509682Y-103039991D01*
X137504050Y-103029413D01*
X137499839Y-103015255D01*
X137496887Y-102994803D01*
X137495032Y-102965342D01*
X137494113Y-102924161D01*
X137493968Y-102868544D01*
X137494435Y-102795779D01*
X137495352Y-102703151D01*
X137498667Y-102388199D01*
X137525318Y-102366633D01*
X137551383Y-102350441D01*
X137584241Y-102347670D01*
X137618772Y-102366623D01*
X137623084Y-102370208D01*
X137631216Y-102378737D01*
X137637245Y-102390329D01*
X137641606Y-102408235D01*
X137644734Y-102435706D01*
X137647063Y-102475994D01*
X137649029Y-102532351D01*
X137651067Y-102608029D01*
X137656711Y-102827878D01*
X137837334Y-102664084D01*
X137924072Y-102585451D01*
X137999843Y-102517058D01*
X138061980Y-102461708D01*
X138112078Y-102418338D01*
X138151735Y-102385881D01*
X138182548Y-102363273D01*
X138206114Y-102349448D01*
X138224030Y-102343343D01*
X138237893Y-102343892D01*
G37*
X139035150Y-102350179D02*
X139141157Y-102366494D01*
X139234969Y-102394545D01*
X139313765Y-102433452D01*
X139374719Y-102482334D01*
X139400789Y-102515195D01*
X139430297Y-102564394D01*
X139455568Y-102618252D01*
X139473218Y-102669419D01*
X139479858Y-102710544D01*
X139478298Y-102730259D01*
X139465357Y-102781592D01*
X139442194Y-102838118D01*
X139412302Y-102892035D01*
X139379173Y-102935539D01*
X139368977Y-102945887D01*
X139301892Y-102997662D01*
X139221766Y-103037554D01*
X139135556Y-103061956D01*
X139080592Y-103070068D01*
X138987139Y-103076673D01*
X138897358Y-103074586D01*
X138814869Y-103064340D01*
X138743286Y-103046470D01*
X138686228Y-103021508D01*
X138647311Y-102989988D01*
X138645936Y-102988012D01*
X138638848Y-102962786D01*
X138634609Y-102915535D01*
X138633200Y-102846071D01*
X138634060Y-102783838D01*
X138638780Y-102736456D01*
X138650470Y-102704353D01*
X138672239Y-102684800D01*
X138707198Y-102675070D01*
X138758456Y-102672433D01*
X138829123Y-102674161D01*
X138877743Y-102677173D01*
X138927939Y-102685366D01*
X138960433Y-102699419D01*
X138977892Y-102720654D01*
X138982983Y-102750394D01*
X138982877Y-102754936D01*
X138974175Y-102789730D01*
X138950165Y-102813147D01*
X138908900Y-102826347D01*
X138848431Y-102830489D01*
X138779956Y-102830489D01*
X138779956Y-102868841D01*
X138780006Y-102877976D01*
X138782227Y-102895227D01*
X138791494Y-102905521D01*
X138812875Y-102912459D01*
X138851436Y-102919641D01*
X138856910Y-102920575D01*
X138953860Y-102930478D01*
X139043852Y-102927559D01*
X139124760Y-102912829D01*
X139194459Y-102887299D01*
X139250824Y-102851978D01*
X139291729Y-102807879D01*
X139315051Y-102756012D01*
X139318663Y-102697388D01*
X139313145Y-102668494D01*
X139286461Y-102612604D01*
X139240273Y-102566945D01*
X139175291Y-102532108D01*
X139092229Y-102508690D01*
X139067555Y-102504241D01*
X138978226Y-102493742D01*
X138898419Y-102494971D01*
X138820326Y-102507906D01*
X138785183Y-102514696D01*
X138739745Y-102515713D01*
X138708430Y-102503182D01*
X138688277Y-102476395D01*
X138681893Y-102448148D01*
X138691379Y-102416924D01*
X138700708Y-102403499D01*
X138734943Y-102379967D01*
X138787565Y-102362095D01*
X138856081Y-102350599D01*
X138938000Y-102346192D01*
X139035150Y-102350179D01*
G36*
X139035150Y-102350179D02*
G01*
X139141157Y-102366494D01*
X139234969Y-102394545D01*
X139313765Y-102433452D01*
X139374719Y-102482334D01*
X139400789Y-102515195D01*
X139430297Y-102564394D01*
X139455568Y-102618252D01*
X139473218Y-102669419D01*
X139479858Y-102710544D01*
X139478298Y-102730259D01*
X139465357Y-102781592D01*
X139442194Y-102838118D01*
X139412302Y-102892035D01*
X139379173Y-102935539D01*
X139368977Y-102945887D01*
X139301892Y-102997662D01*
X139221766Y-103037554D01*
X139135556Y-103061956D01*
X139080592Y-103070068D01*
X138987139Y-103076673D01*
X138897358Y-103074586D01*
X138814869Y-103064340D01*
X138743286Y-103046470D01*
X138686228Y-103021508D01*
X138647311Y-102989988D01*
X138645936Y-102988012D01*
X138638848Y-102962786D01*
X138634609Y-102915535D01*
X138633200Y-102846071D01*
X138634060Y-102783838D01*
X138638780Y-102736456D01*
X138650470Y-102704353D01*
X138672239Y-102684800D01*
X138707198Y-102675070D01*
X138758456Y-102672433D01*
X138829123Y-102674161D01*
X138877743Y-102677173D01*
X138927939Y-102685366D01*
X138960433Y-102699419D01*
X138977892Y-102720654D01*
X138982983Y-102750394D01*
X138982877Y-102754936D01*
X138974175Y-102789730D01*
X138950165Y-102813147D01*
X138908900Y-102826347D01*
X138848431Y-102830489D01*
X138779956Y-102830489D01*
X138779956Y-102868841D01*
X138780006Y-102877976D01*
X138782227Y-102895227D01*
X138791494Y-102905521D01*
X138812875Y-102912459D01*
X138851436Y-102919641D01*
X138856910Y-102920575D01*
X138953860Y-102930478D01*
X139043852Y-102927559D01*
X139124760Y-102912829D01*
X139194459Y-102887299D01*
X139250824Y-102851978D01*
X139291729Y-102807879D01*
X139315051Y-102756012D01*
X139318663Y-102697388D01*
X139313145Y-102668494D01*
X139286461Y-102612604D01*
X139240273Y-102566945D01*
X139175291Y-102532108D01*
X139092229Y-102508690D01*
X139067555Y-102504241D01*
X138978226Y-102493742D01*
X138898419Y-102494971D01*
X138820326Y-102507906D01*
X138785183Y-102514696D01*
X138739745Y-102515713D01*
X138708430Y-102503182D01*
X138688277Y-102476395D01*
X138681893Y-102448148D01*
X138691379Y-102416924D01*
X138700708Y-102403499D01*
X138734943Y-102379967D01*
X138787565Y-102362095D01*
X138856081Y-102350599D01*
X138938000Y-102346192D01*
X139035150Y-102350179D01*
G37*
X137085803Y-102374811D02*
X137090752Y-102381495D01*
X137096596Y-102392066D01*
X137101057Y-102406153D01*
X137104321Y-102426478D01*
X137106574Y-102455765D01*
X137108002Y-102496737D01*
X137108792Y-102552117D01*
X137109129Y-102624628D01*
X137109200Y-102716994D01*
X137109171Y-102782911D01*
X137108939Y-102861228D01*
X137108319Y-102921496D01*
X137107126Y-102966393D01*
X137105179Y-102998602D01*
X137102294Y-103020800D01*
X137098288Y-103035669D01*
X137092979Y-103045889D01*
X137086183Y-103054138D01*
X137081668Y-103058795D01*
X137073438Y-103065282D01*
X137062078Y-103070194D01*
X137044810Y-103073749D01*
X137018855Y-103076167D01*
X136981436Y-103077667D01*
X136929773Y-103078467D01*
X136861089Y-103078787D01*
X136772606Y-103078845D01*
X136752931Y-103078838D01*
X136665906Y-103078572D01*
X136598254Y-103077806D01*
X136547299Y-103076392D01*
X136510367Y-103074180D01*
X136484783Y-103071022D01*
X136467871Y-103066769D01*
X136456957Y-103061271D01*
X136446464Y-103051285D01*
X136433203Y-103020168D01*
X136434386Y-102984280D01*
X136450550Y-102952733D01*
X136452739Y-102950457D01*
X136461427Y-102944189D01*
X136474769Y-102939523D01*
X136495752Y-102936227D01*
X136527363Y-102934068D01*
X136572590Y-102932814D01*
X136634420Y-102932231D01*
X136715839Y-102932089D01*
X136962445Y-102932089D01*
X136962445Y-102774045D01*
X136800006Y-102774045D01*
X136764338Y-102773964D01*
X136708568Y-102773167D01*
X136669430Y-102771162D01*
X136642976Y-102767521D01*
X136625259Y-102761812D01*
X136612329Y-102753607D01*
X136608686Y-102750423D01*
X136590278Y-102719448D01*
X136589644Y-102683112D01*
X136607183Y-102649493D01*
X136607245Y-102649424D01*
X136616916Y-102640798D01*
X136630209Y-102634742D01*
X136650917Y-102630811D01*
X136682828Y-102628556D01*
X136729734Y-102627531D01*
X136795424Y-102627289D01*
X136963571Y-102627289D01*
X136960186Y-102562378D01*
X136956800Y-102497467D01*
X136714723Y-102494414D01*
X136689707Y-102494086D01*
X136608087Y-102492606D01*
X136545768Y-102490222D01*
X136500154Y-102486227D01*
X136468652Y-102479913D01*
X136448667Y-102470574D01*
X136437604Y-102457503D01*
X136432869Y-102439992D01*
X136431867Y-102417335D01*
X136431873Y-102414970D01*
X136433027Y-102394939D01*
X136437824Y-102379146D01*
X136448632Y-102367090D01*
X136467817Y-102358267D01*
X136497745Y-102352175D01*
X136540783Y-102348311D01*
X136599299Y-102346174D01*
X136675657Y-102345260D01*
X136772226Y-102345067D01*
X137062406Y-102345067D01*
X137085803Y-102374811D01*
G36*
X137085803Y-102374811D02*
G01*
X137090752Y-102381495D01*
X137096596Y-102392066D01*
X137101057Y-102406153D01*
X137104321Y-102426478D01*
X137106574Y-102455765D01*
X137108002Y-102496737D01*
X137108792Y-102552117D01*
X137109129Y-102624628D01*
X137109200Y-102716994D01*
X137109171Y-102782911D01*
X137108939Y-102861228D01*
X137108319Y-102921496D01*
X137107126Y-102966393D01*
X137105179Y-102998602D01*
X137102294Y-103020800D01*
X137098288Y-103035669D01*
X137092979Y-103045889D01*
X137086183Y-103054138D01*
X137081668Y-103058795D01*
X137073438Y-103065282D01*
X137062078Y-103070194D01*
X137044810Y-103073749D01*
X137018855Y-103076167D01*
X136981436Y-103077667D01*
X136929773Y-103078467D01*
X136861089Y-103078787D01*
X136772606Y-103078845D01*
X136752931Y-103078838D01*
X136665906Y-103078572D01*
X136598254Y-103077806D01*
X136547299Y-103076392D01*
X136510367Y-103074180D01*
X136484783Y-103071022D01*
X136467871Y-103066769D01*
X136456957Y-103061271D01*
X136446464Y-103051285D01*
X136433203Y-103020168D01*
X136434386Y-102984280D01*
X136450550Y-102952733D01*
X136452739Y-102950457D01*
X136461427Y-102944189D01*
X136474769Y-102939523D01*
X136495752Y-102936227D01*
X136527363Y-102934068D01*
X136572590Y-102932814D01*
X136634420Y-102932231D01*
X136715839Y-102932089D01*
X136962445Y-102932089D01*
X136962445Y-102774045D01*
X136800006Y-102774045D01*
X136764338Y-102773964D01*
X136708568Y-102773167D01*
X136669430Y-102771162D01*
X136642976Y-102767521D01*
X136625259Y-102761812D01*
X136612329Y-102753607D01*
X136608686Y-102750423D01*
X136590278Y-102719448D01*
X136589644Y-102683112D01*
X136607183Y-102649493D01*
X136607245Y-102649424D01*
X136616916Y-102640798D01*
X136630209Y-102634742D01*
X136650917Y-102630811D01*
X136682828Y-102628556D01*
X136729734Y-102627531D01*
X136795424Y-102627289D01*
X136963571Y-102627289D01*
X136960186Y-102562378D01*
X136956800Y-102497467D01*
X136714723Y-102494414D01*
X136689707Y-102494086D01*
X136608087Y-102492606D01*
X136545768Y-102490222D01*
X136500154Y-102486227D01*
X136468652Y-102479913D01*
X136448667Y-102470574D01*
X136437604Y-102457503D01*
X136432869Y-102439992D01*
X136431867Y-102417335D01*
X136431873Y-102414970D01*
X136433027Y-102394939D01*
X136437824Y-102379146D01*
X136448632Y-102367090D01*
X136467817Y-102358267D01*
X136497745Y-102352175D01*
X136540783Y-102348311D01*
X136599299Y-102346174D01*
X136675657Y-102345260D01*
X136772226Y-102345067D01*
X137062406Y-102345067D01*
X137085803Y-102374811D01*
G37*
X141762734Y-102345083D02*
X141839831Y-102345275D01*
X141898777Y-102345860D01*
X141942364Y-102347051D01*
X141973383Y-102349064D01*
X141994625Y-102352112D01*
X142008882Y-102356409D01*
X142018945Y-102362172D01*
X142027606Y-102369612D01*
X142029391Y-102371293D01*
X142036635Y-102378832D01*
X142042277Y-102387850D01*
X142046517Y-102400984D01*
X142049556Y-102420872D01*
X142051594Y-102450151D01*
X142052830Y-102491458D01*
X142053465Y-102547431D01*
X142053700Y-102620707D01*
X142053734Y-102713923D01*
X142053697Y-102786713D01*
X142053448Y-102864889D01*
X142052812Y-102925103D01*
X142051615Y-102969982D01*
X142049684Y-103002152D01*
X142046846Y-103024239D01*
X142042927Y-103038870D01*
X142037755Y-103048670D01*
X142031156Y-103056267D01*
X142027822Y-103059444D01*
X142019300Y-103065554D01*
X142007298Y-103070229D01*
X141989087Y-103073659D01*
X141961940Y-103076036D01*
X141923129Y-103077552D01*
X141869924Y-103078398D01*
X141799598Y-103078765D01*
X141709422Y-103078845D01*
X141667314Y-103078833D01*
X141586167Y-103078651D01*
X141523675Y-103078098D01*
X141477109Y-103076982D01*
X141443741Y-103075113D01*
X141420844Y-103072298D01*
X141405688Y-103068346D01*
X141395546Y-103063066D01*
X141387689Y-103056267D01*
X141372963Y-103034667D01*
X141365111Y-103005467D01*
X141370610Y-102981560D01*
X141387689Y-102954667D01*
X141392668Y-102950059D01*
X141402443Y-102943772D01*
X141416559Y-102939146D01*
X141438054Y-102935930D01*
X141469968Y-102933870D01*
X141515342Y-102932712D01*
X141577213Y-102932202D01*
X141658622Y-102932089D01*
X141906978Y-102932089D01*
X141906978Y-102774045D01*
X141745801Y-102774045D01*
X141709983Y-102773899D01*
X141644359Y-102772176D01*
X141597118Y-102767741D01*
X141565383Y-102759637D01*
X141546277Y-102746906D01*
X141536923Y-102728592D01*
X141534445Y-102703738D01*
X141535242Y-102683482D01*
X141540494Y-102661656D01*
X141553288Y-102646304D01*
X141576628Y-102636309D01*
X141613517Y-102630553D01*
X141666959Y-102627919D01*
X141739958Y-102627289D01*
X141908105Y-102627289D01*
X141904719Y-102562378D01*
X141901334Y-102497467D01*
X141653617Y-102494418D01*
X141591026Y-102493539D01*
X141522565Y-102492095D01*
X141471661Y-102490164D01*
X141435408Y-102487514D01*
X141410901Y-102483910D01*
X141395235Y-102479121D01*
X141385506Y-102472913D01*
X141379491Y-102466510D01*
X141366482Y-102434828D01*
X141370043Y-102399142D01*
X141389818Y-102368084D01*
X141393069Y-102365161D01*
X141402049Y-102358810D01*
X141414153Y-102353957D01*
X141432159Y-102350403D01*
X141458847Y-102347946D01*
X141496997Y-102346385D01*
X141549386Y-102345518D01*
X141618794Y-102345146D01*
X141708001Y-102345067D01*
X141762734Y-102345083D01*
G36*
X141762734Y-102345083D02*
G01*
X141839831Y-102345275D01*
X141898777Y-102345860D01*
X141942364Y-102347051D01*
X141973383Y-102349064D01*
X141994625Y-102352112D01*
X142008882Y-102356409D01*
X142018945Y-102362172D01*
X142027606Y-102369612D01*
X142029391Y-102371293D01*
X142036635Y-102378832D01*
X142042277Y-102387850D01*
X142046517Y-102400984D01*
X142049556Y-102420872D01*
X142051594Y-102450151D01*
X142052830Y-102491458D01*
X142053465Y-102547431D01*
X142053700Y-102620707D01*
X142053734Y-102713923D01*
X142053697Y-102786713D01*
X142053448Y-102864889D01*
X142052812Y-102925103D01*
X142051615Y-102969982D01*
X142049684Y-103002152D01*
X142046846Y-103024239D01*
X142042927Y-103038870D01*
X142037755Y-103048670D01*
X142031156Y-103056267D01*
X142027822Y-103059444D01*
X142019300Y-103065554D01*
X142007298Y-103070229D01*
X141989087Y-103073659D01*
X141961940Y-103076036D01*
X141923129Y-103077552D01*
X141869924Y-103078398D01*
X141799598Y-103078765D01*
X141709422Y-103078845D01*
X141667314Y-103078833D01*
X141586167Y-103078651D01*
X141523675Y-103078098D01*
X141477109Y-103076982D01*
X141443741Y-103075113D01*
X141420844Y-103072298D01*
X141405688Y-103068346D01*
X141395546Y-103063066D01*
X141387689Y-103056267D01*
X141372963Y-103034667D01*
X141365111Y-103005467D01*
X141370610Y-102981560D01*
X141387689Y-102954667D01*
X141392668Y-102950059D01*
X141402443Y-102943772D01*
X141416559Y-102939146D01*
X141438054Y-102935930D01*
X141469968Y-102933870D01*
X141515342Y-102932712D01*
X141577213Y-102932202D01*
X141658622Y-102932089D01*
X141906978Y-102932089D01*
X141906978Y-102774045D01*
X141745801Y-102774045D01*
X141709983Y-102773899D01*
X141644359Y-102772176D01*
X141597118Y-102767741D01*
X141565383Y-102759637D01*
X141546277Y-102746906D01*
X141536923Y-102728592D01*
X141534445Y-102703738D01*
X141535242Y-102683482D01*
X141540494Y-102661656D01*
X141553288Y-102646304D01*
X141576628Y-102636309D01*
X141613517Y-102630553D01*
X141666959Y-102627919D01*
X141739958Y-102627289D01*
X141908105Y-102627289D01*
X141904719Y-102562378D01*
X141901334Y-102497467D01*
X141653617Y-102494418D01*
X141591026Y-102493539D01*
X141522565Y-102492095D01*
X141471661Y-102490164D01*
X141435408Y-102487514D01*
X141410901Y-102483910D01*
X141395235Y-102479121D01*
X141385506Y-102472913D01*
X141379491Y-102466510D01*
X141366482Y-102434828D01*
X141370043Y-102399142D01*
X141389818Y-102368084D01*
X141393069Y-102365161D01*
X141402049Y-102358810D01*
X141414153Y-102353957D01*
X141432159Y-102350403D01*
X141458847Y-102347946D01*
X141496997Y-102346385D01*
X141549386Y-102345518D01*
X141618794Y-102345146D01*
X141708001Y-102345067D01*
X141762734Y-102345083D01*
G37*
X133195702Y-102354478D02*
X133213663Y-102372989D01*
X133234263Y-102404071D01*
X133259095Y-102449756D01*
X133289750Y-102512078D01*
X133327820Y-102593071D01*
X133342454Y-102624454D01*
X133372203Y-102687638D01*
X133398297Y-102742244D01*
X133419292Y-102785290D01*
X133433739Y-102813793D01*
X133440191Y-102824770D01*
X133441550Y-102824189D01*
X133451542Y-102810242D01*
X133468833Y-102780704D01*
X133491430Y-102739087D01*
X133517338Y-102688903D01*
X133533311Y-102657414D01*
X133562261Y-102602061D01*
X133584749Y-102563044D01*
X133602965Y-102537566D01*
X133619096Y-102522831D01*
X133635330Y-102516042D01*
X133653857Y-102514400D01*
X133664360Y-102514875D01*
X133680476Y-102519082D01*
X133695790Y-102529946D01*
X133712388Y-102550219D01*
X133732357Y-102582654D01*
X133757783Y-102630004D01*
X133790752Y-102695022D01*
X133800485Y-102714277D01*
X133824943Y-102760946D01*
X133845178Y-102797109D01*
X133859311Y-102819497D01*
X133865460Y-102824845D01*
X133866827Y-102821573D01*
X133876202Y-102800664D01*
X133893062Y-102763725D01*
X133915979Y-102713874D01*
X133943520Y-102654226D01*
X133974255Y-102587898D01*
X134000970Y-102530677D01*
X134030593Y-102468688D01*
X134053664Y-102422949D01*
X134071643Y-102390908D01*
X134085990Y-102370014D01*
X134098166Y-102357718D01*
X134109632Y-102351466D01*
X134119042Y-102348574D01*
X134144147Y-102348425D01*
X134171290Y-102363768D01*
X134172590Y-102364753D01*
X134194674Y-102387388D01*
X134205723Y-102409613D01*
X134205769Y-102410253D01*
X134201228Y-102427915D01*
X134188364Y-102462481D01*
X134168605Y-102510826D01*
X134143381Y-102569825D01*
X134114119Y-102636355D01*
X134082250Y-102707291D01*
X134049201Y-102779507D01*
X134016401Y-102849880D01*
X133985280Y-102915285D01*
X133957265Y-102972597D01*
X133933786Y-103018692D01*
X133916272Y-103050446D01*
X133906151Y-103064733D01*
X133871743Y-103078102D01*
X133830046Y-103071741D01*
X133824681Y-103067044D01*
X133808852Y-103044893D01*
X133786650Y-103008132D01*
X133760233Y-102960415D01*
X133731760Y-102905393D01*
X133651986Y-102746150D01*
X133578799Y-102892742D01*
X133569103Y-102912032D01*
X133542125Y-102964380D01*
X133518096Y-103009170D01*
X133499332Y-103042154D01*
X133488146Y-103059089D01*
X133487000Y-103060332D01*
X133458879Y-103075619D01*
X133423817Y-103077302D01*
X133392776Y-103064733D01*
X133390350Y-103061884D01*
X133378090Y-103041259D01*
X133358352Y-103003708D01*
X133332448Y-102951880D01*
X133301685Y-102888423D01*
X133267375Y-102815985D01*
X133230825Y-102737216D01*
X133210585Y-102693093D01*
X133173812Y-102612365D01*
X133145355Y-102548687D01*
X133124331Y-102499752D01*
X133109854Y-102463257D01*
X133101039Y-102436895D01*
X133097004Y-102418361D01*
X133096862Y-102405352D01*
X133099730Y-102395561D01*
X133114387Y-102374678D01*
X133140990Y-102354377D01*
X133141745Y-102354035D01*
X133161335Y-102347034D01*
X133178790Y-102346504D01*
X133195702Y-102354478D01*
G36*
X133195702Y-102354478D02*
G01*
X133213663Y-102372989D01*
X133234263Y-102404071D01*
X133259095Y-102449756D01*
X133289750Y-102512078D01*
X133327820Y-102593071D01*
X133342454Y-102624454D01*
X133372203Y-102687638D01*
X133398297Y-102742244D01*
X133419292Y-102785290D01*
X133433739Y-102813793D01*
X133440191Y-102824770D01*
X133441550Y-102824189D01*
X133451542Y-102810242D01*
X133468833Y-102780704D01*
X133491430Y-102739087D01*
X133517338Y-102688903D01*
X133533311Y-102657414D01*
X133562261Y-102602061D01*
X133584749Y-102563044D01*
X133602965Y-102537566D01*
X133619096Y-102522831D01*
X133635330Y-102516042D01*
X133653857Y-102514400D01*
X133664360Y-102514875D01*
X133680476Y-102519082D01*
X133695790Y-102529946D01*
X133712388Y-102550219D01*
X133732357Y-102582654D01*
X133757783Y-102630004D01*
X133790752Y-102695022D01*
X133800485Y-102714277D01*
X133824943Y-102760946D01*
X133845178Y-102797109D01*
X133859311Y-102819497D01*
X133865460Y-102824845D01*
X133866827Y-102821573D01*
X133876202Y-102800664D01*
X133893062Y-102763725D01*
X133915979Y-102713874D01*
X133943520Y-102654226D01*
X133974255Y-102587898D01*
X134000970Y-102530677D01*
X134030593Y-102468688D01*
X134053664Y-102422949D01*
X134071643Y-102390908D01*
X134085990Y-102370014D01*
X134098166Y-102357718D01*
X134109632Y-102351466D01*
X134119042Y-102348574D01*
X134144147Y-102348425D01*
X134171290Y-102363768D01*
X134172590Y-102364753D01*
X134194674Y-102387388D01*
X134205723Y-102409613D01*
X134205769Y-102410253D01*
X134201228Y-102427915D01*
X134188364Y-102462481D01*
X134168605Y-102510826D01*
X134143381Y-102569825D01*
X134114119Y-102636355D01*
X134082250Y-102707291D01*
X134049201Y-102779507D01*
X134016401Y-102849880D01*
X133985280Y-102915285D01*
X133957265Y-102972597D01*
X133933786Y-103018692D01*
X133916272Y-103050446D01*
X133906151Y-103064733D01*
X133871743Y-103078102D01*
X133830046Y-103071741D01*
X133824681Y-103067044D01*
X133808852Y-103044893D01*
X133786650Y-103008132D01*
X133760233Y-102960415D01*
X133731760Y-102905393D01*
X133651986Y-102746150D01*
X133578799Y-102892742D01*
X133569103Y-102912032D01*
X133542125Y-102964380D01*
X133518096Y-103009170D01*
X133499332Y-103042154D01*
X133488146Y-103059089D01*
X133487000Y-103060332D01*
X133458879Y-103075619D01*
X133423817Y-103077302D01*
X133392776Y-103064733D01*
X133390350Y-103061884D01*
X133378090Y-103041259D01*
X133358352Y-103003708D01*
X133332448Y-102951880D01*
X133301685Y-102888423D01*
X133267375Y-102815985D01*
X133230825Y-102737216D01*
X133210585Y-102693093D01*
X133173812Y-102612365D01*
X133145355Y-102548687D01*
X133124331Y-102499752D01*
X133109854Y-102463257D01*
X133101039Y-102436895D01*
X133097004Y-102418361D01*
X133096862Y-102405352D01*
X133099730Y-102395561D01*
X133114387Y-102374678D01*
X133140990Y-102354377D01*
X133141745Y-102354035D01*
X133161335Y-102347034D01*
X133178790Y-102346504D01*
X133195702Y-102354478D01*
G37*
X140746853Y-102345936D02*
X140813100Y-102351366D01*
X140868400Y-102360964D01*
X140919283Y-102375825D01*
X140990595Y-102408958D01*
X141041752Y-102451640D01*
X141072575Y-102503705D01*
X141082889Y-102564983D01*
X141081952Y-102596232D01*
X141076160Y-102621029D01*
X141061353Y-102642699D01*
X141033380Y-102670049D01*
X141025402Y-102677378D01*
X141001692Y-102698281D01*
X140979298Y-102715251D01*
X140955265Y-102729205D01*
X140926637Y-102741056D01*
X140890460Y-102751720D01*
X140843780Y-102762111D01*
X140783641Y-102773146D01*
X140707090Y-102785738D01*
X140611171Y-102800804D01*
X140592808Y-102803838D01*
X140530478Y-102817458D01*
X140485260Y-102833192D01*
X140458976Y-102850263D01*
X140453447Y-102867897D01*
X140456068Y-102872168D01*
X140474000Y-102887233D01*
X140502126Y-102903867D01*
X140514926Y-102909857D01*
X140536224Y-102917050D01*
X140562610Y-102921827D01*
X140598454Y-102924646D01*
X140648128Y-102925964D01*
X140716000Y-102926237D01*
X140733785Y-102926164D01*
X140801406Y-102925053D01*
X140866345Y-102922828D01*
X140921970Y-102919762D01*
X140961651Y-102916127D01*
X140997162Y-102912059D01*
X141026415Y-102911276D01*
X141045315Y-102915876D01*
X141060429Y-102926551D01*
X141064085Y-102930144D01*
X141080427Y-102961918D01*
X141079107Y-102997572D01*
X141060150Y-103028190D01*
X141039780Y-103039796D01*
X141003796Y-103052491D01*
X140961372Y-103062541D01*
X140957922Y-103063140D01*
X140915252Y-103068356D01*
X140857866Y-103072730D01*
X140792849Y-103075818D01*
X140727289Y-103077177D01*
X140711057Y-103077218D01*
X140612744Y-103074741D01*
X140532692Y-103066735D01*
X140467513Y-103052203D01*
X140413817Y-103030149D01*
X140368216Y-102999576D01*
X140327323Y-102959486D01*
X140307202Y-102933259D01*
X140295576Y-102903712D01*
X140292667Y-102863995D01*
X140292808Y-102852026D01*
X140296681Y-102819345D01*
X140309065Y-102792819D01*
X140334230Y-102761971D01*
X140355442Y-102739831D01*
X140381838Y-102717285D01*
X140411555Y-102698917D01*
X140447785Y-102683661D01*
X140493717Y-102670449D01*
X140552544Y-102658214D01*
X140627456Y-102645889D01*
X140721645Y-102632406D01*
X140766957Y-102625396D01*
X140834911Y-102610837D01*
X140884047Y-102594337D01*
X140913614Y-102576439D01*
X140922864Y-102557685D01*
X140911048Y-102538615D01*
X140877416Y-102519771D01*
X140874370Y-102518557D01*
X140828011Y-102506479D01*
X140765361Y-102498279D01*
X140691927Y-102494119D01*
X140613217Y-102494161D01*
X140534739Y-102498569D01*
X140462000Y-102507505D01*
X140458073Y-102508154D01*
X140409257Y-102515861D01*
X140377005Y-102519473D01*
X140356008Y-102518876D01*
X140340954Y-102513954D01*
X140326534Y-102504596D01*
X140325364Y-102503725D01*
X140300847Y-102473351D01*
X140296054Y-102437850D01*
X140311860Y-102403269D01*
X140316406Y-102398813D01*
X140346020Y-102383673D01*
X140393002Y-102370550D01*
X140453306Y-102359750D01*
X140522888Y-102351581D01*
X140597703Y-102346351D01*
X140673706Y-102344367D01*
X140746853Y-102345936D01*
G36*
X140746853Y-102345936D02*
G01*
X140813100Y-102351366D01*
X140868400Y-102360964D01*
X140919283Y-102375825D01*
X140990595Y-102408958D01*
X141041752Y-102451640D01*
X141072575Y-102503705D01*
X141082889Y-102564983D01*
X141081952Y-102596232D01*
X141076160Y-102621029D01*
X141061353Y-102642699D01*
X141033380Y-102670049D01*
X141025402Y-102677378D01*
X141001692Y-102698281D01*
X140979298Y-102715251D01*
X140955265Y-102729205D01*
X140926637Y-102741056D01*
X140890460Y-102751720D01*
X140843780Y-102762111D01*
X140783641Y-102773146D01*
X140707090Y-102785738D01*
X140611171Y-102800804D01*
X140592808Y-102803838D01*
X140530478Y-102817458D01*
X140485260Y-102833192D01*
X140458976Y-102850263D01*
X140453447Y-102867897D01*
X140456068Y-102872168D01*
X140474000Y-102887233D01*
X140502126Y-102903867D01*
X140514926Y-102909857D01*
X140536224Y-102917050D01*
X140562610Y-102921827D01*
X140598454Y-102924646D01*
X140648128Y-102925964D01*
X140716000Y-102926237D01*
X140733785Y-102926164D01*
X140801406Y-102925053D01*
X140866345Y-102922828D01*
X140921970Y-102919762D01*
X140961651Y-102916127D01*
X140997162Y-102912059D01*
X141026415Y-102911276D01*
X141045315Y-102915876D01*
X141060429Y-102926551D01*
X141064085Y-102930144D01*
X141080427Y-102961918D01*
X141079107Y-102997572D01*
X141060150Y-103028190D01*
X141039780Y-103039796D01*
X141003796Y-103052491D01*
X140961372Y-103062541D01*
X140957922Y-103063140D01*
X140915252Y-103068356D01*
X140857866Y-103072730D01*
X140792849Y-103075818D01*
X140727289Y-103077177D01*
X140711057Y-103077218D01*
X140612744Y-103074741D01*
X140532692Y-103066735D01*
X140467513Y-103052203D01*
X140413817Y-103030149D01*
X140368216Y-102999576D01*
X140327323Y-102959486D01*
X140307202Y-102933259D01*
X140295576Y-102903712D01*
X140292667Y-102863995D01*
X140292808Y-102852026D01*
X140296681Y-102819345D01*
X140309065Y-102792819D01*
X140334230Y-102761971D01*
X140355442Y-102739831D01*
X140381838Y-102717285D01*
X140411555Y-102698917D01*
X140447785Y-102683661D01*
X140493717Y-102670449D01*
X140552544Y-102658214D01*
X140627456Y-102645889D01*
X140721645Y-102632406D01*
X140766957Y-102625396D01*
X140834911Y-102610837D01*
X140884047Y-102594337D01*
X140913614Y-102576439D01*
X140922864Y-102557685D01*
X140911048Y-102538615D01*
X140877416Y-102519771D01*
X140874370Y-102518557D01*
X140828011Y-102506479D01*
X140765361Y-102498279D01*
X140691927Y-102494119D01*
X140613217Y-102494161D01*
X140534739Y-102498569D01*
X140462000Y-102507505D01*
X140458073Y-102508154D01*
X140409257Y-102515861D01*
X140377005Y-102519473D01*
X140356008Y-102518876D01*
X140340954Y-102513954D01*
X140326534Y-102504596D01*
X140325364Y-102503725D01*
X140300847Y-102473351D01*
X140296054Y-102437850D01*
X140311860Y-102403269D01*
X140316406Y-102398813D01*
X140346020Y-102383673D01*
X140393002Y-102370550D01*
X140453306Y-102359750D01*
X140522888Y-102351581D01*
X140597703Y-102346351D01*
X140673706Y-102344367D01*
X140746853Y-102345936D01*
G37*
X136894711Y-98038033D02*
X136990268Y-98055523D01*
X137154558Y-98100564D01*
X137308589Y-98163656D01*
X137454509Y-98245915D01*
X137594466Y-98348457D01*
X137730608Y-98472399D01*
X137774473Y-98517661D01*
X137886758Y-98649865D01*
X137979972Y-98787832D01*
X138056719Y-98935750D01*
X138119603Y-99097803D01*
X138123420Y-99109391D01*
X138173507Y-99295392D01*
X138206899Y-99491521D01*
X138223584Y-99693568D01*
X138223551Y-99897325D01*
X138206791Y-100098581D01*
X138173292Y-100293128D01*
X138123044Y-100476756D01*
X138079190Y-100594053D01*
X138001348Y-100756951D01*
X137907828Y-100910866D01*
X137800822Y-101052671D01*
X137682519Y-101179239D01*
X137555111Y-101287441D01*
X137477606Y-101340120D01*
X137350725Y-101409750D01*
X137213243Y-101468468D01*
X137071716Y-101513587D01*
X136932702Y-101542422D01*
X136918597Y-101544106D01*
X136875153Y-101547434D01*
X136817723Y-101550275D01*
X136752122Y-101552373D01*
X136684167Y-101553468D01*
X136557378Y-101551140D01*
X136409673Y-101538136D01*
X136271779Y-101513133D01*
X136138014Y-101475318D01*
X136114562Y-101466889D01*
X136066612Y-101447408D01*
X136010140Y-101422473D01*
X135948379Y-101393722D01*
X135884563Y-101362790D01*
X135821926Y-101331315D01*
X135763703Y-101300934D01*
X135713127Y-101273283D01*
X135673433Y-101249999D01*
X135647854Y-101232718D01*
X135639625Y-101223079D01*
X135641076Y-101219984D01*
X135652250Y-101200079D01*
X135673134Y-101164420D01*
X135702265Y-101115459D01*
X135738181Y-101055646D01*
X135779420Y-100987433D01*
X135824517Y-100913271D01*
X136005785Y-100616008D01*
X136052315Y-100660539D01*
X136143723Y-100738865D01*
X136257334Y-100813439D01*
X136375122Y-100867474D01*
X136495559Y-100900290D01*
X136617117Y-100911211D01*
X136658585Y-100909868D01*
X136776080Y-100891612D01*
X136886089Y-100852617D01*
X136987430Y-100793670D01*
X137078921Y-100715557D01*
X137159380Y-100619064D01*
X137227627Y-100504978D01*
X137243908Y-100470724D01*
X137289982Y-100347240D01*
X137325106Y-100208918D01*
X137349197Y-100059561D01*
X137362173Y-99902973D01*
X137363949Y-99742956D01*
X137354443Y-99583314D01*
X137333572Y-99427850D01*
X137301252Y-99280366D01*
X137257399Y-99144667D01*
X137219982Y-99058076D01*
X137155185Y-98944688D01*
X137079772Y-98851070D01*
X136993418Y-98776959D01*
X136895795Y-98722094D01*
X136786577Y-98686212D01*
X136665439Y-98669051D01*
X136596038Y-98667880D01*
X136473168Y-98682141D01*
X136357664Y-98717241D01*
X136250953Y-98772682D01*
X136154464Y-98847964D01*
X136138720Y-98862440D01*
X136108150Y-98888962D01*
X136085809Y-98906138D01*
X136075691Y-98910787D01*
X136073706Y-98908597D01*
X136059241Y-98889721D01*
X136035400Y-98856397D01*
X136004029Y-98811380D01*
X135966974Y-98757425D01*
X135926083Y-98697285D01*
X135883202Y-98633718D01*
X135840178Y-98569476D01*
X135798857Y-98507315D01*
X135761086Y-98449991D01*
X135728712Y-98400257D01*
X135703582Y-98360868D01*
X135687542Y-98334580D01*
X135682439Y-98324147D01*
X135687050Y-98319941D01*
X135706267Y-98314933D01*
X135715838Y-98312386D01*
X135743809Y-98301249D01*
X135785448Y-98282802D01*
X135836995Y-98258725D01*
X135894690Y-98230699D01*
X135905957Y-98225154D01*
X136083687Y-98145889D01*
X136253490Y-98086385D01*
X136417430Y-98046245D01*
X136577571Y-98025071D01*
X136735977Y-98022466D01*
X136894711Y-98038033D01*
G36*
X136894711Y-98038033D02*
G01*
X136990268Y-98055523D01*
X137154558Y-98100564D01*
X137308589Y-98163656D01*
X137454509Y-98245915D01*
X137594466Y-98348457D01*
X137730608Y-98472399D01*
X137774473Y-98517661D01*
X137886758Y-98649865D01*
X137979972Y-98787832D01*
X138056719Y-98935750D01*
X138119603Y-99097803D01*
X138123420Y-99109391D01*
X138173507Y-99295392D01*
X138206899Y-99491521D01*
X138223584Y-99693568D01*
X138223551Y-99897325D01*
X138206791Y-100098581D01*
X138173292Y-100293128D01*
X138123044Y-100476756D01*
X138079190Y-100594053D01*
X138001348Y-100756951D01*
X137907828Y-100910866D01*
X137800822Y-101052671D01*
X137682519Y-101179239D01*
X137555111Y-101287441D01*
X137477606Y-101340120D01*
X137350725Y-101409750D01*
X137213243Y-101468468D01*
X137071716Y-101513587D01*
X136932702Y-101542422D01*
X136918597Y-101544106D01*
X136875153Y-101547434D01*
X136817723Y-101550275D01*
X136752122Y-101552373D01*
X136684167Y-101553468D01*
X136557378Y-101551140D01*
X136409673Y-101538136D01*
X136271779Y-101513133D01*
X136138014Y-101475318D01*
X136114562Y-101466889D01*
X136066612Y-101447408D01*
X136010140Y-101422473D01*
X135948379Y-101393722D01*
X135884563Y-101362790D01*
X135821926Y-101331315D01*
X135763703Y-101300934D01*
X135713127Y-101273283D01*
X135673433Y-101249999D01*
X135647854Y-101232718D01*
X135639625Y-101223079D01*
X135641076Y-101219984D01*
X135652250Y-101200079D01*
X135673134Y-101164420D01*
X135702265Y-101115459D01*
X135738181Y-101055646D01*
X135779420Y-100987433D01*
X135824517Y-100913271D01*
X136005785Y-100616008D01*
X136052315Y-100660539D01*
X136143723Y-100738865D01*
X136257334Y-100813439D01*
X136375122Y-100867474D01*
X136495559Y-100900290D01*
X136617117Y-100911211D01*
X136658585Y-100909868D01*
X136776080Y-100891612D01*
X136886089Y-100852617D01*
X136987430Y-100793670D01*
X137078921Y-100715557D01*
X137159380Y-100619064D01*
X137227627Y-100504978D01*
X137243908Y-100470724D01*
X137289982Y-100347240D01*
X137325106Y-100208918D01*
X137349197Y-100059561D01*
X137362173Y-99902973D01*
X137363949Y-99742956D01*
X137354443Y-99583314D01*
X137333572Y-99427850D01*
X137301252Y-99280366D01*
X137257399Y-99144667D01*
X137219982Y-99058076D01*
X137155185Y-98944688D01*
X137079772Y-98851070D01*
X136993418Y-98776959D01*
X136895795Y-98722094D01*
X136786577Y-98686212D01*
X136665439Y-98669051D01*
X136596038Y-98667880D01*
X136473168Y-98682141D01*
X136357664Y-98717241D01*
X136250953Y-98772682D01*
X136154464Y-98847964D01*
X136138720Y-98862440D01*
X136108150Y-98888962D01*
X136085809Y-98906138D01*
X136075691Y-98910787D01*
X136073706Y-98908597D01*
X136059241Y-98889721D01*
X136035400Y-98856397D01*
X136004029Y-98811380D01*
X135966974Y-98757425D01*
X135926083Y-98697285D01*
X135883202Y-98633718D01*
X135840178Y-98569476D01*
X135798857Y-98507315D01*
X135761086Y-98449991D01*
X135728712Y-98400257D01*
X135703582Y-98360868D01*
X135687542Y-98334580D01*
X135682439Y-98324147D01*
X135687050Y-98319941D01*
X135706267Y-98314933D01*
X135715838Y-98312386D01*
X135743809Y-98301249D01*
X135785448Y-98282802D01*
X135836995Y-98258725D01*
X135894690Y-98230699D01*
X135905957Y-98225154D01*
X136083687Y-98145889D01*
X136253490Y-98086385D01*
X136417430Y-98046245D01*
X136577571Y-98025071D01*
X136735977Y-98022466D01*
X136894711Y-98038033D01*
G37*
X133091994Y-100318711D02*
X133091268Y-100396158D01*
X133082689Y-100547594D01*
X133063833Y-100684283D01*
X133033837Y-100810276D01*
X132991836Y-100929625D01*
X132936969Y-101046381D01*
X132870167Y-101157179D01*
X132779363Y-101270739D01*
X132675708Y-101366211D01*
X132559887Y-101443073D01*
X132432586Y-101500797D01*
X132294489Y-101538858D01*
X132256793Y-101544666D01*
X132177752Y-101550396D01*
X132089629Y-101550583D01*
X132000236Y-101545539D01*
X131917384Y-101535578D01*
X131848887Y-101521012D01*
X131818035Y-101511364D01*
X131740730Y-101481123D01*
X131663679Y-101443617D01*
X131594200Y-101402614D01*
X131539615Y-101361879D01*
X131516916Y-101342505D01*
X131494201Y-101324662D01*
X131482779Y-101317778D01*
X131481537Y-101319424D01*
X131478728Y-101337205D01*
X131476776Y-101370370D01*
X131476045Y-101413733D01*
X131476045Y-101509689D01*
X130617896Y-101509689D01*
X130652161Y-101448974D01*
X130657355Y-101439868D01*
X130665715Y-101425249D01*
X130673288Y-101411173D01*
X130680112Y-101396540D01*
X130686227Y-101380249D01*
X130691673Y-101361198D01*
X130696487Y-101338286D01*
X130700708Y-101310413D01*
X130704377Y-101276478D01*
X130707531Y-101235379D01*
X130710211Y-101186015D01*
X130712454Y-101127286D01*
X130714299Y-101058090D01*
X130715787Y-100977326D01*
X130716955Y-100883894D01*
X130717844Y-100776692D01*
X130718491Y-100654620D01*
X130718936Y-100516576D01*
X130719218Y-100361459D01*
X130719375Y-100188168D01*
X130719448Y-99995603D01*
X130719474Y-99782662D01*
X130719485Y-99646530D01*
X131521200Y-99646530D01*
X131521200Y-100796721D01*
X131591756Y-100843089D01*
X131632417Y-100866791D01*
X131686546Y-100892639D01*
X131735689Y-100910829D01*
X131799165Y-100926551D01*
X131895331Y-100937541D01*
X131979900Y-100929365D01*
X132053219Y-100901805D01*
X132115637Y-100854642D01*
X132167502Y-100787658D01*
X132209160Y-100700633D01*
X132240962Y-100593350D01*
X132243545Y-100581009D01*
X132252000Y-100519772D01*
X132257663Y-100442692D01*
X132260576Y-100355002D01*
X132260783Y-100261934D01*
X132258330Y-100168720D01*
X132253261Y-100080594D01*
X132245619Y-100002788D01*
X132235448Y-99940533D01*
X132234167Y-99934666D01*
X132205126Y-99824121D01*
X132170610Y-99733575D01*
X132129456Y-99660953D01*
X132080499Y-99604181D01*
X132022574Y-99561184D01*
X131990620Y-99545615D01*
X131917784Y-99526722D01*
X131836443Y-99523465D01*
X131751319Y-99535389D01*
X131667133Y-99562040D01*
X131588608Y-99602962D01*
X131521200Y-99646530D01*
X130719485Y-99646530D01*
X130719493Y-99548245D01*
X130719689Y-97863378D01*
X131625017Y-97863378D01*
X131600585Y-97900067D01*
X131594318Y-97909647D01*
X131568208Y-97955981D01*
X131550469Y-98003102D01*
X131538908Y-98058251D01*
X131531331Y-98128667D01*
X131530839Y-98135650D01*
X131529062Y-98173641D01*
X131527444Y-98227576D01*
X131525999Y-98294703D01*
X131524740Y-98372271D01*
X131523680Y-98457528D01*
X131522829Y-98547724D01*
X131522203Y-98640107D01*
X131521812Y-98731925D01*
X131521670Y-98820427D01*
X131521790Y-98902862D01*
X131522183Y-98976479D01*
X131522862Y-99038526D01*
X131523841Y-99086251D01*
X131525132Y-99116904D01*
X131526747Y-99127733D01*
X131534957Y-99123333D01*
X131556647Y-99108362D01*
X131586014Y-99086448D01*
X131634879Y-99052236D01*
X131723125Y-99005714D01*
X131821916Y-98972046D01*
X131934510Y-98950231D01*
X132064164Y-98939265D01*
X132156670Y-98938219D01*
X132278011Y-98948014D01*
X132388099Y-98972174D01*
X132491389Y-99011785D01*
X132592338Y-99067932D01*
X132637503Y-99098883D01*
X132742911Y-99190115D01*
X132834538Y-99299106D01*
X132912332Y-99425726D01*
X132976241Y-99569845D01*
X133026214Y-99731332D01*
X133062198Y-99910059D01*
X133084143Y-100105895D01*
X133089900Y-100261934D01*
X133091994Y-100318711D01*
G36*
X133091994Y-100318711D02*
G01*
X133091268Y-100396158D01*
X133082689Y-100547594D01*
X133063833Y-100684283D01*
X133033837Y-100810276D01*
X132991836Y-100929625D01*
X132936969Y-101046381D01*
X132870167Y-101157179D01*
X132779363Y-101270739D01*
X132675708Y-101366211D01*
X132559887Y-101443073D01*
X132432586Y-101500797D01*
X132294489Y-101538858D01*
X132256793Y-101544666D01*
X132177752Y-101550396D01*
X132089629Y-101550583D01*
X132000236Y-101545539D01*
X131917384Y-101535578D01*
X131848887Y-101521012D01*
X131818035Y-101511364D01*
X131740730Y-101481123D01*
X131663679Y-101443617D01*
X131594200Y-101402614D01*
X131539615Y-101361879D01*
X131516916Y-101342505D01*
X131494201Y-101324662D01*
X131482779Y-101317778D01*
X131481537Y-101319424D01*
X131478728Y-101337205D01*
X131476776Y-101370370D01*
X131476045Y-101413733D01*
X131476045Y-101509689D01*
X130617896Y-101509689D01*
X130652161Y-101448974D01*
X130657355Y-101439868D01*
X130665715Y-101425249D01*
X130673288Y-101411173D01*
X130680112Y-101396540D01*
X130686227Y-101380249D01*
X130691673Y-101361198D01*
X130696487Y-101338286D01*
X130700708Y-101310413D01*
X130704377Y-101276478D01*
X130707531Y-101235379D01*
X130710211Y-101186015D01*
X130712454Y-101127286D01*
X130714299Y-101058090D01*
X130715787Y-100977326D01*
X130716955Y-100883894D01*
X130717844Y-100776692D01*
X130718491Y-100654620D01*
X130718936Y-100516576D01*
X130719218Y-100361459D01*
X130719375Y-100188168D01*
X130719448Y-99995603D01*
X130719474Y-99782662D01*
X130719485Y-99646530D01*
X131521200Y-99646530D01*
X131521200Y-100796721D01*
X131591756Y-100843089D01*
X131632417Y-100866791D01*
X131686546Y-100892639D01*
X131735689Y-100910829D01*
X131799165Y-100926551D01*
X131895331Y-100937541D01*
X131979900Y-100929365D01*
X132053219Y-100901805D01*
X132115637Y-100854642D01*
X132167502Y-100787658D01*
X132209160Y-100700633D01*
X132240962Y-100593350D01*
X132243545Y-100581009D01*
X132252000Y-100519772D01*
X132257663Y-100442692D01*
X132260576Y-100355002D01*
X132260783Y-100261934D01*
X132258330Y-100168720D01*
X132253261Y-100080594D01*
X132245619Y-100002788D01*
X132235448Y-99940533D01*
X132234167Y-99934666D01*
X132205126Y-99824121D01*
X132170610Y-99733575D01*
X132129456Y-99660953D01*
X132080499Y-99604181D01*
X132022574Y-99561184D01*
X131990620Y-99545615D01*
X131917784Y-99526722D01*
X131836443Y-99523465D01*
X131751319Y-99535389D01*
X131667133Y-99562040D01*
X131588608Y-99602962D01*
X131521200Y-99646530D01*
X130719485Y-99646530D01*
X130719493Y-99548245D01*
X130719689Y-97863378D01*
X131625017Y-97863378D01*
X131600585Y-97900067D01*
X131594318Y-97909647D01*
X131568208Y-97955981D01*
X131550469Y-98003102D01*
X131538908Y-98058251D01*
X131531331Y-98128667D01*
X131530839Y-98135650D01*
X131529062Y-98173641D01*
X131527444Y-98227576D01*
X131525999Y-98294703D01*
X131524740Y-98372271D01*
X131523680Y-98457528D01*
X131522829Y-98547724D01*
X131522203Y-98640107D01*
X131521812Y-98731925D01*
X131521670Y-98820427D01*
X131521790Y-98902862D01*
X131522183Y-98976479D01*
X131522862Y-99038526D01*
X131523841Y-99086251D01*
X131525132Y-99116904D01*
X131526747Y-99127733D01*
X131534957Y-99123333D01*
X131556647Y-99108362D01*
X131586014Y-99086448D01*
X131634879Y-99052236D01*
X131723125Y-99005714D01*
X131821916Y-98972046D01*
X131934510Y-98950231D01*
X132064164Y-98939265D01*
X132156670Y-98938219D01*
X132278011Y-98948014D01*
X132388099Y-98972174D01*
X132491389Y-99011785D01*
X132592338Y-99067932D01*
X132637503Y-99098883D01*
X132742911Y-99190115D01*
X132834538Y-99299106D01*
X132912332Y-99425726D01*
X132976241Y-99569845D01*
X133026214Y-99731332D01*
X133062198Y-99910059D01*
X133084143Y-100105895D01*
X133089900Y-100261934D01*
X133091994Y-100318711D01*
G37*
X135633755Y-100719467D02*
X135633261Y-100753363D01*
X135629632Y-100828202D01*
X135622022Y-100890401D01*
X135609688Y-100946984D01*
X135565313Y-101073076D01*
X135502400Y-101187679D01*
X135422238Y-101288568D01*
X135325740Y-101374924D01*
X135213822Y-101445932D01*
X135087397Y-101500776D01*
X134947378Y-101538638D01*
X134911149Y-101544351D01*
X134832155Y-101550313D01*
X134743841Y-101550646D01*
X134654075Y-101545659D01*
X134570722Y-101535666D01*
X134501651Y-101520978D01*
X134415187Y-101490749D01*
X134305286Y-101436057D01*
X134207956Y-101368543D01*
X134145867Y-101317556D01*
X134142605Y-101413622D01*
X134139343Y-101509689D01*
X133716450Y-101509689D01*
X133705543Y-101509686D01*
X133611056Y-101509380D01*
X133524331Y-101508616D01*
X133447837Y-101507451D01*
X133384043Y-101505942D01*
X133335418Y-101504147D01*
X133304433Y-101502121D01*
X133293556Y-101499922D01*
X133293578Y-101499463D01*
X133300614Y-101483910D01*
X133316434Y-101461071D01*
X133320734Y-101455638D01*
X133331777Y-101441606D01*
X133341311Y-101428186D01*
X133349461Y-101413722D01*
X133356352Y-101396556D01*
X133362111Y-101375034D01*
X133366862Y-101347498D01*
X133370731Y-101312292D01*
X133373844Y-101267760D01*
X133376325Y-101212246D01*
X133378300Y-101144093D01*
X133379894Y-101061645D01*
X133381234Y-100963246D01*
X133382444Y-100847239D01*
X133383649Y-100711968D01*
X133384595Y-100600586D01*
X134185378Y-100600586D01*
X134185378Y-100796462D01*
X134230048Y-100852973D01*
X134242785Y-100868212D01*
X134289604Y-100910844D01*
X134350255Y-100946672D01*
X134360897Y-100951850D01*
X134399676Y-100968745D01*
X134434692Y-100978909D01*
X134474722Y-100984325D01*
X134528541Y-100986978D01*
X134546648Y-100987383D01*
X134622011Y-100984540D01*
X134682743Y-100972620D01*
X134734452Y-100950037D01*
X134782746Y-100915211D01*
X134787803Y-100910798D01*
X134836272Y-100855160D01*
X134864459Y-100791333D01*
X134873752Y-100716282D01*
X134866520Y-100644693D01*
X134841796Y-100581645D01*
X134797249Y-100523758D01*
X134742319Y-100476808D01*
X134669894Y-100436961D01*
X134583340Y-100409263D01*
X134480670Y-100393096D01*
X134359894Y-100387842D01*
X134351007Y-100387857D01*
X134295660Y-100388655D01*
X134248736Y-100390488D01*
X134214953Y-100393111D01*
X134199028Y-100396274D01*
X134194943Y-100402741D01*
X134190572Y-100424875D01*
X134187604Y-100463988D01*
X134185914Y-100521939D01*
X134185378Y-100600586D01*
X133384595Y-100600586D01*
X133384975Y-100555778D01*
X133386228Y-100413012D01*
X133387651Y-100267942D01*
X133389176Y-100142027D01*
X133390933Y-100033436D01*
X133393051Y-99940334D01*
X133395660Y-99860891D01*
X133398890Y-99793273D01*
X133402869Y-99735649D01*
X133407728Y-99686185D01*
X133413597Y-99643050D01*
X133420604Y-99604410D01*
X133428880Y-99568434D01*
X133438554Y-99533289D01*
X133449756Y-99497142D01*
X133462616Y-99458161D01*
X133478090Y-99415091D01*
X133520994Y-99322871D01*
X133574735Y-99243099D01*
X133643576Y-99168965D01*
X133721185Y-99105405D01*
X133825761Y-99043725D01*
X133945244Y-98996202D01*
X134080508Y-98962567D01*
X134232426Y-98942552D01*
X134401872Y-98935889D01*
X134459890Y-98936287D01*
X134525398Y-98938335D01*
X134586693Y-98942704D01*
X134648097Y-98950035D01*
X134713932Y-98960969D01*
X134788520Y-98976147D01*
X134876184Y-98996209D01*
X134981245Y-99021797D01*
X135009806Y-99028820D01*
X135085054Y-99046776D01*
X135155388Y-99062820D01*
X135216567Y-99076028D01*
X135264354Y-99085474D01*
X135294511Y-99090231D01*
X135322783Y-99093910D01*
X135349060Y-99099187D01*
X135359059Y-99103942D01*
X135355952Y-99112781D01*
X135345194Y-99140072D01*
X135327864Y-99182906D01*
X135305126Y-99238425D01*
X135278147Y-99303772D01*
X135248090Y-99376089D01*
X135241493Y-99391879D01*
X135202907Y-99482484D01*
X135171768Y-99552217D01*
X135147917Y-99601405D01*
X135131198Y-99630374D01*
X135121454Y-99639452D01*
X135113766Y-99637405D01*
X135087415Y-99627760D01*
X135048982Y-99612190D01*
X135003822Y-99592815D01*
X134909293Y-99554814D01*
X134772480Y-99513780D01*
X134631289Y-99488612D01*
X134593314Y-99484611D01*
X134490059Y-99482447D01*
X134402952Y-99495622D01*
X134331129Y-99524756D01*
X134273731Y-99570466D01*
X134229896Y-99633372D01*
X134198762Y-99714092D01*
X134179470Y-99813245D01*
X134172050Y-99872224D01*
X134333936Y-99865445D01*
X134460495Y-99863813D01*
X134611951Y-99870194D01*
X134760396Y-99884777D01*
X134896578Y-99906882D01*
X134961245Y-99921821D01*
X135093490Y-99964741D01*
X135215762Y-100021340D01*
X135325685Y-100090017D01*
X135420883Y-100169170D01*
X135498980Y-100257196D01*
X135557599Y-100352493D01*
X135581595Y-100404864D01*
X135607232Y-100475590D01*
X135623478Y-100546812D01*
X135631822Y-100625712D01*
X135633690Y-100716282D01*
X135633755Y-100719467D01*
G36*
X135633755Y-100719467D02*
G01*
X135633261Y-100753363D01*
X135629632Y-100828202D01*
X135622022Y-100890401D01*
X135609688Y-100946984D01*
X135565313Y-101073076D01*
X135502400Y-101187679D01*
X135422238Y-101288568D01*
X135325740Y-101374924D01*
X135213822Y-101445932D01*
X135087397Y-101500776D01*
X134947378Y-101538638D01*
X134911149Y-101544351D01*
X134832155Y-101550313D01*
X134743841Y-101550646D01*
X134654075Y-101545659D01*
X134570722Y-101535666D01*
X134501651Y-101520978D01*
X134415187Y-101490749D01*
X134305286Y-101436057D01*
X134207956Y-101368543D01*
X134145867Y-101317556D01*
X134142605Y-101413622D01*
X134139343Y-101509689D01*
X133716450Y-101509689D01*
X133705543Y-101509686D01*
X133611056Y-101509380D01*
X133524331Y-101508616D01*
X133447837Y-101507451D01*
X133384043Y-101505942D01*
X133335418Y-101504147D01*
X133304433Y-101502121D01*
X133293556Y-101499922D01*
X133293578Y-101499463D01*
X133300614Y-101483910D01*
X133316434Y-101461071D01*
X133320734Y-101455638D01*
X133331777Y-101441606D01*
X133341311Y-101428186D01*
X133349461Y-101413722D01*
X133356352Y-101396556D01*
X133362111Y-101375034D01*
X133366862Y-101347498D01*
X133370731Y-101312292D01*
X133373844Y-101267760D01*
X133376325Y-101212246D01*
X133378300Y-101144093D01*
X133379894Y-101061645D01*
X133381234Y-100963246D01*
X133382444Y-100847239D01*
X133383649Y-100711968D01*
X133384595Y-100600586D01*
X134185378Y-100600586D01*
X134185378Y-100796462D01*
X134230048Y-100852973D01*
X134242785Y-100868212D01*
X134289604Y-100910844D01*
X134350255Y-100946672D01*
X134360897Y-100951850D01*
X134399676Y-100968745D01*
X134434692Y-100978909D01*
X134474722Y-100984325D01*
X134528541Y-100986978D01*
X134546648Y-100987383D01*
X134622011Y-100984540D01*
X134682743Y-100972620D01*
X134734452Y-100950037D01*
X134782746Y-100915211D01*
X134787803Y-100910798D01*
X134836272Y-100855160D01*
X134864459Y-100791333D01*
X134873752Y-100716282D01*
X134866520Y-100644693D01*
X134841796Y-100581645D01*
X134797249Y-100523758D01*
X134742319Y-100476808D01*
X134669894Y-100436961D01*
X134583340Y-100409263D01*
X134480670Y-100393096D01*
X134359894Y-100387842D01*
X134351007Y-100387857D01*
X134295660Y-100388655D01*
X134248736Y-100390488D01*
X134214953Y-100393111D01*
X134199028Y-100396274D01*
X134194943Y-100402741D01*
X134190572Y-100424875D01*
X134187604Y-100463988D01*
X134185914Y-100521939D01*
X134185378Y-100600586D01*
X133384595Y-100600586D01*
X133384975Y-100555778D01*
X133386228Y-100413012D01*
X133387651Y-100267942D01*
X133389176Y-100142027D01*
X133390933Y-100033436D01*
X133393051Y-99940334D01*
X133395660Y-99860891D01*
X133398890Y-99793273D01*
X133402869Y-99735649D01*
X133407728Y-99686185D01*
X133413597Y-99643050D01*
X133420604Y-99604410D01*
X133428880Y-99568434D01*
X133438554Y-99533289D01*
X133449756Y-99497142D01*
X133462616Y-99458161D01*
X133478090Y-99415091D01*
X133520994Y-99322871D01*
X133574735Y-99243099D01*
X133643576Y-99168965D01*
X133721185Y-99105405D01*
X133825761Y-99043725D01*
X133945244Y-98996202D01*
X134080508Y-98962567D01*
X134232426Y-98942552D01*
X134401872Y-98935889D01*
X134459890Y-98936287D01*
X134525398Y-98938335D01*
X134586693Y-98942704D01*
X134648097Y-98950035D01*
X134713932Y-98960969D01*
X134788520Y-98976147D01*
X134876184Y-98996209D01*
X134981245Y-99021797D01*
X135009806Y-99028820D01*
X135085054Y-99046776D01*
X135155388Y-99062820D01*
X135216567Y-99076028D01*
X135264354Y-99085474D01*
X135294511Y-99090231D01*
X135322783Y-99093910D01*
X135349060Y-99099187D01*
X135359059Y-99103942D01*
X135355952Y-99112781D01*
X135345194Y-99140072D01*
X135327864Y-99182906D01*
X135305126Y-99238425D01*
X135278147Y-99303772D01*
X135248090Y-99376089D01*
X135241493Y-99391879D01*
X135202907Y-99482484D01*
X135171768Y-99552217D01*
X135147917Y-99601405D01*
X135131198Y-99630374D01*
X135121454Y-99639452D01*
X135113766Y-99637405D01*
X135087415Y-99627760D01*
X135048982Y-99612190D01*
X135003822Y-99592815D01*
X134909293Y-99554814D01*
X134772480Y-99513780D01*
X134631289Y-99488612D01*
X134593314Y-99484611D01*
X134490059Y-99482447D01*
X134402952Y-99495622D01*
X134331129Y-99524756D01*
X134273731Y-99570466D01*
X134229896Y-99633372D01*
X134198762Y-99714092D01*
X134179470Y-99813245D01*
X134172050Y-99872224D01*
X134333936Y-99865445D01*
X134460495Y-99863813D01*
X134611951Y-99870194D01*
X134760396Y-99884777D01*
X134896578Y-99906882D01*
X134961245Y-99921821D01*
X135093490Y-99964741D01*
X135215762Y-100021340D01*
X135325685Y-100090017D01*
X135420883Y-100169170D01*
X135498980Y-100257196D01*
X135557599Y-100352493D01*
X135581595Y-100404864D01*
X135607232Y-100475590D01*
X135623478Y-100546812D01*
X135631822Y-100625712D01*
X135633690Y-100716282D01*
X135633755Y-100719467D01*
G37*
X143181614Y-98187792D02*
X143182059Y-98319011D01*
X143182362Y-98466216D01*
X143182548Y-98630349D01*
X143182642Y-98812352D01*
X143182671Y-99013165D01*
X143182661Y-99233732D01*
X143182636Y-99474992D01*
X143182622Y-99737889D01*
X143182622Y-99780040D01*
X143182646Y-100040668D01*
X143182685Y-100279796D01*
X143182708Y-100498360D01*
X143182687Y-100697295D01*
X143182593Y-100877535D01*
X143182395Y-101040015D01*
X143182063Y-101185670D01*
X143181569Y-101315434D01*
X143180883Y-101430243D01*
X143179976Y-101531030D01*
X143178817Y-101618730D01*
X143177378Y-101694279D01*
X143175629Y-101758611D01*
X143173540Y-101812661D01*
X143171083Y-101857363D01*
X143168227Y-101893652D01*
X143164943Y-101922463D01*
X143161202Y-101944731D01*
X143156974Y-101961390D01*
X143152229Y-101973375D01*
X143146939Y-101981621D01*
X143141073Y-101987062D01*
X143134602Y-101990634D01*
X143127497Y-101993270D01*
X143119728Y-101995906D01*
X143111266Y-101999477D01*
X143106908Y-102001145D01*
X143098395Y-102003111D01*
X143085694Y-102004911D01*
X143067885Y-102006555D01*
X143044049Y-102008047D01*
X143013266Y-102009397D01*
X142974617Y-102010611D01*
X142927182Y-102011697D01*
X142870043Y-102012661D01*
X142802279Y-102013511D01*
X142722971Y-102014253D01*
X142631199Y-102014897D01*
X142526044Y-102015447D01*
X142406587Y-102015913D01*
X142271908Y-102016300D01*
X142121088Y-102016616D01*
X141953206Y-102016869D01*
X141767345Y-102017066D01*
X141562583Y-102017213D01*
X141338002Y-102017318D01*
X141092682Y-102017389D01*
X140825704Y-102017432D01*
X140787321Y-102017437D01*
X140521922Y-102017480D01*
X140278050Y-102017525D01*
X140054783Y-102017548D01*
X139851196Y-102017524D01*
X139666367Y-102017430D01*
X139499373Y-102017243D01*
X139349290Y-102016939D01*
X139215196Y-102016494D01*
X139096166Y-102015885D01*
X138991279Y-102015089D01*
X138899610Y-102014080D01*
X138820237Y-102012837D01*
X138752237Y-102011335D01*
X138694686Y-102009551D01*
X138646662Y-102007461D01*
X138607240Y-102005042D01*
X138575499Y-102002270D01*
X138550514Y-101999121D01*
X138531364Y-101995572D01*
X138517123Y-101991598D01*
X138506871Y-101987178D01*
X138499682Y-101982286D01*
X138494635Y-101976900D01*
X138490805Y-101970996D01*
X138487271Y-101964549D01*
X138483108Y-101957537D01*
X138482025Y-101955687D01*
X138479813Y-101950180D01*
X138477786Y-101941868D01*
X138475938Y-101929809D01*
X138474261Y-101913063D01*
X138472745Y-101890687D01*
X138471383Y-101861740D01*
X138470167Y-101825280D01*
X138469089Y-101780367D01*
X138468140Y-101726057D01*
X138467312Y-101661410D01*
X138466597Y-101585484D01*
X138465987Y-101497338D01*
X138465942Y-101488493D01*
X138757378Y-101488493D01*
X138761260Y-101489765D01*
X138784520Y-101491791D01*
X138826874Y-101493626D01*
X138886132Y-101495227D01*
X138960107Y-101496549D01*
X139046610Y-101497548D01*
X139143452Y-101498180D01*
X139248445Y-101498400D01*
X139946651Y-101498400D01*
X141101090Y-101498400D01*
X141100456Y-101422200D01*
X141101574Y-101380160D01*
X141107304Y-101344334D01*
X141119890Y-101306772D01*
X141141568Y-101258577D01*
X141144789Y-101251897D01*
X141170188Y-101202359D01*
X141196996Y-101154369D01*
X141219917Y-101117466D01*
X141224485Y-101110834D01*
X141246516Y-101079593D01*
X141278693Y-101034654D01*
X141319457Y-100978147D01*
X141367245Y-100912204D01*
X141420498Y-100838957D01*
X141477655Y-100760536D01*
X141537155Y-100679072D01*
X141597437Y-100596698D01*
X141656940Y-100515544D01*
X141714105Y-100437742D01*
X141767370Y-100365423D01*
X141815174Y-100300718D01*
X141855957Y-100245759D01*
X141888158Y-100202676D01*
X141910216Y-100173602D01*
X141920571Y-100160667D01*
X141925044Y-100156351D01*
X141929236Y-100154312D01*
X141932643Y-100156926D01*
X141935325Y-100165986D01*
X141937341Y-100183285D01*
X141938748Y-100210614D01*
X141939605Y-100249765D01*
X141939970Y-100302533D01*
X141939903Y-100370707D01*
X141939460Y-100456082D01*
X141938702Y-100560449D01*
X141937685Y-100685600D01*
X141937308Y-100730300D01*
X141936169Y-100851395D01*
X141934972Y-100952688D01*
X141933636Y-101036262D01*
X141932077Y-101104204D01*
X141930215Y-101158599D01*
X141927966Y-101201532D01*
X141925248Y-101235089D01*
X141921979Y-101261355D01*
X141918078Y-101282416D01*
X141913461Y-101300357D01*
X141905192Y-101326770D01*
X141881583Y-101388772D01*
X141855685Y-101441573D01*
X141830535Y-101478645D01*
X141829339Y-101480075D01*
X141827168Y-101484424D01*
X141829328Y-101488026D01*
X141837644Y-101490951D01*
X141853940Y-101493269D01*
X141880041Y-101495051D01*
X141917771Y-101496367D01*
X141968956Y-101497286D01*
X142035420Y-101497878D01*
X142118987Y-101498215D01*
X142221483Y-101498365D01*
X142344732Y-101498400D01*
X142876296Y-101498400D01*
X142837523Y-101440783D01*
X142831432Y-101431893D01*
X142820976Y-101417069D01*
X142811579Y-101403422D01*
X142803183Y-101389765D01*
X142795733Y-101374911D01*
X142789173Y-101357670D01*
X142783446Y-101336855D01*
X142778495Y-101311280D01*
X142774266Y-101279755D01*
X142770701Y-101241093D01*
X142767744Y-101194107D01*
X142765340Y-101137608D01*
X142763431Y-101070409D01*
X142761962Y-100991322D01*
X142760876Y-100899160D01*
X142760118Y-100792734D01*
X142759630Y-100670857D01*
X142759358Y-100532341D01*
X142759243Y-100375999D01*
X142759231Y-100200642D01*
X142759265Y-100005082D01*
X142759289Y-99788133D01*
X142759280Y-99665513D01*
X142759243Y-99460447D01*
X142759227Y-99276116D01*
X142759288Y-99111334D01*
X142759484Y-98964916D01*
X142759870Y-98835674D01*
X142760505Y-98722422D01*
X142761444Y-98623975D01*
X142762745Y-98539144D01*
X142764464Y-98466744D01*
X142766659Y-98405589D01*
X142769385Y-98354492D01*
X142772701Y-98312267D01*
X142776662Y-98277727D01*
X142781325Y-98249686D01*
X142786747Y-98226958D01*
X142792986Y-98208356D01*
X142800097Y-98192693D01*
X142808138Y-98178784D01*
X142817166Y-98165441D01*
X142827236Y-98151479D01*
X142838407Y-98135711D01*
X142878197Y-98077867D01*
X141818314Y-98077867D01*
X141856311Y-98140966D01*
X141870993Y-98166005D01*
X141885531Y-98193586D01*
X141897627Y-98221700D01*
X141907532Y-98252551D01*
X141915494Y-98288344D01*
X141921761Y-98331283D01*
X141926582Y-98383574D01*
X141930206Y-98447419D01*
X141932881Y-98525025D01*
X141934857Y-98618594D01*
X141936382Y-98730333D01*
X141937704Y-98862445D01*
X141938613Y-98982434D01*
X141939020Y-99099063D01*
X141938767Y-99194531D01*
X141937857Y-99268556D01*
X141936293Y-99320855D01*
X141934079Y-99351149D01*
X141931220Y-99359156D01*
X141928161Y-99355858D01*
X141910006Y-99334408D01*
X141880275Y-99297889D01*
X141840639Y-99248442D01*
X141792771Y-99188207D01*
X141738343Y-99119327D01*
X141679027Y-99043943D01*
X141616495Y-98964196D01*
X141552421Y-98882228D01*
X141488475Y-98800180D01*
X141426331Y-98720194D01*
X141367661Y-98644411D01*
X141314137Y-98574973D01*
X141267430Y-98514021D01*
X141229214Y-98463696D01*
X141201161Y-98426140D01*
X141184943Y-98403495D01*
X141139635Y-98331212D01*
X141099661Y-98251463D01*
X141078130Y-98183188D01*
X141074827Y-98125844D01*
X141080116Y-98077867D01*
X139948356Y-98078117D01*
X139987867Y-98108722D01*
X139997248Y-98116089D01*
X140060183Y-98170438D01*
X140128997Y-98238259D01*
X140205596Y-98321516D01*
X140291888Y-98422178D01*
X140309052Y-98442847D01*
X140349833Y-98492409D01*
X140399588Y-98553326D01*
X140456955Y-98623898D01*
X140520569Y-98702424D01*
X140589069Y-98787204D01*
X140661090Y-98876537D01*
X140735270Y-98968722D01*
X140750517Y-98987702D01*
X140810246Y-99062060D01*
X140884653Y-99154848D01*
X140957131Y-99245388D01*
X141026314Y-99331978D01*
X141090841Y-99412918D01*
X141149347Y-99486506D01*
X141200470Y-99551044D01*
X141242847Y-99604829D01*
X141275115Y-99646162D01*
X141295910Y-99673342D01*
X141303869Y-99684668D01*
X141302111Y-99688771D01*
X141289230Y-99709334D01*
X141264885Y-99745561D01*
X141230247Y-99795824D01*
X141186486Y-99858492D01*
X141134775Y-99931936D01*
X141076284Y-100014527D01*
X141012184Y-100104636D01*
X140943646Y-100200631D01*
X140871843Y-100300885D01*
X140797944Y-100403768D01*
X140723121Y-100507650D01*
X140648545Y-100610901D01*
X140575387Y-100711892D01*
X140504819Y-100808994D01*
X140438011Y-100900577D01*
X140376135Y-100985011D01*
X140320361Y-101060667D01*
X140271862Y-101125916D01*
X140231807Y-101179128D01*
X140201369Y-101218673D01*
X140180944Y-101244026D01*
X140134899Y-101298295D01*
X140084612Y-101354775D01*
X140037815Y-101404669D01*
X139946651Y-101498400D01*
X139248445Y-101498400D01*
X139317356Y-101498349D01*
X139415607Y-101498091D01*
X139505030Y-101497637D01*
X139583333Y-101497010D01*
X139648223Y-101496235D01*
X139697411Y-101495335D01*
X139728604Y-101494334D01*
X139739511Y-101493257D01*
X139738322Y-101490037D01*
X139728176Y-101472452D01*
X139711040Y-101446158D01*
X139702540Y-101433691D01*
X139693329Y-101419622D01*
X139685233Y-101405351D01*
X139678185Y-101389479D01*
X139672117Y-101370609D01*
X139666961Y-101347341D01*
X139662651Y-101318278D01*
X139659119Y-101282021D01*
X139656297Y-101237170D01*
X139654118Y-101182328D01*
X139652514Y-101116097D01*
X139651419Y-101037077D01*
X139650765Y-100943871D01*
X139650484Y-100835079D01*
X139650509Y-100709303D01*
X139650772Y-100565145D01*
X139651206Y-100401207D01*
X139651745Y-100216089D01*
X139652279Y-100037232D01*
X139652805Y-99878374D01*
X139653350Y-99739316D01*
X139653945Y-99618665D01*
X139654619Y-99515028D01*
X139655403Y-99427011D01*
X139656326Y-99353223D01*
X139657419Y-99292269D01*
X139658712Y-99242757D01*
X139660235Y-99203293D01*
X139662019Y-99172484D01*
X139664092Y-99148938D01*
X139666486Y-99131260D01*
X139669230Y-99118059D01*
X139672356Y-99107940D01*
X139675892Y-99099511D01*
X139679791Y-99091375D01*
X139699438Y-99054544D01*
X139718225Y-99024391D01*
X139719272Y-99022908D01*
X139733602Y-99000659D01*
X139739511Y-98987702D01*
X139738504Y-98987249D01*
X139721305Y-98985803D01*
X139684656Y-98984480D01*
X139630962Y-98983316D01*
X139562630Y-98982347D01*
X139482064Y-98981611D01*
X139391670Y-98981142D01*
X139293853Y-98980978D01*
X138848195Y-98980978D01*
X138845120Y-100157845D01*
X138842045Y-101334711D01*
X138815407Y-101393622D01*
X138803485Y-101418183D01*
X138786246Y-101448434D01*
X138773074Y-101465560D01*
X138765076Y-101473591D01*
X138757378Y-101488493D01*
X138465942Y-101488493D01*
X138465474Y-101396029D01*
X138465050Y-101280617D01*
X138464706Y-101150160D01*
X138464434Y-101003716D01*
X138464227Y-100840344D01*
X138464076Y-100659101D01*
X138463972Y-100459048D01*
X138463908Y-100239241D01*
X138463876Y-99998739D01*
X138463867Y-99736602D01*
X138463867Y-97545031D01*
X138502249Y-97506649D01*
X138529355Y-97482911D01*
X138556253Y-97471111D01*
X138592560Y-97468267D01*
X138644489Y-97468267D01*
X138644489Y-97556206D01*
X138646427Y-97606102D01*
X138665199Y-97716523D01*
X138702217Y-97817987D01*
X138755369Y-97909152D01*
X138822546Y-97988673D01*
X138901638Y-98055205D01*
X138990534Y-98107406D01*
X139087125Y-98143930D01*
X139189300Y-98163434D01*
X139294950Y-98164573D01*
X139401964Y-98146005D01*
X139508232Y-98106384D01*
X139605219Y-98048516D01*
X139690293Y-97973684D01*
X139759015Y-97885615D01*
X139809918Y-97786616D01*
X139841535Y-97678993D01*
X139852400Y-97565054D01*
X139852400Y-97468267D01*
X141472753Y-97468267D01*
X141683897Y-97468280D01*
X141888020Y-97468330D01*
X142071686Y-97468430D01*
X142235991Y-97468592D01*
X142382029Y-97468829D01*
X142510894Y-97469153D01*
X142623683Y-97469575D01*
X142721488Y-97470109D01*
X142805404Y-97470767D01*
X142876527Y-97471561D01*
X142935950Y-97472504D01*
X142984768Y-97473608D01*
X143024077Y-97474884D01*
X143054969Y-97476347D01*
X143078541Y-97478007D01*
X143095886Y-97479878D01*
X143108099Y-97481972D01*
X143116275Y-97484300D01*
X143121508Y-97486876D01*
X143127504Y-97490445D01*
X143134279Y-97493978D01*
X143140478Y-97497488D01*
X143146126Y-97501918D01*
X143151247Y-97508208D01*
X143155869Y-97517301D01*
X143160015Y-97530139D01*
X143163713Y-97547662D01*
X143166987Y-97570813D01*
X143169863Y-97600534D01*
X143172367Y-97637765D01*
X143174524Y-97683449D01*
X143176360Y-97738527D01*
X143177900Y-97803941D01*
X143179170Y-97880633D01*
X143180195Y-97969544D01*
X143181001Y-98071617D01*
X143181034Y-98077867D01*
X143181614Y-98187792D01*
G36*
X143181614Y-98187792D02*
G01*
X143182059Y-98319011D01*
X143182362Y-98466216D01*
X143182548Y-98630349D01*
X143182642Y-98812352D01*
X143182671Y-99013165D01*
X143182661Y-99233732D01*
X143182636Y-99474992D01*
X143182622Y-99737889D01*
X143182622Y-99780040D01*
X143182646Y-100040668D01*
X143182685Y-100279796D01*
X143182708Y-100498360D01*
X143182687Y-100697295D01*
X143182593Y-100877535D01*
X143182395Y-101040015D01*
X143182063Y-101185670D01*
X143181569Y-101315434D01*
X143180883Y-101430243D01*
X143179976Y-101531030D01*
X143178817Y-101618730D01*
X143177378Y-101694279D01*
X143175629Y-101758611D01*
X143173540Y-101812661D01*
X143171083Y-101857363D01*
X143168227Y-101893652D01*
X143164943Y-101922463D01*
X143161202Y-101944731D01*
X143156974Y-101961390D01*
X143152229Y-101973375D01*
X143146939Y-101981621D01*
X143141073Y-101987062D01*
X143134602Y-101990634D01*
X143127497Y-101993270D01*
X143119728Y-101995906D01*
X143111266Y-101999477D01*
X143106908Y-102001145D01*
X143098395Y-102003111D01*
X143085694Y-102004911D01*
X143067885Y-102006555D01*
X143044049Y-102008047D01*
X143013266Y-102009397D01*
X142974617Y-102010611D01*
X142927182Y-102011697D01*
X142870043Y-102012661D01*
X142802279Y-102013511D01*
X142722971Y-102014253D01*
X142631199Y-102014897D01*
X142526044Y-102015447D01*
X142406587Y-102015913D01*
X142271908Y-102016300D01*
X142121088Y-102016616D01*
X141953206Y-102016869D01*
X141767345Y-102017066D01*
X141562583Y-102017213D01*
X141338002Y-102017318D01*
X141092682Y-102017389D01*
X140825704Y-102017432D01*
X140787321Y-102017437D01*
X140521922Y-102017480D01*
X140278050Y-102017525D01*
X140054783Y-102017548D01*
X139851196Y-102017524D01*
X139666367Y-102017430D01*
X139499373Y-102017243D01*
X139349290Y-102016939D01*
X139215196Y-102016494D01*
X139096166Y-102015885D01*
X138991279Y-102015089D01*
X138899610Y-102014080D01*
X138820237Y-102012837D01*
X138752237Y-102011335D01*
X138694686Y-102009551D01*
X138646662Y-102007461D01*
X138607240Y-102005042D01*
X138575499Y-102002270D01*
X138550514Y-101999121D01*
X138531364Y-101995572D01*
X138517123Y-101991598D01*
X138506871Y-101987178D01*
X138499682Y-101982286D01*
X138494635Y-101976900D01*
X138490805Y-101970996D01*
X138487271Y-101964549D01*
X138483108Y-101957537D01*
X138482025Y-101955687D01*
X138479813Y-101950180D01*
X138477786Y-101941868D01*
X138475938Y-101929809D01*
X138474261Y-101913063D01*
X138472745Y-101890687D01*
X138471383Y-101861740D01*
X138470167Y-101825280D01*
X138469089Y-101780367D01*
X138468140Y-101726057D01*
X138467312Y-101661410D01*
X138466597Y-101585484D01*
X138465987Y-101497338D01*
X138465942Y-101488493D01*
X138757378Y-101488493D01*
X138761260Y-101489765D01*
X138784520Y-101491791D01*
X138826874Y-101493626D01*
X138886132Y-101495227D01*
X138960107Y-101496549D01*
X139046610Y-101497548D01*
X139143452Y-101498180D01*
X139248445Y-101498400D01*
X139946651Y-101498400D01*
X141101090Y-101498400D01*
X141100456Y-101422200D01*
X141101574Y-101380160D01*
X141107304Y-101344334D01*
X141119890Y-101306772D01*
X141141568Y-101258577D01*
X141144789Y-101251897D01*
X141170188Y-101202359D01*
X141196996Y-101154369D01*
X141219917Y-101117466D01*
X141224485Y-101110834D01*
X141246516Y-101079593D01*
X141278693Y-101034654D01*
X141319457Y-100978147D01*
X141367245Y-100912204D01*
X141420498Y-100838957D01*
X141477655Y-100760536D01*
X141537155Y-100679072D01*
X141597437Y-100596698D01*
X141656940Y-100515544D01*
X141714105Y-100437742D01*
X141767370Y-100365423D01*
X141815174Y-100300718D01*
X141855957Y-100245759D01*
X141888158Y-100202676D01*
X141910216Y-100173602D01*
X141920571Y-100160667D01*
X141925044Y-100156351D01*
X141929236Y-100154312D01*
X141932643Y-100156926D01*
X141935325Y-100165986D01*
X141937341Y-100183285D01*
X141938748Y-100210614D01*
X141939605Y-100249765D01*
X141939970Y-100302533D01*
X141939903Y-100370707D01*
X141939460Y-100456082D01*
X141938702Y-100560449D01*
X141937685Y-100685600D01*
X141937308Y-100730300D01*
X141936169Y-100851395D01*
X141934972Y-100952688D01*
X141933636Y-101036262D01*
X141932077Y-101104204D01*
X141930215Y-101158599D01*
X141927966Y-101201532D01*
X141925248Y-101235089D01*
X141921979Y-101261355D01*
X141918078Y-101282416D01*
X141913461Y-101300357D01*
X141905192Y-101326770D01*
X141881583Y-101388772D01*
X141855685Y-101441573D01*
X141830535Y-101478645D01*
X141829339Y-101480075D01*
X141827168Y-101484424D01*
X141829328Y-101488026D01*
X141837644Y-101490951D01*
X141853940Y-101493269D01*
X141880041Y-101495051D01*
X141917771Y-101496367D01*
X141968956Y-101497286D01*
X142035420Y-101497878D01*
X142118987Y-101498215D01*
X142221483Y-101498365D01*
X142344732Y-101498400D01*
X142876296Y-101498400D01*
X142837523Y-101440783D01*
X142831432Y-101431893D01*
X142820976Y-101417069D01*
X142811579Y-101403422D01*
X142803183Y-101389765D01*
X142795733Y-101374911D01*
X142789173Y-101357670D01*
X142783446Y-101336855D01*
X142778495Y-101311280D01*
X142774266Y-101279755D01*
X142770701Y-101241093D01*
X142767744Y-101194107D01*
X142765340Y-101137608D01*
X142763431Y-101070409D01*
X142761962Y-100991322D01*
X142760876Y-100899160D01*
X142760118Y-100792734D01*
X142759630Y-100670857D01*
X142759358Y-100532341D01*
X142759243Y-100375999D01*
X142759231Y-100200642D01*
X142759265Y-100005082D01*
X142759289Y-99788133D01*
X142759280Y-99665513D01*
X142759243Y-99460447D01*
X142759227Y-99276116D01*
X142759288Y-99111334D01*
X142759484Y-98964916D01*
X142759870Y-98835674D01*
X142760505Y-98722422D01*
X142761444Y-98623975D01*
X142762745Y-98539144D01*
X142764464Y-98466744D01*
X142766659Y-98405589D01*
X142769385Y-98354492D01*
X142772701Y-98312267D01*
X142776662Y-98277727D01*
X142781325Y-98249686D01*
X142786747Y-98226958D01*
X142792986Y-98208356D01*
X142800097Y-98192693D01*
X142808138Y-98178784D01*
X142817166Y-98165441D01*
X142827236Y-98151479D01*
X142838407Y-98135711D01*
X142878197Y-98077867D01*
X141818314Y-98077867D01*
X141856311Y-98140966D01*
X141870993Y-98166005D01*
X141885531Y-98193586D01*
X141897627Y-98221700D01*
X141907532Y-98252551D01*
X141915494Y-98288344D01*
X141921761Y-98331283D01*
X141926582Y-98383574D01*
X141930206Y-98447419D01*
X141932881Y-98525025D01*
X141934857Y-98618594D01*
X141936382Y-98730333D01*
X141937704Y-98862445D01*
X141938613Y-98982434D01*
X141939020Y-99099063D01*
X141938767Y-99194531D01*
X141937857Y-99268556D01*
X141936293Y-99320855D01*
X141934079Y-99351149D01*
X141931220Y-99359156D01*
X141928161Y-99355858D01*
X141910006Y-99334408D01*
X141880275Y-99297889D01*
X141840639Y-99248442D01*
X141792771Y-99188207D01*
X141738343Y-99119327D01*
X141679027Y-99043943D01*
X141616495Y-98964196D01*
X141552421Y-98882228D01*
X141488475Y-98800180D01*
X141426331Y-98720194D01*
X141367661Y-98644411D01*
X141314137Y-98574973D01*
X141267430Y-98514021D01*
X141229214Y-98463696D01*
X141201161Y-98426140D01*
X141184943Y-98403495D01*
X141139635Y-98331212D01*
X141099661Y-98251463D01*
X141078130Y-98183188D01*
X141074827Y-98125844D01*
X141080116Y-98077867D01*
X139948356Y-98078117D01*
X139987867Y-98108722D01*
X139997248Y-98116089D01*
X140060183Y-98170438D01*
X140128997Y-98238259D01*
X140205596Y-98321516D01*
X140291888Y-98422178D01*
X140309052Y-98442847D01*
X140349833Y-98492409D01*
X140399588Y-98553326D01*
X140456955Y-98623898D01*
X140520569Y-98702424D01*
X140589069Y-98787204D01*
X140661090Y-98876537D01*
X140735270Y-98968722D01*
X140750517Y-98987702D01*
X140810246Y-99062060D01*
X140884653Y-99154848D01*
X140957131Y-99245388D01*
X141026314Y-99331978D01*
X141090841Y-99412918D01*
X141149347Y-99486506D01*
X141200470Y-99551044D01*
X141242847Y-99604829D01*
X141275115Y-99646162D01*
X141295910Y-99673342D01*
X141303869Y-99684668D01*
X141302111Y-99688771D01*
X141289230Y-99709334D01*
X141264885Y-99745561D01*
X141230247Y-99795824D01*
X141186486Y-99858492D01*
X141134775Y-99931936D01*
X141076284Y-100014527D01*
X141012184Y-100104636D01*
X140943646Y-100200631D01*
X140871843Y-100300885D01*
X140797944Y-100403768D01*
X140723121Y-100507650D01*
X140648545Y-100610901D01*
X140575387Y-100711892D01*
X140504819Y-100808994D01*
X140438011Y-100900577D01*
X140376135Y-100985011D01*
X140320361Y-101060667D01*
X140271862Y-101125916D01*
X140231807Y-101179128D01*
X140201369Y-101218673D01*
X140180944Y-101244026D01*
X140134899Y-101298295D01*
X140084612Y-101354775D01*
X140037815Y-101404669D01*
X139946651Y-101498400D01*
X139248445Y-101498400D01*
X139317356Y-101498349D01*
X139415607Y-101498091D01*
X139505030Y-101497637D01*
X139583333Y-101497010D01*
X139648223Y-101496235D01*
X139697411Y-101495335D01*
X139728604Y-101494334D01*
X139739511Y-101493257D01*
X139738322Y-101490037D01*
X139728176Y-101472452D01*
X139711040Y-101446158D01*
X139702540Y-101433691D01*
X139693329Y-101419622D01*
X139685233Y-101405351D01*
X139678185Y-101389479D01*
X139672117Y-101370609D01*
X139666961Y-101347341D01*
X139662651Y-101318278D01*
X139659119Y-101282021D01*
X139656297Y-101237170D01*
X139654118Y-101182328D01*
X139652514Y-101116097D01*
X139651419Y-101037077D01*
X139650765Y-100943871D01*
X139650484Y-100835079D01*
X139650509Y-100709303D01*
X139650772Y-100565145D01*
X139651206Y-100401207D01*
X139651745Y-100216089D01*
X139652279Y-100037232D01*
X139652805Y-99878374D01*
X139653350Y-99739316D01*
X139653945Y-99618665D01*
X139654619Y-99515028D01*
X139655403Y-99427011D01*
X139656326Y-99353223D01*
X139657419Y-99292269D01*
X139658712Y-99242757D01*
X139660235Y-99203293D01*
X139662019Y-99172484D01*
X139664092Y-99148938D01*
X139666486Y-99131260D01*
X139669230Y-99118059D01*
X139672356Y-99107940D01*
X139675892Y-99099511D01*
X139679791Y-99091375D01*
X139699438Y-99054544D01*
X139718225Y-99024391D01*
X139719272Y-99022908D01*
X139733602Y-99000659D01*
X139739511Y-98987702D01*
X139738504Y-98987249D01*
X139721305Y-98985803D01*
X139684656Y-98984480D01*
X139630962Y-98983316D01*
X139562630Y-98982347D01*
X139482064Y-98981611D01*
X139391670Y-98981142D01*
X139293853Y-98980978D01*
X138848195Y-98980978D01*
X138845120Y-100157845D01*
X138842045Y-101334711D01*
X138815407Y-101393622D01*
X138803485Y-101418183D01*
X138786246Y-101448434D01*
X138773074Y-101465560D01*
X138765076Y-101473591D01*
X138757378Y-101488493D01*
X138465942Y-101488493D01*
X138465474Y-101396029D01*
X138465050Y-101280617D01*
X138464706Y-101150160D01*
X138464434Y-101003716D01*
X138464227Y-100840344D01*
X138464076Y-100659101D01*
X138463972Y-100459048D01*
X138463908Y-100239241D01*
X138463876Y-99998739D01*
X138463867Y-99736602D01*
X138463867Y-97545031D01*
X138502249Y-97506649D01*
X138529355Y-97482911D01*
X138556253Y-97471111D01*
X138592560Y-97468267D01*
X138644489Y-97468267D01*
X138644489Y-97556206D01*
X138646427Y-97606102D01*
X138665199Y-97716523D01*
X138702217Y-97817987D01*
X138755369Y-97909152D01*
X138822546Y-97988673D01*
X138901638Y-98055205D01*
X138990534Y-98107406D01*
X139087125Y-98143930D01*
X139189300Y-98163434D01*
X139294950Y-98164573D01*
X139401964Y-98146005D01*
X139508232Y-98106384D01*
X139605219Y-98048516D01*
X139690293Y-97973684D01*
X139759015Y-97885615D01*
X139809918Y-97786616D01*
X139841535Y-97678993D01*
X139852400Y-97565054D01*
X139852400Y-97468267D01*
X141472753Y-97468267D01*
X141683897Y-97468280D01*
X141888020Y-97468330D01*
X142071686Y-97468430D01*
X142235991Y-97468592D01*
X142382029Y-97468829D01*
X142510894Y-97469153D01*
X142623683Y-97469575D01*
X142721488Y-97470109D01*
X142805404Y-97470767D01*
X142876527Y-97471561D01*
X142935950Y-97472504D01*
X142984768Y-97473608D01*
X143024077Y-97474884D01*
X143054969Y-97476347D01*
X143078541Y-97478007D01*
X143095886Y-97479878D01*
X143108099Y-97481972D01*
X143116275Y-97484300D01*
X143121508Y-97486876D01*
X143127504Y-97490445D01*
X143134279Y-97493978D01*
X143140478Y-97497488D01*
X143146126Y-97501918D01*
X143151247Y-97508208D01*
X143155869Y-97517301D01*
X143160015Y-97530139D01*
X143163713Y-97547662D01*
X143166987Y-97570813D01*
X143169863Y-97600534D01*
X143172367Y-97637765D01*
X143174524Y-97683449D01*
X143176360Y-97738527D01*
X143177900Y-97803941D01*
X143179170Y-97880633D01*
X143180195Y-97969544D01*
X143181001Y-98071617D01*
X143181034Y-98077867D01*
X143181614Y-98187792D01*
G37*
%TD*%
M02*
