%TF.GenerationSoftware,KiCad,Pcbnew,8.0.5*%
%TF.CreationDate,2025-01-15T09:47:38+05:30*%
%TF.ProjectId,MCU_Datalogger,4d43555f-4461-4746-916c-6f676765722e,1*%
%TF.SameCoordinates,Original*%
%TF.FileFunction,Copper,L1,Top*%
%TF.FilePolarity,Positive*%
%FSLAX46Y46*%
G04 Gerber Fmt 4.6, Leading zero omitted, Abs format (unit mm)*
G04 Created by KiCad (PCBNEW 8.0.5) date 2025-01-15 09:47:38*
%MOMM*%
%LPD*%
G01*
G04 APERTURE LIST*
G04 Aperture macros list*
%AMRoundRect*
0 Rectangle with rounded corners*
0 $1 Rounding radius*
0 $2 $3 $4 $5 $6 $7 $8 $9 X,Y pos of 4 corners*
0 Add a 4 corners polygon primitive as box body*
4,1,4,$2,$3,$4,$5,$6,$7,$8,$9,$2,$3,0*
0 Add four circle primitives for the rounded corners*
1,1,$1+$1,$2,$3*
1,1,$1+$1,$4,$5*
1,1,$1+$1,$6,$7*
1,1,$1+$1,$8,$9*
0 Add four rect primitives between the rounded corners*
20,1,$1+$1,$2,$3,$4,$5,0*
20,1,$1+$1,$4,$5,$6,$7,0*
20,1,$1+$1,$6,$7,$8,$9,0*
20,1,$1+$1,$8,$9,$2,$3,0*%
G04 Aperture macros list end*
%TA.AperFunction,ComponentPad*%
%ADD10R,1.700000X1.700000*%
%TD*%
%TA.AperFunction,ComponentPad*%
%ADD11O,1.700000X1.700000*%
%TD*%
%TA.AperFunction,SMDPad,CuDef*%
%ADD12RoundRect,0.150000X-0.650000X-0.150000X0.650000X-0.150000X0.650000X0.150000X-0.650000X0.150000X0*%
%TD*%
%TA.AperFunction,SMDPad,CuDef*%
%ADD13RoundRect,0.250000X-0.262500X-0.450000X0.262500X-0.450000X0.262500X0.450000X-0.262500X0.450000X0*%
%TD*%
%TA.AperFunction,SMDPad,CuDef*%
%ADD14RoundRect,0.243750X-0.243750X-0.456250X0.243750X-0.456250X0.243750X0.456250X-0.243750X0.456250X0*%
%TD*%
%TA.AperFunction,SMDPad,CuDef*%
%ADD15R,3.500000X2.400000*%
%TD*%
%TA.AperFunction,SMDPad,CuDef*%
%ADD16RoundRect,0.250000X-0.250000X-0.475000X0.250000X-0.475000X0.250000X0.475000X-0.250000X0.475000X0*%
%TD*%
%TA.AperFunction,SMDPad,CuDef*%
%ADD17R,1.500000X0.550000*%
%TD*%
%TA.AperFunction,SMDPad,CuDef*%
%ADD18R,0.550000X1.500000*%
%TD*%
%TA.AperFunction,SMDPad,CuDef*%
%ADD19RoundRect,0.250000X0.250000X0.475000X-0.250000X0.475000X-0.250000X-0.475000X0.250000X-0.475000X0*%
%TD*%
%TA.AperFunction,SMDPad,CuDef*%
%ADD20R,2.400000X3.500000*%
%TD*%
%TA.AperFunction,SMDPad,CuDef*%
%ADD21RoundRect,0.073750X-0.911250X-0.221250X0.911250X-0.221250X0.911250X0.221250X-0.911250X0.221250X0*%
%TD*%
%TA.AperFunction,ViaPad*%
%ADD22C,0.800000*%
%TD*%
%TA.AperFunction,ViaPad*%
%ADD23C,0.900000*%
%TD*%
%TA.AperFunction,Conductor*%
%ADD24C,0.250000*%
%TD*%
%TA.AperFunction,Conductor*%
%ADD25C,0.350000*%
%TD*%
G04 APERTURE END LIST*
D10*
%TO.P,BT1,1,+*%
%TO.N,Net-(BT1-+)*%
X128905000Y-105410000D03*
D11*
%TO.P,BT1,2,-*%
%TO.N,GND*%
X128905000Y-107950000D03*
%TD*%
D12*
%TO.P,U2,1,A0*%
%TO.N,/Vcc*%
X133655000Y-107315000D03*
%TO.P,U2,2,A1*%
%TO.N,GND*%
X133655000Y-108585000D03*
%TO.P,U2,3,A2*%
%TO.N,/Vcc*%
X133655000Y-109855000D03*
%TO.P,U2,4,GND*%
%TO.N,GND*%
X133655000Y-111125000D03*
%TO.P,U2,5,SDA*%
%TO.N,/SDA*%
X140855000Y-111125000D03*
%TO.P,U2,6,SCL*%
%TO.N,/SCK*%
X140855000Y-109855000D03*
%TO.P,U2,7,WP*%
%TO.N,GND*%
X140855000Y-108585000D03*
%TO.P,U2,8,VCC*%
%TO.N,/Vcc*%
X140855000Y-107315000D03*
%TD*%
D13*
%TO.P,R2,1*%
%TO.N,/Vcc*%
X163910000Y-109855000D03*
%TO.P,R2,2*%
%TO.N,/SDA*%
X165735000Y-109855000D03*
%TD*%
D14*
%TO.P,D1,1,K*%
%TO.N,Net-(D1-K)*%
X166702500Y-99695000D03*
%TO.P,D1,2,A*%
%TO.N,Net-(BT1-+)*%
X168577500Y-99695000D03*
%TD*%
D10*
%TO.P,J1,1,Pin_1*%
%TO.N,GND*%
X173990000Y-113030000D03*
D11*
%TO.P,J1,2,Pin_2*%
%TO.N,/Vcc*%
X173990000Y-115570000D03*
%TO.P,J1,3,Pin_3*%
%TO.N,/SDA*%
X173990000Y-118110000D03*
%TO.P,J1,4,Pin_4*%
%TO.N,/SCK*%
X173990000Y-120650000D03*
%TD*%
D13*
%TO.P,R7,1*%
%TO.N,/Vcc*%
X142851500Y-105410000D03*
%TO.P,R7,2*%
%TO.N,Net-(U3-~{INTA})*%
X144676500Y-105410000D03*
%TD*%
D15*
%TO.P,Y1,1,1*%
%TO.N,Net-(U4-PB7)*%
X154820000Y-119380000D03*
%TO.P,Y1,2,2*%
%TO.N,Net-(U4-PB6)*%
X160020000Y-119380000D03*
%TD*%
D10*
%TO.P,J2,1,Pin_1*%
%TO.N,GND*%
X159385000Y-125095000D03*
D11*
%TO.P,J2,2,Pin_2*%
%TO.N,/Vcc*%
X161925000Y-125095000D03*
%TO.P,J2,3,Pin_3*%
%TO.N,/RX*%
X164465000Y-125095000D03*
%TO.P,J2,4,Pin_4*%
%TO.N,/TX*%
X167005000Y-125095000D03*
%TD*%
D14*
%TO.P,D2,1,K*%
%TO.N,Net-(D2-K)*%
X161955000Y-99695000D03*
%TO.P,D2,2,A*%
%TO.N,/SCK*%
X163830000Y-99695000D03*
%TD*%
D16*
%TO.P,C1,1*%
%TO.N,GND*%
X156977000Y-99695000D03*
%TO.P,C1,2*%
%TO.N,Net-(U4-AREF)*%
X158877000Y-99695000D03*
%TD*%
%TO.P,C5,1*%
%TO.N,Net-(BT1-+)*%
X145420000Y-99695000D03*
%TO.P,C5,2*%
%TO.N,GND*%
X147320000Y-99695000D03*
%TD*%
D12*
%TO.P,U1,1,A0*%
%TO.N,/Vcc*%
X133655000Y-99695000D03*
%TO.P,U1,2,A1*%
X133655000Y-100965000D03*
%TO.P,U1,3,A2*%
X133655000Y-102235000D03*
%TO.P,U1,4,GND*%
%TO.N,GND*%
X133655000Y-103505000D03*
%TO.P,U1,5,SDA*%
%TO.N,/SDA*%
X140855000Y-103505000D03*
%TO.P,U1,6,SCL*%
%TO.N,/SCK*%
X140855000Y-102235000D03*
%TO.P,U1,7,WP*%
%TO.N,GND*%
X140855000Y-100965000D03*
%TO.P,U1,8,VCC*%
%TO.N,/Vcc*%
X140855000Y-99695000D03*
%TD*%
D13*
%TO.P,R3,1*%
%TO.N,/Vcc*%
X151487500Y-99695000D03*
%TO.P,R3,2*%
%TO.N,/RESET*%
X153312500Y-99695000D03*
%TD*%
D17*
%TO.P,U4,1,PD3*%
%TO.N,/D3*%
X149515000Y-106680000D03*
%TO.P,U4,2,PD4*%
%TO.N,/D4*%
X149515000Y-107480000D03*
%TO.P,U4,3,GND*%
%TO.N,GND*%
X149515000Y-108280000D03*
%TO.P,U4,4,VCC*%
%TO.N,Net-(BT1-+)*%
X149515000Y-109080000D03*
%TO.P,U4,5,GND*%
%TO.N,GND*%
X149515000Y-109880000D03*
%TO.P,U4,6,VCC*%
%TO.N,unconnected-(U4-VCC-Pad6)*%
X149515000Y-110680000D03*
%TO.P,U4,7,PB6*%
%TO.N,Net-(U4-PB6)*%
X149515000Y-111480000D03*
%TO.P,U4,8,PB7*%
%TO.N,Net-(U4-PB7)*%
X149515000Y-112280000D03*
D18*
%TO.P,U4,9,PD5*%
%TO.N,/D5*%
X151015000Y-113780000D03*
%TO.P,U4,10,PD6*%
%TO.N,/D6*%
X151815000Y-113780000D03*
%TO.P,U4,11,PD7*%
%TO.N,/D7*%
X152615000Y-113780000D03*
%TO.P,U4,12,PB0*%
%TO.N,/D8*%
X153415000Y-113780000D03*
%TO.P,U4,13,PB1*%
%TO.N,unconnected-(U4-PB1-Pad13)*%
X154215000Y-113780000D03*
%TO.P,U4,14,PB2*%
%TO.N,unconnected-(U4-PB2-Pad14)*%
X155015000Y-113780000D03*
%TO.P,U4,15,PB3*%
%TO.N,/MOSI*%
X155815000Y-113780000D03*
%TO.P,U4,16,PB4*%
%TO.N,/MISO*%
X156615000Y-113780000D03*
D17*
%TO.P,U4,17,PB5*%
%TO.N,/SCK*%
X158115000Y-112280000D03*
%TO.P,U4,18,AVCC*%
%TO.N,Net-(BT1-+)*%
X158115000Y-111480000D03*
%TO.P,U4,19,ADC6*%
%TO.N,unconnected-(U4-ADC6-Pad19)*%
X158115000Y-110680000D03*
%TO.P,U4,20,AREF*%
%TO.N,Net-(U4-AREF)*%
X158115000Y-109880000D03*
%TO.P,U4,21,GND*%
%TO.N,GND*%
X158115000Y-109080000D03*
%TO.P,U4,22,ADC7*%
%TO.N,unconnected-(U4-ADC7-Pad22)*%
X158115000Y-108280000D03*
%TO.P,U4,23,PC0*%
%TO.N,unconnected-(U4-PC0-Pad23)*%
X158115000Y-107480000D03*
%TO.P,U4,24,PC1*%
%TO.N,unconnected-(U4-PC1-Pad24)*%
X158115000Y-106680000D03*
D18*
%TO.P,U4,25,PC2*%
%TO.N,unconnected-(U4-PC2-Pad25)*%
X156615000Y-105180000D03*
%TO.P,U4,26,PC3*%
%TO.N,unconnected-(U4-PC3-Pad26)*%
X155815000Y-105180000D03*
%TO.P,U4,27,PC4*%
%TO.N,/SDA*%
X155015000Y-105180000D03*
%TO.P,U4,28,PC5*%
%TO.N,/SCK*%
X154215000Y-105180000D03*
%TO.P,U4,29,PC6/~{RESET}*%
%TO.N,/RESET*%
X153415000Y-105180000D03*
%TO.P,U4,30,PD0*%
%TO.N,/RX*%
X152615000Y-105180000D03*
%TO.P,U4,31,PD1*%
%TO.N,/TX*%
X151815000Y-105180000D03*
%TO.P,U4,32,PD2*%
%TO.N,/D2*%
X151015000Y-105180000D03*
%TD*%
D19*
%TO.P,C2,1*%
%TO.N,/Vcc*%
X136144000Y-121412000D03*
%TO.P,C2,2*%
%TO.N,GND*%
X134244000Y-121412000D03*
%TD*%
D10*
%TO.P,J4,1,Pin_1*%
%TO.N,/MISO*%
X171450000Y-104140000D03*
D11*
%TO.P,J4,2,Pin_2*%
%TO.N,/Vcc*%
X173990000Y-104140000D03*
%TO.P,J4,3,Pin_3*%
%TO.N,/SCK*%
X171450000Y-106680000D03*
%TO.P,J4,4,Pin_4*%
%TO.N,/MOSI*%
X173990000Y-106680000D03*
%TO.P,J4,5,Pin_5*%
%TO.N,/RESET*%
X171450000Y-109220000D03*
%TO.P,J4,6,Pin_6*%
%TO.N,GND*%
X173990000Y-109220000D03*
%TD*%
D13*
%TO.P,R1,1*%
%TO.N,Net-(D1-K)*%
X166727500Y-104013000D03*
%TO.P,R1,2*%
%TO.N,GND*%
X168552500Y-104013000D03*
%TD*%
D16*
%TO.P,C4,1*%
%TO.N,GND*%
X149926000Y-118872000D03*
%TO.P,C4,2*%
%TO.N,Net-(U4-PB6)*%
X151826000Y-118872000D03*
%TD*%
%TO.P,C3,1*%
%TO.N,GND*%
X163835000Y-119380000D03*
%TO.P,C3,2*%
%TO.N,Net-(U4-PB7)*%
X165735000Y-119380000D03*
%TD*%
D10*
%TO.P,J3,1,Pin_1*%
%TO.N,/D2*%
X132689600Y-125425200D03*
D11*
%TO.P,J3,2,Pin_2*%
%TO.N,/D3*%
X135229600Y-125425200D03*
%TO.P,J3,3,Pin_3*%
%TO.N,/D4*%
X137769600Y-125425200D03*
%TO.P,J3,4,Pin_4*%
%TO.N,/D5*%
X140309600Y-125425200D03*
%TO.P,J3,5,Pin_5*%
%TO.N,/D6*%
X142849600Y-125425200D03*
%TO.P,J3,6,Pin_6*%
%TO.N,/D7*%
X145389600Y-125425200D03*
%TO.P,J3,7,Pin_7*%
%TO.N,/D8*%
X147929600Y-125425200D03*
%TO.P,J3,8,Pin_8*%
%TO.N,GND*%
X150469600Y-125425200D03*
%TO.P,J3,9,Pin_9*%
%TO.N,/Vcc*%
X153009600Y-125425200D03*
%TD*%
D20*
%TO.P,Y2,1,1*%
%TO.N,Net-(U3-X2)*%
X128981200Y-118424000D03*
%TO.P,Y2,2,2*%
%TO.N,Net-(U3-X1)*%
X128981200Y-113224000D03*
%TD*%
D13*
%TO.P,R4,1*%
%TO.N,GND*%
X162028500Y-104013000D03*
%TO.P,R4,2*%
%TO.N,Net-(D2-K)*%
X163853500Y-104013000D03*
%TD*%
%TO.P,R6,1*%
%TO.N,/Vcc*%
X142851500Y-114808000D03*
%TO.P,R6,2*%
%TO.N,Net-(U3-SQW{slash}~INT)*%
X144676500Y-114808000D03*
%TD*%
%TO.P,R5,1*%
%TO.N,/Vcc*%
X164695500Y-114300000D03*
%TO.P,R5,2*%
%TO.N,/SCK*%
X166520500Y-114300000D03*
%TD*%
D21*
%TO.P,U3,1,X1*%
%TO.N,Net-(U3-X1)*%
X134750000Y-114300000D03*
%TO.P,U3,2,X2*%
%TO.N,Net-(U3-X2)*%
X134750000Y-115570000D03*
%TO.P,U3,3,~{INTA}*%
%TO.N,Net-(U3-~{INTA})*%
X134750000Y-116840000D03*
%TO.P,U3,4,GND*%
%TO.N,GND*%
X134750000Y-118110000D03*
%TO.P,U3,5,SDA*%
%TO.N,/SDA*%
X139700000Y-118110000D03*
%TO.P,U3,6,SCL*%
%TO.N,/SCK*%
X139700000Y-116840000D03*
%TO.P,U3,7,SQW/~INT*%
%TO.N,Net-(U3-SQW{slash}~INT)*%
X139700000Y-115570000D03*
%TO.P,U3,8,VCC*%
%TO.N,/Vcc*%
X139700000Y-114300000D03*
%TD*%
D22*
%TO.N,/RESET*%
X170942000Y-116522000D03*
X166751000Y-116522000D03*
X160650347Y-116463653D03*
X153458653Y-106383347D03*
%TO.N,/MOSI*%
X167871756Y-113575000D03*
X163533000Y-114552582D03*
%TO.N,/MISO*%
X162795500Y-113138500D03*
%TO.N,Net-(BT1-+)*%
X168529000Y-101092000D03*
X160909000Y-110998000D03*
X162814000Y-107950000D03*
D23*
%TO.N,GND*%
X175260000Y-102616000D03*
X168275000Y-102743000D03*
X162179000Y-102679000D03*
D22*
%TO.N,/SCK*%
X165735000Y-111416000D03*
X161666347Y-111755347D03*
%TO.N,Net-(BT1-+)*%
X154305000Y-110998000D03*
X147701000Y-110236000D03*
%TO.N,/SCK*%
X155956000Y-112141000D03*
X155448000Y-108255000D03*
%TO.N,/SDA*%
X165481000Y-108458000D03*
X156337000Y-106807000D03*
%TO.N,/RX*%
X154305000Y-108255000D03*
%TO.N,/TX*%
X151894781Y-104027778D03*
X163449000Y-105664000D03*
%TO.N,Net-(U4-PB6)*%
X150310549Y-117417549D03*
X147574000Y-112014000D03*
%TO.N,/SCK*%
X163830000Y-101854000D03*
X159893000Y-102489000D03*
%TO.N,/SDA*%
X154940000Y-101346000D03*
%TO.N,/SCK*%
X154051000Y-103060000D03*
X142609136Y-102373864D03*
X168275000Y-114554000D03*
D23*
%TO.N,/Vcc*%
X167958000Y-115651389D03*
D22*
%TO.N,Net-(U4-AREF)*%
X160274000Y-101092000D03*
X160018275Y-109905000D03*
%TO.N,Net-(BT1-+)*%
X147642153Y-108907153D03*
X149733000Y-100076000D03*
D23*
%TO.N,/Vcc*%
X161798000Y-109855000D03*
X144272000Y-107950000D03*
D22*
%TO.N,/SDA*%
X170688000Y-118110000D03*
X167259000Y-107823000D03*
%TO.N,Net-(U4-PB7)*%
X149479000Y-114554000D03*
X154305000Y-116967000D03*
D23*
%TO.N,GND*%
X152273000Y-107696000D03*
X136715500Y-114236500D03*
X144145000Y-102743000D03*
X136144000Y-111633000D03*
X142621000Y-108331000D03*
%TO.N,/Vcc*%
X132447000Y-110061781D03*
X138684000Y-111633000D03*
X138811000Y-113601000D03*
X143891000Y-117602000D03*
X151384000Y-122682000D03*
X132588000Y-105791000D03*
D22*
%TO.N,/SCK*%
X138811000Y-109410000D03*
X141478000Y-115443000D03*
X139446000Y-109982000D03*
X138430000Y-102997000D03*
%TO.N,/SDA*%
X141986000Y-117221000D03*
X142875000Y-111633000D03*
X142494000Y-103886000D03*
X142875000Y-110236000D03*
%TO.N,/D8*%
X148717000Y-120777000D03*
X153289000Y-115443000D03*
%TO.N,Net-(U3-SQW{slash}~INT)*%
X144832137Y-117032557D03*
X137795000Y-116586000D03*
%TD*%
D24*
%TO.N,/RESET*%
X166692653Y-116463653D02*
X166751000Y-116522000D01*
X160650347Y-116463653D02*
X166692653Y-116463653D01*
D25*
%TO.N,/Vcc*%
X165227000Y-115697000D02*
X164695500Y-115165500D01*
X167912389Y-115697000D02*
X165227000Y-115697000D01*
X167958000Y-115651389D02*
X167912389Y-115697000D01*
X164695500Y-115165500D02*
X164695500Y-114300000D01*
D24*
%TO.N,/RESET*%
X153415000Y-106339694D02*
X153458653Y-106383347D01*
X153415000Y-105180000D02*
X153415000Y-106339694D01*
%TO.N,/MOSI*%
X172720000Y-107950000D02*
X173990000Y-106680000D01*
X172720000Y-110236000D02*
X172720000Y-107950000D01*
X169381000Y-113575000D02*
X172720000Y-110236000D01*
X167871756Y-113575000D02*
X169381000Y-113575000D01*
X162769582Y-115316000D02*
X163533000Y-114552582D01*
X162560000Y-115316000D02*
X162769582Y-115316000D01*
%TO.N,/MISO*%
X162154000Y-113780000D02*
X156615000Y-113780000D01*
X162795500Y-113138500D02*
X162154000Y-113780000D01*
%TO.N,Net-(BT1-+)*%
X160427000Y-111480000D02*
X158115000Y-111480000D01*
X160909000Y-110998000D02*
X160427000Y-111480000D01*
%TO.N,/SCK*%
X161141694Y-112280000D02*
X158115000Y-112280000D01*
X161666347Y-111755347D02*
X161141694Y-112280000D01*
%TO.N,/MOSI*%
X156351000Y-115316000D02*
X162560000Y-115316000D01*
X155815000Y-114780000D02*
X156351000Y-115316000D01*
X155815000Y-113780000D02*
X155815000Y-114780000D01*
%TO.N,Net-(BT1-+)*%
X168529000Y-99743500D02*
X168577500Y-99695000D01*
X168529000Y-101092000D02*
X168529000Y-99743500D01*
D25*
%TO.N,GND*%
X174879000Y-102235000D02*
X175260000Y-102616000D01*
X168552500Y-103481500D02*
X169799000Y-102235000D01*
X169799000Y-102235000D02*
X174879000Y-102235000D01*
X168552500Y-104013000D02*
X168552500Y-103481500D01*
X168275000Y-103735500D02*
X168552500Y-104013000D01*
X168275000Y-102743000D02*
X168275000Y-103735500D01*
X162028500Y-102829500D02*
X162179000Y-102679000D01*
X162028500Y-104013000D02*
X162028500Y-102829500D01*
D24*
%TO.N,Net-(U4-AREF)*%
X160274000Y-101092000D02*
X158877000Y-99695000D01*
%TO.N,Net-(D2-K)*%
X163853500Y-102893500D02*
X163853500Y-104013000D01*
X163539000Y-102579000D02*
X163853500Y-102893500D01*
X163529695Y-102579000D02*
X163539000Y-102579000D01*
X161955000Y-101004305D02*
X163529695Y-102579000D01*
X161955000Y-99695000D02*
X161955000Y-101004305D01*
%TO.N,/SCK*%
X166327000Y-111416000D02*
X166520500Y-111609500D01*
X165735000Y-111416000D02*
X166327000Y-111416000D01*
%TO.N,Net-(BT1-+)*%
X147701000Y-109601000D02*
X147701000Y-110236000D01*
X148222000Y-109080000D02*
X147701000Y-109601000D01*
X149515000Y-109080000D02*
X148222000Y-109080000D01*
X157115000Y-111480000D02*
X158115000Y-111480000D01*
X154305000Y-110998000D02*
X156633000Y-110998000D01*
X156633000Y-110998000D02*
X157115000Y-111480000D01*
D25*
%TO.N,GND*%
X152209500Y-109537500D02*
X151867000Y-109880000D01*
X151867000Y-109880000D02*
X149515000Y-109880000D01*
X152209500Y-107759500D02*
X152209500Y-109537500D01*
X152273000Y-107696000D02*
X152209500Y-107759500D01*
D24*
%TO.N,/SCK*%
X155956000Y-112141000D02*
X157976000Y-112141000D01*
X157976000Y-112141000D02*
X158115000Y-112280000D01*
X154215000Y-107022000D02*
X155448000Y-108255000D01*
X154215000Y-105180000D02*
X154215000Y-107022000D01*
%TO.N,/SDA*%
X165481000Y-109601000D02*
X165735000Y-109855000D01*
X165481000Y-108458000D02*
X165481000Y-109601000D01*
X155767000Y-106807000D02*
X156337000Y-106807000D01*
X155015000Y-106055000D02*
X155767000Y-106807000D01*
X155015000Y-105180000D02*
X155015000Y-106055000D01*
%TO.N,/RX*%
X152615000Y-106565000D02*
X154305000Y-108255000D01*
X152615000Y-105180000D02*
X152615000Y-106565000D01*
%TO.N,/SCK*%
X154215000Y-103224000D02*
X154215000Y-105180000D01*
X154051000Y-103060000D02*
X154215000Y-103224000D01*
%TO.N,/SDA*%
X155030000Y-101436000D02*
X155030000Y-105165000D01*
X155030000Y-105165000D02*
X155015000Y-105180000D01*
X154940000Y-101346000D02*
X155030000Y-101436000D01*
%TO.N,/TX*%
X151894781Y-105100219D02*
X151815000Y-105180000D01*
X151894781Y-104027778D02*
X151894781Y-105100219D01*
%TO.N,Net-(U4-PB6)*%
X151575549Y-117417549D02*
X151826000Y-117668000D01*
X150310549Y-117417549D02*
X151575549Y-117417549D01*
X148108000Y-111480000D02*
X147574000Y-112014000D01*
X149515000Y-111480000D02*
X148108000Y-111480000D01*
%TO.N,/SCK*%
X163830000Y-101854000D02*
X163830000Y-99695000D01*
D25*
%TO.N,/Vcc*%
X147574000Y-101473000D02*
X149709500Y-101473000D01*
X144762000Y-104285000D02*
X147574000Y-101473000D01*
X143976500Y-104285000D02*
X144762000Y-104285000D01*
X142851500Y-105410000D02*
X143976500Y-104285000D01*
X149709500Y-101473000D02*
X151487500Y-99695000D01*
D24*
%TO.N,/SCK*%
X142470272Y-102235000D02*
X142609136Y-102373864D01*
X140855000Y-102235000D02*
X142470272Y-102235000D01*
X168021000Y-114300000D02*
X168275000Y-114554000D01*
X166520500Y-114300000D02*
X168021000Y-114300000D01*
D25*
%TO.N,GND*%
X172325000Y-113030000D02*
X167506000Y-117849000D01*
X173990000Y-113030000D02*
X172325000Y-113030000D01*
D24*
%TO.N,Net-(U4-AREF)*%
X159993275Y-109880000D02*
X160018275Y-109905000D01*
X158115000Y-109880000D02*
X159993275Y-109880000D01*
%TO.N,Net-(U4-PB7)*%
X154305000Y-116967000D02*
X154820000Y-117482000D01*
X154820000Y-117482000D02*
X154820000Y-119380000D01*
%TO.N,Net-(U4-PB6)*%
X153289000Y-116205000D02*
X151826000Y-117668000D01*
X156845000Y-116205000D02*
X153289000Y-116205000D01*
X160020000Y-119380000D02*
X156845000Y-116205000D01*
X151826000Y-117668000D02*
X151826000Y-118872000D01*
%TO.N,/D8*%
X153289000Y-113906000D02*
X153415000Y-113780000D01*
X153289000Y-115443000D02*
X153289000Y-113906000D01*
%TO.N,Net-(BT1-+)*%
X147815000Y-109080000D02*
X149515000Y-109080000D01*
X147642153Y-108907153D02*
X147815000Y-109080000D01*
X149733000Y-99568000D02*
X149733000Y-100076000D01*
X148463000Y-98298000D02*
X149733000Y-99568000D01*
X146817000Y-98298000D02*
X148463000Y-98298000D01*
X145420000Y-99695000D02*
X146817000Y-98298000D01*
%TO.N,/D4*%
X140711198Y-123894000D02*
X146812000Y-117793198D01*
X139300800Y-123894000D02*
X140711198Y-123894000D01*
X146812000Y-108712000D02*
X148044000Y-107480000D01*
X148044000Y-107480000D02*
X149515000Y-107480000D01*
X137769600Y-125425200D02*
X139300800Y-123894000D01*
X146812000Y-117793198D02*
X146812000Y-108712000D01*
%TO.N,/D3*%
X146304000Y-117348000D02*
X146304000Y-108204000D01*
X140208000Y-123444000D02*
X146304000Y-117348000D01*
X146304000Y-108204000D02*
X147828000Y-106680000D01*
X137210800Y-123444000D02*
X140208000Y-123444000D01*
X147828000Y-106680000D02*
X149515000Y-106680000D01*
X135229600Y-125425200D02*
X137210800Y-123444000D01*
D25*
%TO.N,/Vcc*%
X161798000Y-109855000D02*
X163910000Y-109855000D01*
X142851500Y-106529500D02*
X144272000Y-107950000D01*
X142851500Y-105410000D02*
X142851500Y-106529500D01*
D24*
%TO.N,Net-(U3-~{INTA})*%
X145346000Y-106079500D02*
X144676500Y-105410000D01*
X145346000Y-111194000D02*
X145346000Y-106079500D01*
X143764000Y-112776000D02*
X145346000Y-111194000D01*
X133862396Y-112776000D02*
X143764000Y-112776000D01*
X133860396Y-112774000D02*
X133862396Y-112776000D01*
X132840000Y-112774000D02*
X133860396Y-112774000D01*
X126238000Y-111506000D02*
X127000000Y-110744000D01*
X130810000Y-110744000D02*
X132840000Y-112774000D01*
X126238000Y-120396000D02*
X126238000Y-111506000D01*
X127000000Y-121158000D02*
X126238000Y-120396000D01*
X127000000Y-110744000D02*
X130810000Y-110744000D01*
X132080000Y-121158000D02*
X127000000Y-121158000D01*
X133765000Y-116840000D02*
X132334000Y-118271000D01*
X132334000Y-118271000D02*
X132334000Y-120904000D01*
X134750000Y-116840000D02*
X133765000Y-116840000D01*
X132334000Y-120904000D02*
X132080000Y-121158000D01*
D25*
%TO.N,GND*%
X142367000Y-108585000D02*
X140855000Y-108585000D01*
X142621000Y-108331000D02*
X142367000Y-108585000D01*
D24*
%TO.N,/SDA*%
X170688000Y-118110000D02*
X173990000Y-118110000D01*
X165735000Y-109347000D02*
X167259000Y-107823000D01*
X165735000Y-109855000D02*
X165735000Y-109347000D01*
%TO.N,/SCK*%
X166520500Y-111609500D02*
X166520500Y-114300000D01*
X171450000Y-106680000D02*
X166520500Y-111609500D01*
%TO.N,Net-(U4-PB7)*%
X149479000Y-112316000D02*
X149515000Y-112280000D01*
X149479000Y-114554000D02*
X149479000Y-112316000D01*
D25*
%TO.N,GND*%
X153911000Y-109080000D02*
X158115000Y-109080000D01*
X152273000Y-107696000D02*
X152527000Y-107696000D01*
X152527000Y-107696000D02*
X153911000Y-109080000D01*
X151689000Y-108280000D02*
X149515000Y-108280000D01*
X152273000Y-107696000D02*
X151689000Y-108280000D01*
D24*
%TO.N,Net-(BT1-+)*%
X132334000Y-98044000D02*
X143769000Y-98044000D01*
X131318000Y-99060000D02*
X132334000Y-98044000D01*
X128905000Y-105410000D02*
X128905000Y-103505000D01*
X128905000Y-103505000D02*
X131318000Y-101092000D01*
X131318000Y-101092000D02*
X131318000Y-99060000D01*
X143769000Y-98044000D02*
X145420000Y-99695000D01*
D25*
%TO.N,GND*%
X149926000Y-124881600D02*
X150469600Y-125425200D01*
X129540000Y-108585000D02*
X133655000Y-108585000D01*
X131445000Y-106722328D02*
X133307672Y-108585000D01*
X140855000Y-100965000D02*
X146050000Y-100965000D01*
X133655000Y-108585000D02*
X140855000Y-108585000D01*
X167506000Y-118230000D02*
X167506000Y-117849000D01*
X162028500Y-107338500D02*
X162028500Y-104013000D01*
X167513000Y-118237000D02*
X167506000Y-118230000D01*
X160287000Y-109080000D02*
X162028500Y-107338500D01*
X133655000Y-108585000D02*
X132461000Y-108585000D01*
X131445000Y-105029000D02*
X131445000Y-106722328D01*
X173990000Y-109220000D02*
X173990000Y-113030000D01*
X156977000Y-101097000D02*
X159893000Y-104013000D01*
X146050000Y-100965000D02*
X147320000Y-99695000D01*
X158115000Y-109080000D02*
X160287000Y-109080000D01*
X159385000Y-125095000D02*
X162264000Y-122216000D01*
X149926000Y-118872000D02*
X149926000Y-124881600D01*
X132969000Y-103505000D02*
X131445000Y-105029000D01*
X128905000Y-107950000D02*
X129540000Y-108585000D01*
X132461000Y-108585000D02*
X131572000Y-109474000D01*
X167132000Y-117475000D02*
X164338000Y-117475000D01*
X136160000Y-117269884D02*
X135319884Y-118110000D01*
X134750000Y-118110000D02*
X134244000Y-118616000D01*
X162264000Y-122216000D02*
X165566000Y-122216000D01*
X167513000Y-120269000D02*
X167513000Y-118237000D01*
X131572000Y-110490000D02*
X132207000Y-111125000D01*
X144145000Y-102743000D02*
X142367000Y-100965000D01*
X133307672Y-108585000D02*
X133655000Y-108585000D01*
X132207000Y-111125000D02*
X133655000Y-111125000D01*
X135636000Y-111125000D02*
X136144000Y-111633000D01*
X136160000Y-114824000D02*
X136160000Y-117269884D01*
X165566000Y-122216000D02*
X167513000Y-120269000D01*
X136715500Y-114268500D02*
X136160000Y-114824000D01*
X142367000Y-100965000D02*
X140855000Y-100965000D01*
X133655000Y-103505000D02*
X132969000Y-103505000D01*
X131572000Y-109474000D02*
X131572000Y-110490000D01*
X135319884Y-118110000D02*
X134750000Y-118110000D01*
X156977000Y-99695000D02*
X156977000Y-101097000D01*
X133655000Y-111125000D02*
X135636000Y-111125000D01*
X136715500Y-114236500D02*
X136715500Y-114268500D01*
X134244000Y-118616000D02*
X134244000Y-121412000D01*
X164338000Y-117475000D02*
X163835000Y-117978000D01*
X167506000Y-117849000D02*
X167132000Y-117475000D01*
X159893000Y-104013000D02*
X162028500Y-104013000D01*
X163835000Y-117978000D02*
X163835000Y-119380000D01*
%TO.N,/Vcc*%
X133655000Y-102235000D02*
X133655000Y-100965000D01*
X142851500Y-116562500D02*
X143891000Y-117602000D01*
X151511000Y-122682000D02*
X153009600Y-124180600D01*
X133655000Y-106858000D02*
X133655000Y-107315000D01*
X153009600Y-124180600D02*
X153009600Y-125425200D01*
X175265000Y-114295000D02*
X173990000Y-115570000D01*
X138811000Y-113601000D02*
X139001000Y-113601000D01*
X135001000Y-102235000D02*
X135382000Y-102616000D01*
X140946500Y-107315000D02*
X142851500Y-105410000D01*
X173990000Y-104140000D02*
X175265000Y-105415000D01*
X136906000Y-109855000D02*
X138684000Y-111633000D01*
X133655000Y-107315000D02*
X134874000Y-107315000D01*
X163910000Y-113514500D02*
X164695500Y-114300000D01*
X151384000Y-122682000D02*
X151511000Y-122682000D01*
X140855000Y-107315000D02*
X140946500Y-107315000D01*
X133448219Y-110061781D02*
X133655000Y-109855000D01*
X142851500Y-114808000D02*
X142851500Y-116562500D01*
X139700000Y-114300000D02*
X142343500Y-114300000D01*
X136144000Y-121412000D02*
X136144000Y-118745000D01*
X132447000Y-110061781D02*
X133448219Y-110061781D01*
X136144000Y-118745000D02*
X136760000Y-118129000D01*
X136760000Y-115716000D02*
X138176000Y-114300000D01*
X133655000Y-102235000D02*
X135001000Y-102235000D01*
X175265000Y-105415000D02*
X175265000Y-114295000D01*
X163910000Y-109855000D02*
X163910000Y-113514500D01*
X142343500Y-114300000D02*
X142851500Y-114808000D01*
X133655000Y-99695000D02*
X140855000Y-99695000D01*
X138176000Y-114300000D02*
X139700000Y-114300000D01*
X135382000Y-102616000D02*
X135382000Y-106807000D01*
X139001000Y-113601000D02*
X139700000Y-114300000D01*
X133655000Y-109855000D02*
X136906000Y-109855000D01*
X136760000Y-118129000D02*
X136760000Y-115716000D01*
X134874000Y-107315000D02*
X140855000Y-107315000D01*
X135382000Y-106807000D02*
X134874000Y-107315000D01*
X132588000Y-105791000D02*
X133655000Y-106858000D01*
X133655000Y-100965000D02*
X133655000Y-99695000D01*
D24*
%TO.N,Net-(U4-PB7)*%
X157106000Y-121666000D02*
X163449000Y-121666000D01*
X163449000Y-121666000D02*
X165735000Y-119380000D01*
X154820000Y-119380000D02*
X157106000Y-121666000D01*
%TO.N,Net-(D1-K)*%
X166727500Y-99720000D02*
X166702500Y-99695000D01*
X166727500Y-104013000D02*
X166727500Y-99720000D01*
%TO.N,/SCK*%
X140410000Y-109410000D02*
X140855000Y-109855000D01*
X141478000Y-115443000D02*
X141478000Y-116047000D01*
X141478000Y-116047000D02*
X140685000Y-116840000D01*
X140855000Y-109855000D02*
X139573000Y-109855000D01*
X138811000Y-109410000D02*
X140410000Y-109410000D01*
X139192000Y-102235000D02*
X138430000Y-102997000D01*
X140855000Y-102235000D02*
X139192000Y-102235000D01*
X140685000Y-116840000D02*
X139700000Y-116840000D01*
X139573000Y-109855000D02*
X139446000Y-109982000D01*
%TO.N,/SDA*%
X142367000Y-111125000D02*
X142875000Y-111633000D01*
X140855000Y-103505000D02*
X142113000Y-103505000D01*
X142875000Y-110236000D02*
X141986000Y-111125000D01*
X141097000Y-118110000D02*
X139700000Y-118110000D01*
X141986000Y-117221000D02*
X141097000Y-118110000D01*
X141986000Y-111125000D02*
X140855000Y-111125000D01*
X140855000Y-111125000D02*
X142367000Y-111125000D01*
X142113000Y-103505000D02*
X142494000Y-103886000D01*
%TO.N,/D8*%
X147929600Y-121564400D02*
X148717000Y-120777000D01*
X147929600Y-125425200D02*
X147929600Y-121564400D01*
%TO.N,/D6*%
X142849600Y-123216796D02*
X151211396Y-114855000D01*
X151211396Y-114855000D02*
X151615000Y-114855000D01*
X142849600Y-125425200D02*
X142849600Y-123216796D01*
X151615000Y-114855000D02*
X151815000Y-114655000D01*
X151815000Y-114655000D02*
X151815000Y-113780000D01*
%TO.N,/D5*%
X140309600Y-125425200D02*
X140309600Y-125120400D01*
X140309600Y-125120400D02*
X151015000Y-114415000D01*
X151015000Y-114415000D02*
X151015000Y-113780000D01*
%TO.N,/D7*%
X143764000Y-123799600D02*
X143764000Y-122938792D01*
X152615000Y-114847000D02*
X152615000Y-113780000D01*
X151397792Y-115305000D02*
X152157000Y-115305000D01*
X152157000Y-115305000D02*
X152615000Y-114847000D01*
X143764000Y-122938792D02*
X151397792Y-115305000D01*
X145389600Y-125425200D02*
X143764000Y-123799600D01*
%TO.N,/D2*%
X140208000Y-122682000D02*
X145796000Y-117094000D01*
X148058000Y-105180000D02*
X151015000Y-105180000D01*
X135432800Y-122682000D02*
X140208000Y-122682000D01*
X145796000Y-117094000D02*
X145796000Y-107442000D01*
X132689600Y-125425200D02*
X135432800Y-122682000D01*
X145796000Y-107442000D02*
X148058000Y-105180000D01*
%TO.N,/RESET*%
X153312500Y-99695000D02*
X153312500Y-105077500D01*
X153312500Y-105077500D02*
X153415000Y-105180000D01*
%TO.N,Net-(U3-SQW{slash}~INT)*%
X144832137Y-114963637D02*
X144676500Y-114808000D01*
X144832137Y-117032557D02*
X144832137Y-114963637D01*
X139700000Y-115570000D02*
X138811000Y-115570000D01*
X138811000Y-115570000D02*
X137795000Y-116586000D01*
%TO.N,Net-(U3-X1)*%
X128981200Y-113224000D02*
X133674000Y-113224000D01*
X133674000Y-113224000D02*
X134750000Y-114300000D01*
%TO.N,Net-(U3-X2)*%
X132588000Y-115570000D02*
X134750000Y-115570000D01*
X129734000Y-118424000D02*
X132588000Y-115570000D01*
X128981200Y-118424000D02*
X129734000Y-118424000D01*
%TD*%
M02*
