M48
; DRILL file {KiCad 8.0.5} date 2025-01-15T09:47:45+0530
; FORMAT={-:-/ absolute / inch / decimal}
; #@! TF.CreationDate,2025-01-15T09:47:45+05:30
; #@! TF.GenerationSoftware,Kicad,Pcbnew,8.0.5
; #@! TF.FileFunction,Plated,1,4,PTH
FMAT,2
INCH
; #@! TA.AperFunction,Plated,PTH,ViaDrill
T1C0.0157
; #@! TA.AperFunction,Plated,PTH,ComponentDrill
T2C0.0394
%
G90
G05
T1
X5.2144Y-4.3331
X5.22Y-4.165
X5.36Y-4.395
X5.3825Y-4.4975
X5.425Y-4.59
X5.45Y-4.055
X5.46Y-4.395
X5.465Y-4.3075
X5.465Y-4.4725
X5.49Y-4.33
X5.57Y-4.545
X5.59Y-4.615
X5.61Y-4.09
X5.6145Y-4.0305
X5.615Y-4.265
X5.625Y-4.34
X5.625Y-4.395
X5.665Y-4.63
X5.675Y-4.045
X5.68Y-4.25
X5.7021Y-4.6076
X5.81Y-4.41
X5.8127Y-4.2877
X5.815Y-4.34
X5.855Y-4.755
X5.885Y-4.51
X5.895Y-3.94
X5.9177Y-4.6227
X5.96Y-4.83
X5.9801Y-4.0956
X5.995Y-4.24
X6.035Y-4.545
X6.0417Y-4.1883
X6.065Y-4.0575
X6.075Y-4.262
X6.075Y-4.37
X6.075Y-4.605
X6.1Y-3.99
X6.12Y-4.262
X6.14Y-4.415
X6.155Y-4.205
X6.295Y-4.035
X6.2999Y-4.327
X6.31Y-3.98
X6.3248Y-4.5852
X6.335Y-4.37
X6.3648Y-4.3998
X6.37Y-4.325
X6.385Y-4.0425
X6.4093Y-4.4543
X6.41Y-4.25
X6.435Y-4.16
X6.4383Y-4.5099
X6.45Y-4.01
X6.515Y-4.27
X6.525Y-4.3865
X6.565Y-4.5875
X6.585Y-4.245
X6.6091Y-4.4715
X6.6125Y-4.5532
X6.625Y-4.045
X6.625Y-4.51
X6.635Y-3.98
X6.72Y-4.65
X6.73Y-4.5875
X6.9Y-4.04
T2
X5.075Y-4.15
X5.075Y-4.25
X5.224Y-4.938
X5.324Y-4.938
X5.424Y-4.938
X5.524Y-4.938
X5.624Y-4.938
X5.724Y-4.938
X5.824Y-4.938
X5.924Y-4.938
X6.024Y-4.938
X6.275Y-4.925
X6.375Y-4.925
X6.475Y-4.925
X6.575Y-4.925
X6.75Y-4.1
X6.75Y-4.2
X6.75Y-4.3
X6.85Y-4.1
X6.85Y-4.2
X6.85Y-4.3
X6.85Y-4.45
X6.85Y-4.55
X6.85Y-4.65
X6.85Y-4.75
M30
